<?xml version="1.0" encoding="UTF-8"?>
<svg id="Layer_1" data-name="Layer 1" xmlns="http://www.w3.org/2000/svg" xmlns:xlink="http://www.w3.org/1999/xlink" viewBox="0 0 264.71 672.94">
  <defs>
    <style>
      .cls-1 {
        fill: #fff;
      }

      .cls-2 {
        fill: #f8dc00;
      }

      .cls-3 {
        clip-path: url(#clippath);
      }

      .cls-4 {
        fill: none;
      }

      .cls-5 {
        fill: #264d9d;
      }

      .cls-6 {
        fill: #eb7e23;
      }

      .cls-7 {
        fill: #d72028;
      }
    </style>
    <clipPath id="clippath">
      <path class="cls-4" d="m71.97,114.42c4.88,4.77,7.77,12.27,9.75,19.4-.43.55-.85,1.1-1.28,1.65,1.06,1.27,2.12,3.13,2.94,5.05.53,2.35,1,4.52,1.44,6.37-1.69,11.07-1.86,21.53-1.12,31.64.36,5.06.9,10.03,1.57,14.97.68,4.93,1.46,9.82,2.24,14.71,1.82,15.37,8.26,30.61,15.42,44.58-3.94,2.68-9.35,7.06-9,12.65-.19,15.39-2.12,36.56,13.32,45.86-4.14,5.56-3.72,11.15-1.25,13.82,3.16,3.44,5.34,7.17,6.8,11.11-.01.31-.03.62-.04.93-.22,4.83-.6,9.79-.39,14.62.21,4.83.97,9.54,2.94,13.9.05-.07.09-.15.14-.24-.22,6.08-.47,12.15.1,17.91,3.27,10.97,1.19,23.73,4.98,31.81,3.39,5.37,4.41,10.46,5.24,15.35-.92,1.83-1.52,3.88-1.13,5.86-.02-1.11.11-2.12.34-3.06l1.25-.1c.24,1.34.49,2.68.81,3.99-1.51,6.45-1.72,13.96-5.49,16.56,5.65,1.74,4.63-3.19,4.13-7.62,1,4.82,2.8,10.48,3.18,15.81-1.14-1.98-3.54-3.13-1.16-5.93-1.93-.95-3.21-.27-4.36,1.49,1.83,4.68-.36,14.28,3.78,14.16-.4.72-.89,1.41-1.46,2.07l-.83.89,3.84,1.88-.78,1.18c.53-.36,1.01-.75,1.47-1.16,1.34,6.14.84,13.06,4.86,17.18.29-.53.57-1.03.84-1.47-.26.53-.54,1.03-.84,1.47,1.17.36,2.15.61,3.01.77-1.78,2.02-2.27-.66-4.36-.98.48,4.37.84,7.64,4.54,8.43l.4-7.34c1.32.21,2.28.21,3.07.11,2.61,2.11,4.74,3.86,4.13,4.77-1.59,6.13-4.72,11.07-8.14,15.64-.33-.09-.63-.2-.92-.29.61-3.06.44-7.33.52-8.96l-3.91,5.8,2.41,1.44c-.12.73-.55,1.17-1.06,1.44-.32.05-.67.16-1.07.34-.32.05-.62.08-.85.1l.11.29c-.3.18-.62.39-.97.64l1.23.04.85,2.21c.26.06.49.05.71,0-3,2.64-6.39,5.24-7.02,10,.11.02.23.05.35.07-1.52,2.57-2.74,5.28-3.46,8.27-.48.68,1.21,2.44,3.35,4.08.01.16.02.31.04.48,1.56,1.31,2.91,1.98,4.1,2.16.93.46,1.72.74,2.21.71,3.27-1.54,5.55-4.72,7.49-8.22.2-.36.4-.72.59-1.09l.08.86.4-.58c-.15-.16-.28-.29-.4-.41,1.67-3.14,3.17-6.39,4.94-8.84,3.19-1.82,4.75-2.95,7.42-4.87,4.23-3.07,7.01,2.23,8.26,3.54,6.85-5.31,9.16-13.47,9.61-22.55.46-9.08-.94-19.05-1.39-28.04-.31-2.75-6.09-3.64-6.4-6.39.97-1.48,1.94-2.95,2.9-4.42-.31-2.76-1.9-6.78-.93-8.26,3.86-5.89,3.57-13.49,2.57-21.2-.97-7.71-2.65-15.53-1.62-21.84,1.41-8.41-1.68-16.47.76-26.31,3.73-8.55-.83-20.65-1.77-31.63-1.24-1.3-2.49-2.6-3.74-3.91-.74-2.02-.42-4.8-.06-7.24.37-2.44.77-4.53.15-5.18-6.89-14.79-4.65-30.09-8.9-42.31-1.55-6.14-2.67-12.3-3.69-18.4-.98-6.11-1.85-12.17-2.93-18.11-1.09-5.94-2.3-11.76-4.08-17.39-.11-.36-.23-.72-.35-1.07l2.61-1.31c-1.61-1.8-2.83-3.61-4.5-3.92-.27-.67-.55-1.34-.84-2.01-.13-.3-.27-.6-.4-.89.91-3.12.07-5.55-3.65-7.1,1.05-2.38,2.26-1.03,3.31-2.44-1.4-3.28-2.22-6.91-2.54-10.68.94-1.24,1.55-2.97,1.08-6.45l-1.15.02c.16-2.81.55-5.64,1.15-8.4,1.86-8.66,5.8-16.64,10.7-21.51-4.61-2.7-5.3-6.14-5.29-9.75,0-3.62.75-7.41-1.05-10.83-1.25-4.12-3.36-8.59-4.76-12.9-1.37-4.31-2.04-8.45-.43-11.89,3.74-11.09.88-19.97-4.42-27.81-.05-.3-.09-.6-.14-.9-.39-.33-.79-.66-1.19-.98-.21-.28-.42-.57-.64-.85-6.46-8.51-15.26-15.91-20.43-23.63-13.5,2.54-29.25,5.05-32.42,20.42-.45,2.35-.49,4.7-.26,7.07-1.85,3.4-3.59,7.14-5.17,11.11Zm63.69,401.6l.5.02c-.27.29-.55.58-.85.86.13-.26.25-.55.35-.87Zm-10.05-84.61c-.1.34-.22.68-.37,1,.11-.34.23-.67.37-1Z"/>
    </clipPath>
  </defs>
  <g>
    <path class="cls-5" d="m138.95,597.1c.05.66.04,1.15-.74,1.46,2.74,1.04,3.58-1.06,3.95-3.7-2.28-2.56,1.73,3.91-3.22,2.24Z"/>
    <path class="cls-5" d="m138.72,595.42l-.1,1.57c.12.04.22.08.33.12-.03-.47-.1-1.04.07-1.7-.1,0-.2.01-.3.02Z"/>
    <path class="cls-5" d="m132.35,598.07c-.5-1.56-.12-4.16,2.15-3.66l-2.76-2.06.2,7.28c2.14-1.53,3.42-4.03,6.79-4.2l.21-3.16c-1.72,3.17-4.39,4.23-6.59,5.81Z"/>
    <path class="cls-5" d="m138.87,579.07l.37-1.6c-1.36-.28-2.48,1.14-3.54,2.34,1.05-.3,2.11-.1,3.16-.01,1.75.15,3.45-.02,4.83-3.52-1.27,1.64-2.53,3.26-4.82,2.8Z"/>
    <path class="cls-5" d="m135.69,579.81c-.72.21-1.43.64-2.13,1.51.73-.01,1.42-.71,2.13-1.51Z"/>
    <path class="cls-5" d="m144.33,592.19c5.38-1.12,1.26-3.71,5.62-6.99l-.95-1.05c-1.54,2.7-3.08,5.39-4.68,8.04Z"/>
    <path class="cls-5" d="m125.55,507.27c-.05.34-.12.68-.11,1.12l.93-.48c-.21-.2-.56-.43-.82-.64Z"/>
    <path class="cls-5" d="m127.32,500.56l-3.02,5.72c.56.34.85.65,1.24.98.54-3.56,3.84-2.88,1.77-6.7Z"/>
    <path class="cls-5" d="m126.26,520.83c2.66-5.09,2.62-9.99,1.76-13.76l-1.66.83c3.78,3.95-2.72,6.9-.1,12.93Z"/>
    <path class="cls-5" d="m167.71,538.61c.02.05.03.1.04.15,0,0,.02-.02.03-.02,6.06-2.58,3-6.82,7.58-11l-6.29.42c1.27,4.3-2.97,5.71-1.36,10.44Z"/>
    <path class="cls-5" d="m179.18,469.52c.16.16.32.28.48.39-.13-.13-.29-.26-.48-.39Z"/>
    <path class="cls-5" d="m179.66,469.91c1.93,1.92-1.82,4.33-2.43,6.47,1.62-.14,5.51-5.86,5.9-1.76-.03-2.33.04-4.43,3.09-2.92-.48-4.14-4.02-.16-6.57-1.78Z"/>
    <path class="cls-5" d="m183.14,474.61c0,.61.02,1.23,0,1.81.05-.75.05-1.34,0-1.81Z"/>
    <path class="cls-5" d="m179.57,465.04c.65-2.28,1.68-5.16-.24-6.09.26,2.2-3.09,4.72.24,6.09Z"/>
    <polygon class="cls-5" points="186.37 465 190.61 462.4 189.59 461.38 186.37 465"/>
    <path class="cls-5" d="m187.7,448.77l1.79,7.61,1.43-7.34c-3.28-3.77-4.5-1.49-5.56,1.76.51-.92,1.21-1.69,2.35-2.02Z"/>
    <path class="cls-5" d="m184.5,453.54c-.7,2.16-1.53,4.15-2.98,4.65l2.05,2.04c1.05-.09.48-3.55.92-6.69Z"/>
    <path class="cls-5" d="m184.5,453.54c.29-.92.58-1.87.85-2.75-.44.81-.72,1.75-.85,2.75Z"/>
    <path class="cls-5" d="m191.96,442.31l-.12-1.1-4.49.4c1.15,2.1,3.72.78,4.62.7Z"/>
    <path class="cls-5" d="m198.95,431.78c2.45-2.41-1.11-5.95-1.72-7.55-2.86,2.99-2.12,5.68-2.66,9.03.54-3.35,2.58-1.33,4.37-1.48Z"/>
    <path class="cls-5" d="m203.28,421.53l.69,6.52c4.76-2.05.05-3.84-.69-6.52Z"/>
    <path class="cls-5" d="m197.13,410.5c-1.69,1.24-.56,3.34-.84,5.01l3.65-4.13c-.51-.51-1.8.14-2.81-.88Z"/>
    <path class="cls-5" d="m71.97,114.42c4.88,4.77,7.77,12.27,9.75,19.4-.43.55-.85,1.1-1.28,1.65,1.06,1.27,2.12,3.13,2.94,5.05.53,2.35,1,4.52,1.44,6.37-1.69,11.07-1.86,21.53-1.12,31.64.36,5.06.9,10.03,1.57,14.97.68,4.93,1.46,9.82,2.24,14.71,1.82,15.37,8.26,30.61,15.42,44.58-3.94,2.68-9.35,7.06-9,12.65-.19,15.39-2.12,36.56,13.32,45.86-4.14,5.56-3.72,11.15-1.25,13.82,3.16,3.44,5.34,7.17,6.8,11.11-.01.31-.03.62-.04.93-.22,4.83-.6,9.79-.39,14.62.21,4.83.97,9.54,2.94,13.9.05-.07.09-.15.14-.24-.22,6.08-.47,12.15.1,17.91,3.27,10.97,1.19,23.73,4.98,31.81,3.39,5.37,4.41,10.46,5.24,15.35-.92,1.83-1.52,3.88-1.13,5.86-.02-1.11.11-2.12.34-3.06l1.25-.1c.24,1.34.49,2.68.81,3.99-1.51,6.45-1.72,13.96-5.49,16.56,5.65,1.74,4.63-3.19,4.13-7.62,1,4.82,2.8,10.48,3.18,15.81-1.14-1.98-3.54-3.13-1.16-5.93-1.93-.95-3.21-.27-4.36,1.49,1.83,4.68-.36,14.28,3.78,14.16-.4.72-.89,1.41-1.46,2.07l-.83.89,3.84,1.88-.78,1.18c.53-.36,1.01-.75,1.47-1.16,1.34,6.14.84,13.06,4.86,17.18.29-.53.57-1.03.84-1.47-.26.53-.54,1.03-.84,1.47,1.17.36,2.15.61,3.01.77-1.78,2.02-2.27-.66-4.36-.98.48,4.37.84,7.64,4.54,8.43l.4-7.34c1.32.21,2.28.21,3.07.11,2.61,2.11,4.74,3.86,4.13,4.77-1.59,6.13-4.72,11.07-8.14,15.64-.33-.09-.63-.2-.92-.29.61-3.06.44-7.33.52-8.96l-3.91,5.8,2.41,1.44c-.12.73-.55,1.17-1.06,1.44-.32.05-.67.16-1.07.34-.32.05-.62.08-.85.1l.11.29c-.3.18-.62.39-.97.64l1.23.04.85,2.21c.26.06.49.05.71,0-3,2.64-6.39,5.24-7.02,10,.11.02.23.05.35.07-1.52,2.57-2.74,5.28-3.46,8.27-.48.68,1.21,2.44,3.35,4.08.01.16.02.31.04.48,1.56,1.31,2.91,1.98,4.1,2.16.93.46,1.72.74,2.21.71,3.27-1.54,5.55-4.72,7.49-8.22.2-.36.4-.72.59-1.09l.08.86.4-.58c-.15-.16-.28-.29-.4-.41,1.67-3.14,3.17-6.39,4.94-8.84,3.19-1.82,4.75-2.95,7.42-4.87,4.23-3.07,7.01,2.23,8.26,3.54,6.85-5.31,9.16-13.47,9.61-22.55.46-9.08-.94-19.05-1.39-28.04-.31-2.75-6.09-3.64-6.4-6.39.97-1.48,1.94-2.95,2.9-4.42-.31-2.76-1.9-6.78-.93-8.26,3.86-5.89,3.57-13.49,2.57-21.2-.97-7.71-2.65-15.53-1.62-21.84,1.41-8.41-1.68-16.47.76-26.31,3.73-8.55-.83-20.65-1.77-31.63-1.24-1.3-2.49-2.6-3.74-3.91-.74-2.02-.42-4.8-.06-7.24.37-2.44.77-4.53.15-5.18-6.89-14.79-4.65-30.09-8.9-42.31-1.55-6.14-2.67-12.3-3.69-18.4-.98-6.11-1.85-12.17-2.93-18.11-1.09-5.94-2.3-11.76-4.08-17.39-.11-.36-.23-.72-.35-1.07l2.61-1.31c-1.61-1.8-2.83-3.61-4.5-3.92-.27-.67-.55-1.34-.84-2.01-.13-.3-.27-.6-.4-.89.91-3.12.07-5.55-3.65-7.1,1.05-2.38,2.26-1.03,3.31-2.44-1.4-3.28-2.22-6.91-2.54-10.68.94-1.24,1.55-2.97,1.08-6.45l-1.15.02c.16-2.81.55-5.64,1.15-8.4,1.86-8.66,5.8-16.64,10.7-21.51-4.61-2.7-5.3-6.14-5.29-9.75,0-3.62.75-7.41-1.05-10.83-1.25-4.12-3.36-8.59-4.76-12.9-1.37-4.31-2.04-8.45-.43-11.89,3.74-11.09.88-19.97-4.42-27.81-.05-.3-.09-.6-.14-.9-.39-.33-.79-.66-1.19-.98-.21-.28-.42-.57-.64-.85-6.46-8.51-15.26-15.91-20.43-23.63-13.5,2.54-29.25,5.05-32.42,20.42-.45,2.35-.49,4.7-.26,7.07-1.85,3.4-3.59,7.14-5.17,11.11Zm63.69,401.6l.5.02c-.27.29-.55.58-.85.86.13-.26.25-.55.35-.87Zm-10.05-84.61c-.1.34-.22.68-.37,1,.11-.34.23-.67.37-1Z"/>
  </g>
  <g class="cls-3">
    <g>
      <g>
        <g>
          <polygon class="cls-6" points="124.32 50.11 126.61 70.25 124.62 70.48 113.68 61.59 122.87 49.89 124.32 50.11"/>
          <polygon class="cls-6" points="132.58 122.96 134.86 143.1 132.87 143.33 121.93 134.44 131.12 122.74 132.58 122.96"/>
          <polygon class="cls-6" points="140.74 195.02 143.02 215.16 141.03 215.39 130.1 206.5 139.28 194.8 140.74 195.02"/>
          <polygon class="cls-6" points="148.95 267.51 151.23 287.65 149.24 287.88 138.31 278.99 147.49 267.29 148.95 267.51"/>
          <polygon class="cls-6" points="157.14 339.75 159.42 359.89 157.43 360.12 146.49 351.23 155.68 339.53 157.14 339.75"/>
          <polygon class="cls-6" points="165.36 412.33 167.64 432.47 165.65 432.69 154.71 423.81 163.9 412.1 165.36 412.33"/>
          <polygon class="cls-6" points="173.54 484.59 175.83 504.73 173.83 504.96 162.9 496.08 172.09 484.37 173.54 484.59"/>
          <polygon class="cls-6" points="181.8 557.48 184.08 577.62 182.09 577.85 171.16 568.96 180.34 557.26 181.8 557.48"/>
        </g>
        <path class="cls-1" d="m138.98,282.08l8.89,6.75c.94.71,2.16.79,3.19.21,1.03-.59,1.58-1.68,1.45-2.85l-1.96-17.33c-.13-1.18-.92-2.12-2.05-2.46-1.13-.34-2.31.02-3.06.92l-7.16,8.56c-.76.91-1.11,2.06-.97,3.24s.73,2.23,1.67,2.95Zm.96-4.8l7.16-8.57c.2-.24.48-.32.78-.23s.49.32.52.63l1.96,17.33c.04.31-.1.57-.37.73-.27.15-.57.14-.81-.05l-8.89-6.75c-.45-.34-.74-.87-.81-1.47h0c-.07-.6.1-1.18.46-1.61Z"/>
        <path class="cls-1" d="m129.68,280.15c.13,1.18.73,2.23,1.67,2.95l22.46,17.05c.94.72,2.17.8,3.19.21,1.03-.59,1.58-1.68,1.45-2.85l-4.61-40.7c-.13-1.17-.92-2.11-2.05-2.46-1.13-.34-2.31.01-3.07.92l-18.07,21.64c-.76.91-1.11,2.06-.98,3.24Zm21.49-23.73c.3.09.49.32.52.63l4.61,40.7c.04.31-.1.57-.37.73-.27.15-.57.13-.81-.05l-22.46-17.04c-.45-.34-.74-.88-.81-1.47h0c-.07-.6.1-1.18.46-1.61l18.07-21.64c.2-.24.49-.32.79-.24Z"/>
        <path class="cls-1" d="m105.05,62.73c.13,1.18.73,2.22,1.67,2.95l22.45,17.04c.94.71,2.17.8,3.19.21,1.03-.59,1.58-1.68,1.45-2.85l-4.61-40.7c-.13-1.18-.92-2.12-2.05-2.46-1.13-.34-2.31.02-3.07.92l-18.07,21.64c-.76.91-1.11,2.06-.97,3.25Zm21.49-23.73c.3.09.49.32.52.63l4.61,40.7c.04.31-.1.57-.37.73-.27.15-.57.13-.81-.05l-22.45-17.05c-.9-.68-1.07-2.22-.35-3.08l18.07-21.64c.2-.24.48-.32.78-.23Z"/>
        <path class="cls-1" d="m114.37,64.81l8.89,6.74c.94.72,2.16.8,3.19.21,1.03-.58,1.58-1.68,1.45-2.85l-1.96-17.33c-.13-1.17-.92-2.11-2.05-2.46-1.13-.34-2.31.02-3.06.92l-7.16,8.56c-.76.91-1.11,2.06-.97,3.25s.73,2.22,1.68,2.95Zm8.89-13.6c.3.09.49.32.52.63l1.96,17.33c.04.31-.1.58-.37.73-.27.15-.57.13-.82-.06l-8.89-6.75c-.45-.34-.74-.87-.81-1.47h0c-.07-.6.1-1.18.46-1.61l7.16-8.57c.2-.24.48-.32.78-.23Z"/>
        <path class="cls-1" d="m122.57,137.23l8.89,6.74c.94.72,2.16.8,3.19.21,1.03-.59,1.58-1.68,1.45-2.85l-1.96-17.33c-.13-1.17-.92-2.11-2.05-2.46-1.13-.34-2.31.01-3.06.92l-7.15,8.57c-.76.91-1.11,2.06-.97,3.25s.73,2.22,1.67,2.94Zm10.2,5.02l-8.89-6.74c-.45-.34-.74-.88-.81-1.47h0c-.07-.6.1-1.18.46-1.61l7.15-8.57c.2-.24.48-.32.78-.23.3.09.49.32.52.63l1.96,17.33c.04.31-.1.57-.37.73-.27.15-.57.13-.81-.05Z"/>
        <path class="cls-1" d="m113.27,135.31c.13,1.18.73,2.23,1.67,2.94l22.46,17.05c.94.71,2.17.79,3.19.21,1.03-.59,1.58-1.68,1.45-2.85l-4.61-40.7c-.13-1.17-.92-2.11-2.05-2.46-1.13-.34-2.31.01-3.07.92l-18.07,21.64c-.76.91-1.11,2.07-.97,3.25Zm21.49-23.73c.3.09.49.32.52.63l4.61,40.7c.04.31-.1.57-.37.73-.27.15-.57.13-.82-.05l-22.46-17.05c-.45-.34-.74-.87-.81-1.47s.1-1.18.46-1.61l18.07-21.64c.2-.24.49-.33.79-.24Z"/>
        <path class="cls-1" d="m96.88-9.4c.13,1.18.73,2.23,1.67,2.94l22.46,17.05c.94.71,2.17.79,3.19.21,1.03-.59,1.58-1.68,1.45-2.85l-4.61-40.7c-.13-1.17-.92-2.11-2.05-2.46-1.13-.34-2.31.01-3.07.92l-18.07,21.64c-.76.91-1.11,2.07-.97,3.25Zm21.49-23.73c.3.09.49.32.52.63l4.61,40.7c.04.31-.1.57-.37.73-.27.15-.57.13-.82-.05l-22.46-17.05c-.45-.34-.74-.87-.81-1.47s.1-1.18.46-1.61l18.07-21.64c.2-.24.49-.33.79-.24Z"/>
        <path class="cls-1" d="m144.3,213.76l-1.96-17.32c-.13-1.18-.92-2.12-2.05-2.46-1.13-.34-2.31.01-3.06.92l-7.15,8.56c-.76.91-1.11,2.06-.97,3.25.13,1.18.73,2.23,1.68,2.95l8.89,6.75c.94.71,2.16.8,3.19.21,1.03-.59,1.58-1.68,1.45-2.85Zm-12.57-8.91l7.15-8.57c.2-.24.48-.32.78-.23.3.09.49.32.52.63l1.96,17.32c.04.31-.1.58-.37.73-.27.15-.57.13-.81-.05l-8.89-6.75c-.9-.68-1.07-2.22-.35-3.08Z"/>
        <path class="cls-1" d="m121.46,207.57c.13,1.18.73,2.23,1.67,2.95l22.45,17.04c.94.71,2.17.8,3.19.21,1.03-.59,1.58-1.68,1.45-2.85l-4.61-40.7c-.13-1.18-.92-2.12-2.05-2.46-1.13-.34-2.31.01-3.07.92l-18.07,21.64c-.76.91-1.11,2.06-.97,3.25Zm2.63-1.86l18.07-21.64c.2-.24.48-.32.78-.24.3.09.49.32.53.63l4.61,40.7c.04.31-.1.57-.37.73-.27.15-.57.13-.81-.05l-22.45-17.04c-.9-.68-1.07-2.22-.35-3.08Z"/>
        <path class="cls-1" d="m147.18,354.5l8.89,6.75c.94.71,2.16.8,3.19.21,1.03-.59,1.58-1.68,1.45-2.85l-1.96-17.33c-.13-1.17-.92-2.11-2.05-2.46-1.13-.34-2.31.02-3.06.92l-7.15,8.57c-.76.91-1.11,2.06-.97,3.24.13,1.18.73,2.23,1.68,2.95Zm8.89-13.6c.3.09.49.32.52.63l1.96,17.33c.04.31-.1.57-.37.73-.27.15-.57.13-.81-.05l-8.89-6.75c-.9-.68-1.07-2.22-.35-3.08l7.15-8.57c.2-.24.48-.32.78-.23Z"/>
        <path class="cls-1" d="m137.81,351.95c.13,1.18.73,2.23,1.67,2.95l22.46,17.05c.94.71,2.16.79,3.19.21,1.03-.59,1.58-1.68,1.45-2.85l-4.61-40.7c-.13-1.18-.92-2.12-2.05-2.46-1.13-.34-2.31.02-3.07.92l-18.07,21.64c-.76.91-1.11,2.06-.97,3.24Zm21.49-23.73c.3.09.49.32.52.63l4.61,40.7c.04.31-.1.58-.37.73-.27.15-.57.14-.81-.05l-22.45-17.05c-.9-.68-1.07-2.22-.35-3.08l18.07-21.64c.2-.24.48-.32.78-.23Z"/>
        <path class="cls-1" d="m168.91,431.02l-1.96-17.33c-.13-1.17-.92-2.11-2.05-2.46-1.13-.34-2.31.02-3.06.92l-7.16,8.56c-.76.91-1.11,2.06-.97,3.25s.73,2.22,1.67,2.95l8.89,6.75c.94.71,2.16.8,3.19.21,1.03-.59,1.58-1.68,1.45-2.85Zm-4.64-17.71c.3.09.49.32.52.63l1.96,17.33c.04.31-.1.58-.37.73-.27.15-.57.13-.81-.05l-8.89-6.75c-.45-.34-.74-.87-.81-1.47h0c-.07-.6.1-1.18.46-1.61l7.16-8.57c.2-.24.48-.32.78-.23Z"/>
        <path class="cls-1" d="m146.04,424.52c.13,1.18.73,2.23,1.67,2.95l22.45,17.04c.94.71,2.17.8,3.19.21,1.03-.59,1.58-1.68,1.45-2.85l-4.61-40.7c-.13-1.18-.92-2.11-2.05-2.45-1.13-.34-2.31.01-3.07.92l-18.07,21.64c-.76.91-1.11,2.06-.97,3.25Zm2.63-1.86l18.07-21.64c.2-.24.48-.32.78-.24.3.09.49.32.53.63l4.61,40.7c.04.31-.1.57-.37.73-.27.15-.57.13-.81-.05l-22.45-17.04c-.9-.68-1.07-2.22-.35-3.08Z"/>
        <path class="cls-1" d="m163.59,499.34l8.89,6.74c.94.72,2.16.8,3.19.21,1.03-.59,1.58-1.68,1.45-2.85l-1.96-17.33c-.13-1.17-.92-2.11-2.05-2.46-1.13-.34-2.31.01-3.06.92l-7.15,8.57c-.76.91-1.11,2.06-.97,3.25s.73,2.22,1.67,2.94Zm10.2,5.02l-8.89-6.75c-.45-.34-.74-.87-.81-1.47s.1-1.18.46-1.61l7.15-8.57c.2-.24.48-.32.78-.23.3.09.49.32.52.63l1.96,17.33c.04.31-.1.57-.37.73-.27.15-.57.13-.81-.05Z"/>
        <path class="cls-1" d="m154.22,496.79c.13,1.18.73,2.23,1.67,2.95l22.45,17.04c.94.71,2.17.8,3.19.21,1.03-.59,1.58-1.68,1.45-2.85l-4.61-40.7c-.13-1.18-.92-2.12-2.05-2.46-1.13-.34-2.31.02-3.06.92l-18.07,21.64c-.76.91-1.11,2.06-.97,3.25Zm21.49-23.73c.3.09.49.32.52.63l4.61,40.7c.04.31-.1.57-.37.73-.27.15-.57.13-.81-.05l-22.45-17.04c-.9-.68-1.07-2.22-.35-3.08l18.07-21.64c.2-.24.48-.32.78-.23Z"/>
        <path class="cls-1" d="m171.79,571.76l8.89,6.75c.94.71,2.16.8,3.19.21,1.03-.59,1.58-1.68,1.45-2.85l-1.96-17.32c-.13-1.18-.92-2.12-2.05-2.46-1.13-.34-2.31.02-3.06.92l-7.16,8.56c-.76.91-1.11,2.06-.97,3.25s.73,2.23,1.68,2.95Zm.5-3.19h0c-.07-.6.1-1.18.46-1.62l7.16-8.57c.2-.24.48-.32.78-.23.3.09.49.32.52.63l1.96,17.32c.04.31-.1.58-.37.73-.27.15-.57.13-.81-.05l-8.89-6.75c-.45-.34-.74-.87-.81-1.47Z"/>
        <path class="cls-1" d="m162.44,569.36c.13,1.18.73,2.23,1.67,2.95l22.46,17.05c.94.72,2.17.8,3.19.21,1.03-.59,1.58-1.68,1.45-2.85l-4.61-40.7c-.13-1.17-.92-2.11-2.05-2.46-1.13-.34-2.31.01-3.07.92l-18.07,21.64c-.76.91-1.11,2.07-.97,3.25Zm21.49-23.73c.3.09.49.32.52.63l4.61,40.7c.04.31-.1.57-.37.73-.27.15-.57.13-.82-.05l-22.46-17.04c-.45-.34-.74-.88-.81-1.47h0c-.07-.6.1-1.18.46-1.61l18.07-21.64c.2-.24.48-.32.78-.24Z"/>
      </g>
      <g>
        <polygon class="cls-2" points="167.35 604.17 126.86 572.28 158.33 532.71 157.41 530.83 118.77 500.89 119.12 498.87 149.55 461.45 149.66 458.24 110.65 429.21 110.39 426.91 141.21 389.88 141.52 386.39 102.39 356.32 102.15 354.17 132.92 316.64 133.28 314.74 94.75 284.74 95.09 281.24 125.14 244.91 124.83 241.1 86.64 212.15 86.32 209.28 117.22 171.93 116.27 168.66 78.61 140.23 77.61 137.55 108.74 100.17 108.35 96.73 70.08 67.01 70.06 64.76 102.59 25.29 114.6 24.47 117.16 27.63 89.18 62.01 88.81 64.89 126.94 94.62 127.27 97.49 97.07 134.77 97.04 137.56 135.7 166.58 136.05 169.68 104.84 207.42 105.38 210.15 144 239.86 144.15 241.18 113.39 279.86 114.16 282.54 151.21 310.95 152.39 313.95 121.18 352.72 122.01 354.86 159.38 383.08 160.62 386.55 129.33 424.65 130.15 426.77 167.84 455.66 168.81 458.92 137.29 496.93 137.48 498.69 176.69 528.42 177.04 531.52 146.04 569.06 146.28 571.19 181.06 597.84 181.49 601.61 167.35 604.17"/>
        <path class="cls-2" d="m119.32,573.12h0c.13,1.15.71,2.2,1.58,2.87l39.39,29.9.24.18,1.31-1.72-39.62-30.08c-.84-.63-1.01-2.09-.33-2.9l29.62-35.47c.71-.85,1.03-1.99.9-3.14s-.71-2.2-1.58-2.86l-36.81-27.94c-.42-.32-.7-.82-.76-1.38h0c-.06-.56.09-1.11.43-1.52l29.62-35.47c.71-.84,1.03-1.99.9-3.15h0c-.13-1.15-.71-2.2-1.58-2.86l-36.81-27.94c-.42-.32-.7-.82-.76-1.38s.09-1.11.43-1.51l29.62-35.47c.71-.85,1.03-1.99.9-3.15s-.71-2.19-1.58-2.86l-36.81-27.94c-.84-.64-1-2.09-.33-2.9l29.62-35.47c.71-.84,1.03-1.99.9-3.14h0c-.13-1.15-.71-2.2-1.58-2.86l-36.81-27.94c-.42-.32-.7-.82-.76-1.38h0c-.06-.56.09-1.11.43-1.51l29.62-35.47c.71-.85,1.03-1.99.9-3.15h0c-.13-1.15-.71-2.2-1.58-2.86l-36.81-27.94c-.84-.64-1-2.09-.33-2.9l29.62-35.47c.71-.85,1.03-1.99.9-3.15h0c-.13-1.16-.71-2.2-1.58-2.86l-36.81-27.94c-.42-.32-.7-.82-.76-1.38s.09-1.11.43-1.51l29.62-35.47c.71-.85,1.03-1.99.9-3.15h0c-.13-1.15-.71-2.2-1.58-2.86l-36.81-27.94c-.42-.32-.7-.82-.76-1.38s.09-1.11.43-1.51l31.7-37.96.19-.23-1.66-1.38-31.89,38.19c-.7.84-1.03,1.99-.9,3.14.13,1.15.71,2.2,1.58,2.86l36.81,27.94c.85.64,1.01,2.09.33,2.9l-29.62,35.47c-.71.84-1.04,1.99-.91,3.14h0c.13,1.15.71,2.2,1.58,2.86l36.81,27.94c.42.32.7.82.76,1.38s-.09,1.11-.43,1.51l-29.62,35.47c-.7.85-1.03,1.99-.9,3.15.13,1.15.71,2.19,1.58,2.86l36.8,27.94c.42.32.7.82.76,1.38s-.09,1.11-.43,1.51l-29.62,35.47c-.71.84-1.04,1.99-.91,3.14h0c.13,1.15.71,2.2,1.58,2.86l36.81,27.94c.85.64,1.01,2.09.33,2.9l-29.62,35.47c-.7.84-1.03,1.99-.9,3.14.13,1.15.71,2.2,1.58,2.86l36.81,27.94c.42.32.7.82.76,1.38h0c.06.56-.09,1.11-.43,1.51l-29.62,35.47c-.71.84-1.04,1.99-.91,3.14h0c.13,1.15.71,2.2,1.58,2.86l36.8,27.94c.42.32.7.82.76,1.38s-.09,1.11-.43,1.52l-29.62,35.47c-.7.84-1.03,1.99-.9,3.14h0c.13,1.16.71,2.2,1.58,2.87l36.81,27.94c.84.63,1.01,2.09.33,2.9l-29.62,35.47c-.7.84-1.03,1.99-.9,3.14Z"/>
        <path class="cls-7" d="m179.14,604.05c1.64-.19,2.95-1.24,3.48-2.78.55-1.62-.3-3.85-1.66-4.88l-32.99-25.05c-.84-.63-1.01-2.09-.33-2.9l29.62-35.47c.71-.85,1.04-1.99.91-3.14s-.71-2.2-1.59-2.86l-37.06-28.14c-.77-.59-.9-1.7-.28-2.45l29.83-35.72c.71-.85,1.04-1.99.9-3.15h0c-.13-1.15-.71-2.2-1.59-2.86l-36.81-27.94c-.42-.32-.7-.82-.76-1.38h0c-.06-.56.1-1.11.43-1.52l29.62-35.47c.71-.85,1.04-1.99.9-3.15s-.71-2.19-1.59-2.86l-36.8-27.94c-.42-.32-.7-.82-.76-1.38s.09-1.11.43-1.51l29.62-35.47c.71-.85,1.04-1.99.9-3.15h0c-.13-1.15-.71-2.2-1.59-2.86l-36.81-27.94c-.42-.32-.7-.82-.76-1.38h0c-.06-.56.1-1.11.43-1.52l29.62-35.47c.71-.85,1.04-1.99.9-3.15h0c-.13-1.15-.71-2.2-1.59-2.86l-36.8-27.94c-.42-.32-.7-.82-.76-1.38s.09-1.11.43-1.51l29.62-35.47c.71-.85,1.04-1.99.9-3.15h0c-.13-1.16-.71-2.2-1.58-2.86l-36.81-27.94c-.42-.32-.7-.82-.76-1.38h0c-.06-.56.1-1.11.43-1.52l29.62-35.47c.74-.88,1.07-2,.94-3.15-.13-1.15-.71-2.16-1.62-2.86l-36.8-27.94c-.42-.32-.7-.82-.76-1.38h0c-.06-.56.09-1.11.43-1.51l26.75-32.03.47-.57h-.07c.79-1.3.79-2.89-.02-4.27-.86-1.45-2.57-2.16-4.24-1.97l-9.83,1.11c-1.07.12-2.05.65-2.74,1.47l-30.9,37.01c-.71.84-1.04,1.99-.91,3.14h0c.13,1.16.71,2.2,1.59,2.87l36.8,27.94c.42.32.7.82.76,1.38h0c.06.56-.09,1.11-.43,1.52l-29.62,35.47c-.71.85-1.04,1.99-.9,3.15h0c.13,1.16.71,2.2,1.58,2.86l36.8,27.94c.42.32.7.82.76,1.38h0c.06.56-.1,1.11-.43,1.51l-29.62,35.47c-.71.85-1.04,1.99-.91,3.14h0c.13,1.15.71,2.2,1.59,2.87l36.8,27.94c.42.32.7.82.76,1.38h0c.06.56-.1,1.11-.43,1.51l-29.62,35.47c-.71.85-1.04,1.99-.9,3.15.13,1.15.71,2.19,1.58,2.86l36.8,27.94c.42.32.7.82.76,1.38h0c.06.56-.09,1.11-.43,1.52l-29.62,35.47c-.71.84-1.04,1.99-.91,3.14h0c.13,1.16.71,2.2,1.59,2.87l36.8,27.94c.42.32.7.82.76,1.38h0c.06.56-.1,1.11-.43,1.51l-29.62,35.47c-.71.85-1.04,1.99-.9,3.15s.71,2.2,1.58,2.86l36.8,27.94c.42.32.7.82.76,1.38h0c.06.56-.1,1.11-.43,1.52l-29.62,35.47c-.71.84-1.04,1.99-.91,3.14h0c.13,1.16.71,2.2,1.59,2.87l36.8,27.94c.42.32.7.82.76,1.38.06.56-.09,1.11-.43,1.51l-29.62,35.47c-.71.85-1.04,1.99-.91,3.14h0c.13,1.15.71,2.2,1.59,2.87l38.4,29.16c.86.65,1.92.94,3,.82l10.02-1.14Zm-.24-2.15l-10.03,1.14c-.51.06-1.03-.08-1.44-.4l-38.4-29.15c-.42-.32-.7-.82-.76-1.38s.09-1.11.43-1.51l29.62-35.47c.71-.85,1.04-1.99.91-3.15h0c-.13-1.15-.71-2.2-1.59-2.86l-36.8-27.94c-.84-.63-1.01-2.09-.33-2.9l29.62-35.47c.71-.85,1.04-1.99.91-3.15h0c-.13-1.15-.71-2.2-1.59-2.86l-36.81-27.94c-.84-.63-1-2.08-.33-2.89l29.62-35.47c.71-.85,1.04-1.99.91-3.15s-.71-2.19-1.59-2.86l-36.8-27.94c-.42-.32-.7-.82-.76-1.38h0c-.06-.56.09-1.11.43-1.51l29.62-35.47c.71-.85,1.04-1.99.91-3.14h0c-.13-1.15-.71-2.2-1.59-2.86l-36.81-27.95c-.42-.32-.7-.82-.76-1.38-.06-.56.09-1.11.43-1.52l29.62-35.47c.71-.85,1.04-1.99.91-3.15h0c-.13-1.15-.71-2.2-1.59-2.86l-36.8-27.94c-.42-.32-.7-.82-.76-1.38h0c-.06-.56.09-1.11.43-1.51l29.62-35.47c.71-.85,1.04-1.99.91-3.15s-.71-2.19-1.59-2.86l-36.81-27.94c-.84-.63-1-2.08-.33-2.89l29.62-35.47c.71-.85,1.04-1.99.91-3.14h0c-.13-1.15-.71-2.2-1.59-2.86l-36.8-27.94c-.42-.32-.7-.82-.76-1.38h0c-.06-.56.1-1.11.43-1.51l30.9-37.01c.34-.4.81-.65,1.32-.71l10.02-1.14c1-.11,1.69.47,2,1.05.31.58.42,1.47-.23,2.25l-26.75,32.03c-.7.84-1.03,1.99-.9,3.14h0c.13,1.15.71,2.2,1.58,2.87l36.81,27.94c.42.32.7.82.76,1.38h0c.06.56-.09,1.11-.43,1.52l-29.62,35.47c-.74.89-1.07,2-.94,3.15s.71,2.16,1.62,2.86l36.81,27.94c.85.63,1.01,2.09.33,2.9l-29.62,35.47c-.7.84-1.03,1.99-.9,3.14h0c.13,1.15.71,2.2,1.58,2.87l36.8,27.94c.85.63,1.01,2.09.33,2.9l-29.62,35.47c-.71.84-1.04,1.99-.91,3.14h0c.13,1.15.71,2.2,1.58,2.86l36.81,27.94c.42.32.7.82.76,1.38h0c.06.56-.09,1.11-.43,1.52l-29.62,35.47c-.7.84-1.03,1.99-.9,3.14h0c.13,1.15.71,2.2,1.58,2.87l36.81,27.94c.42.32.7.82.76,1.38.06.56-.09,1.11-.43,1.51l-29.62,35.47c-.71.84-1.04,1.99-.91,3.14h0c.13,1.15.71,2.2,1.58,2.86l36.8,27.94c.84.64,1.01,2.09.33,2.9l-31.28,37.46c-.62.75-.5,1.86.28,2.45l38.87,29.51c.84.63,1,2.09.33,2.9l-29.62,35.47c-.7.85-1.03,1.99-.9,3.15.13,1.15.71,2.19,1.58,2.86l33.23,25.23c.8.61.9,1.5.73,2.14-.17.64-.72,1.36-1.72,1.47Z"/>
        <path class="cls-2" d="m129,23.28l-1.66-1.38-31.89,38.18c-.7.84-1.03,1.99-.9,3.14h0c.13,1.15.71,2.2,1.58,2.87l36.81,27.94c.42.32.7.82.76,1.38h0c.06.56-.09,1.11-.43,1.52l-29.62,35.47c-.71.84-1.04,1.99-.91,3.14.13,1.15.71,2.2,1.58,2.86l36.81,27.94c.84.63,1.01,2.09.33,2.9l-29.62,35.47c-.7.84-1.03,1.99-.9,3.14h0c.13,1.15.71,2.2,1.58,2.87l36.8,27.94c.84.63,1.01,2.09.33,2.9l-29.62,35.47c-.71.84-1.04,1.99-.91,3.14h0c.13,1.16.71,2.2,1.58,2.87l36.81,27.94c.42.32.7.82.76,1.38h0c.06.56-.09,1.11-.43,1.52l-29.62,35.47c-.7.84-1.03,1.99-.9,3.14h0c.13,1.15.71,2.2,1.58,2.87l36.8,27.94c.42.32.7.82.76,1.38h0c.06.56-.09,1.11-.43,1.51l-29.62,35.47c-.71.84-1.04,1.99-.91,3.14h0c.13,1.16.71,2.2,1.58,2.87l36.8,27.94c.84.64,1.01,2.09.33,2.9l-29.62,35.47c-.7.84-1.03,1.99-.9,3.14h0c.13,1.15.71,2.2,1.58,2.87l36.81,27.94c.42.32.7.82.76,1.38.06.56-.09,1.11-.43,1.51l-29.62,35.47c-.7.85-1.03,1.99-.9,3.15.13,1.15.71,2.19,1.58,2.86l39.39,29.9.24.18,1.31-1.72-39.62-30.08c-.84-.64-1.01-2.08-.33-2.9l29.62-35.47c.71-.85,1.03-1.99.9-3.14h0c-.13-1.15-.71-2.2-1.58-2.86l-36.81-27.94c-.42-.32-.7-.82-.76-1.38h0c-.06-.56.1-1.11.44-1.52l29.62-35.47c.7-.84,1.03-1.99.9-3.14h0c-.13-1.16-.71-2.2-1.58-2.86l-36.81-27.94c-.42-.32-.7-.82-.76-1.38s.09-1.11.43-1.51l29.62-35.47c.7-.84,1.03-1.99.9-3.14h0c-.13-1.15-.71-2.19-1.58-2.86l-36.81-27.94c-.84-.63-1.01-2.09-.33-2.9l29.62-35.47c.7-.84,1.03-1.99.9-3.14h0c-.13-1.15-.71-2.19-1.58-2.86l-36.81-27.94c-.42-.32-.7-.82-.76-1.38h0c-.06-.56.09-1.11.43-1.51l29.62-35.47c.7-.85,1.03-1.99.9-3.15h0c-.13-1.16-.71-2.2-1.58-2.86l-36.81-27.94c-.84-.63-1.01-2.09-.33-2.9l29.62-35.47c.71-.85,1.03-1.99.9-3.15h0c-.13-1.15-.71-2.2-1.58-2.86l-36.81-27.94c-.42-.32-.7-.82-.76-1.38s.09-1.11.43-1.51l29.62-35.47c.7-.85,1.03-1.99.9-3.15h0c-.13-1.15-.71-2.19-1.58-2.86l-36.81-27.94c-.42-.32-.7-.82-.76-1.38h0c-.06-.56.09-1.11.43-1.52l31.7-37.96.19-.23Z"/>
      </g>
    </g>
  </g>
</svg>