<?xml version="1.0" encoding="UTF-8"?>
<svg id="Layer_1" data-name="Layer 1" xmlns="http://www.w3.org/2000/svg" xmlns:xlink="http://www.w3.org/1999/xlink" viewBox="0 0 211.76 653.78">
  <defs>
    <style>
      .cls-1 {
        fill: #fff;
      }

      .cls-2 {
        fill: #f8dc00;
      }

      .cls-3 {
        clip-path: url(#clippath);
      }

      .cls-4 {
        fill: none;
      }

      .cls-5 {
        fill: #264d9d;
      }

      .cls-6 {
        fill: #eb7e23;
      }

      .cls-7 {
        fill: #d72028;
      }
    </style>
    <clipPath id="clippath">
      <path class="cls-4" d="m48.25,107.32c4.99,4.65,8.06,12.09,10.2,19.17-.41.56-.83,1.11-1.24,1.68,1.09,1.25,2.19,3.08,3.06,4.98.59,2.34,1.1,4.5,1.59,6.34-1.43,11.11-1.36,21.57-.38,31.66.48,5.05,1.13,10.01,1.92,14.93.8,4.91,1.69,9.78,2.58,14.65,2.18,15.32,8.98,30.41,16.46,44.21-3.87,2.77-9.18,7.28-8.7,12.86.17,15.39-1.26,36.6,14.39,45.53-4.01,5.65-3.45,11.23-.92,13.84,3.24,3.36,5.51,7.04,7.06,10.95,0,.31-.01.62-.02.93-.11,4.84-.37,9.8-.04,14.62.33,4.82,1.19,9.52,3.26,13.82.04-.07.09-.15.13-.24-.08,6.09-.18,12.15.52,17.91,3.52,10.89,1.75,23.69,5.73,31.68,3.52,5.29,4.65,10.35,5.6,15.22-.87,1.85-1.43,3.92-.99,5.88-.04-1.11.06-2.12.27-3.07l1.24-.13c.27,1.34.55,2.66.9,3.97-1.36,6.49-1.39,14-5.1,16.68,5.69,1.61,4.55-3.3,3.96-7.72,1.11,4.8,3.05,10.41,3.54,15.73-1.19-1.95-3.62-3.05-1.29-5.9-1.95-.9-3.21-.2-4.32,1.6,1.94,4.63-.03,14.29,4.11,14.07-.39.73-.86,1.43-1.41,2.11l-.81.91,3.89,1.79-.75,1.2c.52-.38,1-.78,1.45-1.2,1.48,6.11,1.14,13.03,5.26,17.06.27-.53.55-1.04.8-1.49-.25.54-.52,1.04-.8,1.49,1.18.33,2.17.55,3.02.7-1.73,2.07-2.29-.61-4.38-.88.58,4.35,1.02,7.62,4.74,8.32l.23-7.35c1.32.18,2.28.16,3.07.04,2.66,2.05,4.83,3.75,4.24,4.68-1.44,6.16-4.46,11.17-7.77,15.83-.33-.08-.63-.18-.92-.27.54-3.07.27-7.34.31-8.97l-3.78,5.89,2.44,1.39c-.11.74-.52,1.18-1.02,1.46-.32.06-.67.17-1.06.36-.32.06-.61.09-.85.12l.12.29c-.29.18-.61.4-.95.66h1.23s.9,2.2.9,2.2c.26.05.49.04.71,0-2.94,2.71-6.26,5.39-6.78,10.17.11.02.23.04.35.07-1.46,2.61-2.62,5.35-3.27,8.35-.46.69,1.27,2.41,3.44,4,.02.16.03.31.05.48,1.59,1.28,2.96,1.91,4.15,2.07.94.44,1.73.7,2.22.65,3.23-1.62,5.43-4.85,7.3-8.39.19-.36.38-.73.57-1.1l.1.86.38-.59c-.16-.15-.29-.28-.41-.41,1.6-3.18,3.02-6.47,4.73-8.96,3.15-1.9,4.68-3.06,7.31-5.05,4.15-3.17,7.06,2.07,8.34,3.34,6.72-5.47,8.84-13.69,9.08-22.77.25-9.09-1.39-19.02-2.04-28-.38-2.74-6.17-3.5-6.55-6.24.94-1.5,1.87-2.99,2.8-4.49-.37-2.75-2.06-6.74-1.12-8.24,3.72-5.98,3.25-13.57,2.07-21.25-1.15-7.68-3.01-15.47-2.13-21.79,1.22-8.44-2.07-16.43.15-26.32,3.53-8.64-1.32-20.62-2.51-31.58-1.27-1.27-2.55-2.54-3.83-3.82-.79-2.01-.53-4.79-.23-7.23.31-2.44.66-4.55.03-5.18-7.23-14.62-5.35-29.98-9.89-42.09-1.69-6.1-2.96-12.23-4.12-18.31-1.12-6.09-2.14-12.12-3.35-18.03-1.23-5.91-2.58-11.7-4.49-17.29-.12-.36-.25-.71-.38-1.07l2.58-1.37c-1.65-1.76-2.91-3.54-4.59-3.81-.29-.67-.58-1.33-.89-1.99-.14-.3-.28-.59-.42-.88.83-3.14-.06-5.55-3.81-7.01.99-2.41,2.23-1.09,3.25-2.52-1.47-3.25-2.38-6.86-2.79-10.62.91-1.26,1.48-3,.93-6.47l-1.15.05c.09-2.82.42-5.65.96-8.42,1.66-8.7,5.41-16.78,10.19-21.76-4.67-2.59-5.44-6.01-5.52-9.63-.08-3.61.58-7.42-1.3-10.81-1.35-4.09-3.56-8.51-5.06-12.78-1.47-4.27-2.23-8.4-.71-11.88,3.48-11.17.41-19.98-5.07-27.7-.05-.3-.11-.6-.17-.9-.4-.32-.8-.64-1.21-.95-.22-.28-.43-.56-.65-.83-6.66-8.36-15.63-15.54-20.98-23.14-13.44,2.86-29.12,5.73-31.94,21.17-.4,2.36-.38,4.71-.1,7.07-1.77,3.44-3.42,7.22-4.91,11.23Zm73.08,400h.5c-.26.3-.54.59-.83.88.13-.26.23-.56.33-.88Zm-12.03-84.36c-.09.35-.21.68-.34,1,.1-.34.21-.68.34-1Z"/>
    </clipPath>
  </defs>
  <g>
    <path class="cls-5" d="m126.52,588.31c.06.66.07,1.15-.7,1.47,2.76.97,3.55-1.14,3.86-3.79-2.34-2.51,1.82,3.86-3.16,2.32Z"/>
    <path class="cls-5" d="m126.25,586.63l-.07,1.57c.12.04.23.07.34.11-.05-.47-.12-1.04.03-1.7-.1,0-.2.02-.3.02Z"/>
    <path class="cls-5" d="m119.93,589.43c-.54-1.55-.22-4.16,2.06-3.71l-2.81-1.99.37,7.27c2.1-1.58,3.32-4.11,6.69-4.36l.14-3.17c-1.64,3.21-4.29,4.33-6.45,5.96Z"/>
    <path class="cls-5" d="m126.01,570.28l.33-1.61c-1.37-.24-2.45,1.2-3.49,2.42,1.04-.32,2.11-.15,3.16-.09,1.76.11,3.44-.1,4.75-3.64-1.23,1.67-2.46,3.32-4.75,2.91Z"/>
    <path class="cls-5" d="m122.85,571.1c-.72.22-1.42.67-2.1,1.56.73-.03,1.4-.75,2.1-1.56Z"/>
    <path class="cls-5" d="m131.78,583.27c5.36-1.24,1.18-3.74,5.46-7.12l-.97-1.03c-1.47,2.74-2.96,5.46-4.49,8.15Z"/>
    <path class="cls-5" d="m111.01,498.81c-.05.34-.1.68-.08,1.12l.91-.5c-.21-.2-.57-.41-.83-.62Z"/>
    <path class="cls-5" d="m112.63,492.07l-2.88,5.79c.56.33.87.63,1.27.95.46-3.58,3.77-2.97,1.62-6.74Z"/>
    <path class="cls-5" d="m112.04,512.36c2.54-5.15,2.38-10.05,1.44-13.8l-1.64.87c3.87,3.87-2.55,6.96.2,12.93Z"/>
    <path class="cls-5" d="m153.9,529.16c.02.05.03.09.04.15,0,0,.02-.02.03-.02,6-2.72,2.83-6.88,7.32-11.17l-6.28.57c1.37,4.27-2.83,5.78-1.11,10.47Z"/>
    <path class="cls-5" d="m163.75,459.82c.16.15.32.28.49.38-.14-.13-.3-.25-.49-.38Z"/>
    <path class="cls-5" d="m142.48,590.18c2.45,1.17-.29,4.69-.15,6.9,1.48-.67,3.26-7.35,4.99-3.62-.8-2.19-1.43-4.19,1.95-3.78-1.82-3.75-3.85,1.18-6.79.49Z"/>
    <path class="cls-5" d="m147.32,593.46c.21.57.43,1.15.59,1.71-.2-.72-.39-1.28-.59-1.71Z"/>
    <path class="cls-5" d="m140.78,585.61c-.14-2.37-.12-5.42-2.25-5.67.97,1.99-1.35,5.47,2.25,5.67Z"/>
    <polygon class="cls-5" points="147.19 583.33 150.33 579.47 149.03 578.84 147.19 583.33"/>
    <path class="cls-5" d="m143.07,567.57l4.2,6.59-1.08-7.4c-4.34-2.47-4.74.09-4.66,3.5.18-1.04.58-2,1.54-2.69Z"/>
    <path class="cls-5" d="m141.63,573.13c.06,2.27-.07,4.42-1.27,5.37l2.61,1.25c.96-.43-.72-3.51-1.34-6.62Z"/>
    <path class="cls-5" d="m141.63,573.13c-.03-.97-.07-1.95-.1-2.87-.14.91-.1,1.89.1,2.87Z"/>
    <path class="cls-5" d="m144.95,560.06l-.48-1-4.11,1.86c1.78,1.6,3.77-.49,4.59-.87Z"/>
    <path class="cls-5" d="m148.06,547.81c1.51-3.09-3.01-5.25-4.12-6.56-1.71,3.76-.12,6.06.48,9.4-.6-3.34,2-2.11,3.64-2.85Z"/>
    <path class="cls-5" d="m148.75,536.7l2.81,5.93c3.81-3.51-1.23-3.64-2.81-5.93Z"/>
    <path class="cls-5" d="m139.3,528.34c-1.18,1.72.58,3.34.87,5.01l2.07-5.11c-.66-.31-1.65.73-2.94.1Z"/>
    <path class="cls-5" d="m48.25,107.32c4.99,4.65,8.06,12.09,10.2,19.17-.41.56-.83,1.11-1.24,1.68,1.09,1.25,2.19,3.08,3.06,4.98.59,2.34,1.1,4.5,1.59,6.34-1.43,11.11-1.36,21.57-.38,31.66.48,5.05,1.13,10.01,1.92,14.93.8,4.91,1.69,9.78,2.58,14.65,2.18,15.32,8.98,30.41,16.46,44.21-3.87,2.77-9.18,7.28-8.7,12.86.17,15.39-1.26,36.6,14.39,45.53-4.01,5.65-3.45,11.23-.92,13.84,3.24,3.36,5.51,7.04,7.06,10.95,0,.31-.01.62-.02.93-.11,4.84-.37,9.8-.04,14.62.33,4.82,1.19,9.52,3.26,13.82.04-.07.09-.15.13-.24-.08,6.09-.18,12.15.52,17.91,3.52,10.89,1.75,23.69,5.73,31.68,3.52,5.29,4.65,10.35,5.6,15.22-.87,1.85-1.43,3.92-.99,5.88-.04-1.11.06-2.12.27-3.07l1.24-.13c.27,1.34.55,2.66.9,3.97-1.36,6.49-1.39,14-5.1,16.68,5.69,1.61,4.55-3.3,3.96-7.72,1.11,4.8,3.05,10.41,3.54,15.73-1.19-1.95-3.62-3.05-1.29-5.9-1.95-.9-3.21-.2-4.32,1.6,1.94,4.63-.03,14.29,4.11,14.07-.39.73-.86,1.43-1.41,2.11l-.81.91,3.89,1.79-.75,1.2c.52-.38,1-.78,1.45-1.2,1.48,6.11,1.14,13.03,5.26,17.06.27-.53.55-1.04.8-1.49-.25.54-.52,1.04-.8,1.49,1.18.33,2.17.55,3.02.7-1.73,2.07-2.29-.61-4.38-.88.58,4.35,1.02,7.62,4.74,8.32l.23-7.35c1.32.18,2.28.16,3.07.04,2.66,2.05,4.83,3.75,4.24,4.68-1.44,6.16-4.46,11.17-7.77,15.83-.33-.08-.63-.18-.92-.27.54-3.07.27-7.34.31-8.97l-3.78,5.89,2.44,1.39c-.11.74-.52,1.18-1.02,1.46-.32.06-.67.17-1.06.36-.32.06-.61.09-.85.12l.12.29c-.29.18-.61.4-.95.66h1.23s.9,2.2.9,2.2c.26.05.49.04.71,0-2.94,2.71-6.26,5.39-6.78,10.17.11.02.23.04.35.07-1.46,2.61-2.62,5.35-3.27,8.35-.46.69,1.27,2.41,3.44,4,.02.16.03.31.05.48,1.59,1.28,2.96,1.91,4.15,2.07.94.44,1.73.7,2.22.65,3.23-1.62,5.43-4.85,7.3-8.39.19-.36.38-.73.57-1.1l.1.86.38-.59c-.16-.15-.29-.28-.41-.41,1.6-3.18,3.02-6.47,4.73-8.96,3.15-1.9,4.68-3.06,7.31-5.05,4.15-3.17,7.06,2.07,8.34,3.34,6.72-5.47,8.84-13.69,9.08-22.77.25-9.09-1.39-19.02-2.04-28-.38-2.74-6.17-3.5-6.55-6.24.94-1.5,1.87-2.99,2.8-4.49-.37-2.75-2.06-6.74-1.12-8.24,3.72-5.98,3.25-13.57,2.07-21.25-1.15-7.68-3.01-15.47-2.13-21.79,1.22-8.44-2.07-16.43.15-26.32,3.53-8.64-1.32-20.62-2.51-31.58-1.27-1.27-2.55-2.54-3.83-3.82-.79-2.01-.53-4.79-.23-7.23.31-2.44.66-4.55.03-5.18-7.23-14.62-5.35-29.98-9.89-42.09-1.69-6.1-2.96-12.23-4.12-18.31-1.12-6.09-2.14-12.12-3.35-18.03-1.23-5.91-2.58-11.7-4.49-17.29-.12-.36-.25-.71-.38-1.07l2.58-1.37c-1.65-1.76-2.91-3.54-4.59-3.81-.29-.67-.58-1.33-.89-1.99-.14-.3-.28-.59-.42-.88.83-3.14-.06-5.55-3.81-7.01.99-2.41,2.23-1.09,3.25-2.52-1.47-3.25-2.38-6.86-2.79-10.62.91-1.26,1.48-3,.93-6.47l-1.15.05c.09-2.82.42-5.65.96-8.42,1.66-8.7,5.41-16.78,10.19-21.76-4.67-2.59-5.44-6.01-5.52-9.63-.08-3.61.58-7.42-1.3-10.81-1.35-4.09-3.56-8.51-5.06-12.78-1.47-4.27-2.23-8.4-.71-11.88,3.48-11.17.41-19.98-5.07-27.7-.05-.3-.11-.6-.17-.9-.4-.32-.8-.64-1.21-.95-.22-.28-.43-.56-.65-.83-6.66-8.36-15.63-15.54-20.98-23.14-13.44,2.86-29.12,5.73-31.94,21.17-.4,2.36-.38,4.71-.1,7.07-1.77,3.44-3.42,7.22-4.91,11.23Zm73.08,400h.5c-.26.3-.54.59-.83.88.13-.26.23-.56.33-.88Zm-12.03-84.36c-.09.35-.21.68-.34,1,.1-.34.21-.68.34-1Z"/>
  </g>
  <g class="cls-3">
    <g>
      <g>
        <g>
          <polygon class="cls-6" points="99.08 41.81 101.84 61.89 99.85 62.16 88.71 53.54 97.62 41.62 99.08 41.81"/>
          <polygon class="cls-6" points="109.04 114.44 111.79 134.53 109.81 134.8 98.67 126.17 107.58 114.26 109.04 114.44"/>
          <polygon class="cls-6" points="118.89 186.3 121.64 206.38 119.66 206.65 108.52 198.02 117.42 186.11 118.89 186.3"/>
          <polygon class="cls-6" points="128.8 258.58 131.55 278.66 129.56 278.93 118.42 270.3 127.33 258.39 128.8 258.58"/>
          <polygon class="cls-6" points="138.67 330.6 141.42 350.69 139.44 350.96 128.3 342.33 137.21 330.42 138.67 330.6"/>
          <polygon class="cls-6" points="148.59 402.96 151.34 423.05 149.35 423.32 138.21 414.69 147.12 402.78 148.59 402.96"/>
          <polygon class="cls-6" points="158.46 475.02 161.22 495.1 159.23 495.37 148.09 486.75 157 474.83 158.46 475.02"/>
          <polygon class="cls-6" points="168.43 547.7 171.18 567.78 169.19 568.05 158.05 559.42 166.96 547.51 168.43 547.7"/>
        </g>
        <path class="cls-1" d="m119.16,273.37l9.04,6.54c.96.69,2.18.74,3.2.13,1.01-.61,1.54-1.71,1.38-2.88l-2.37-17.28c-.16-1.17-.97-2.09-2.11-2.41-1.14-.31-2.3.07-3.04.99l-6.95,8.73c-.74.93-1.06,2.09-.9,3.27s.78,2.21,1.74,2.91Zm.85-4.82l6.95-8.73c.19-.24.47-.33.77-.25s.5.31.54.62l2.37,17.28c.04.31-.09.58-.35.74-.27.16-.56.15-.81-.03l-9.04-6.54c-.46-.33-.76-.86-.84-1.45h0c-.08-.59.07-1.18.42-1.62Z"/>
        <path class="cls-1" d="m109.83,271.66c.16,1.18.78,2.21,1.74,2.91l22.85,16.52c.96.69,2.18.74,3.2.13,1.01-.61,1.54-1.71,1.38-2.88l-5.56-40.58c-.16-1.17-.97-2.09-2.11-2.41-1.14-.31-2.31.07-3.05.99l-17.56,22.06c-.74.93-1.06,2.09-.9,3.27Zm20.93-24.23c.3.08.49.3.54.61l5.56,40.58c.04.31-.09.58-.35.74-.26.16-.56.15-.82-.03l-22.85-16.51c-.46-.33-.76-.86-.84-1.45h0c-.08-.59.07-1.18.43-1.62l17.56-22.06c.2-.24.48-.34.78-.25Z"/>
        <path class="cls-1" d="m80.11,54.88c.16,1.18.78,2.21,1.74,2.91l22.85,16.51c.96.69,2.18.74,3.2.14,1.01-.61,1.54-1.71,1.38-2.88l-5.56-40.58c-.16-1.17-.97-2.09-2.11-2.41-1.14-.31-2.31.07-3.04.99l-17.56,22.06c-.74.93-1.06,2.09-.9,3.27Zm20.93-24.23c.3.08.49.3.54.61l5.56,40.58c.04.31-.09.58-.35.74-.27.16-.56.15-.82-.03l-22.85-16.52c-.91-.66-1.12-2.19-.42-3.07l17.56-22.06c.19-.24.48-.33.78-.25Z"/>
        <path class="cls-1" d="m89.47,56.74l9.04,6.53c.96.69,2.18.75,3.19.14,1.02-.61,1.55-1.71,1.38-2.89l-2.37-17.28c-.16-1.17-.97-2.09-2.11-2.41-1.14-.31-2.31.07-3.04.99l-6.95,8.73c-.74.93-1.06,2.09-.9,3.27s.78,2.21,1.74,2.91Zm8.57-13.81c.3.08.5.3.54.61l2.37,17.28c.04.31-.09.58-.35.74-.27.16-.57.15-.82-.04l-9.04-6.54c-.46-.33-.76-.86-.84-1.45h0c-.08-.59.07-1.18.42-1.62l6.95-8.73c.19-.24.48-.33.77-.25Z"/>
        <path class="cls-1" d="m99.37,128.95l9.04,6.53c.96.7,2.18.75,3.2.14,1.01-.61,1.54-1.71,1.38-2.88l-2.37-17.28c-.16-1.17-.97-2.09-2.11-2.41-1.14-.31-2.31.07-3.04.99l-6.95,8.73c-.74.93-1.06,2.09-.9,3.27.16,1.18.78,2.21,1.74,2.9Zm10.31,4.78l-9.05-6.53c-.46-.33-.76-.86-.84-1.45h0c-.08-.6.07-1.19.42-1.62l6.95-8.73c.19-.24.48-.34.78-.25.3.08.5.3.54.61l2.37,17.28c.04.31-.09.58-.35.74-.27.16-.56.15-.81-.04Z"/>
        <path class="cls-1" d="m90.03,127.24c.16,1.18.78,2.21,1.74,2.9l22.85,16.52c.96.69,2.18.74,3.2.13,1.01-.61,1.54-1.71,1.38-2.88l-5.56-40.58c-.16-1.17-.97-2.09-2.11-2.41-1.14-.31-2.31.06-3.05.99l-17.56,22.06c-.74.93-1.06,2.09-.9,3.27Zm20.93-24.23c.3.08.49.3.54.61l5.56,40.58c.04.31-.09.58-.35.74-.27.16-.56.15-.82-.03l-22.85-16.52c-.45-.33-.76-.86-.84-1.45s.07-1.18.42-1.62l17.56-22.05c.2-.25.48-.34.78-.25Z"/>
        <path class="cls-1" d="m70.25-17.04c.16,1.18.78,2.21,1.74,2.9L94.84,2.38c.96.69,2.18.74,3.2.13,1.01-.61,1.54-1.71,1.38-2.88l-5.56-40.58c-.16-1.17-.97-2.09-2.11-2.41-1.14-.31-2.31.06-3.05.99l-17.56,22.06c-.74.93-1.06,2.09-.9,3.27Zm20.93-24.23c.3.08.49.3.54.61L97.28-.08c.04.31-.09.58-.35.74-.27.16-.56.15-.82-.03l-22.85-16.52c-.45-.33-.76-.86-.84-1.45s.07-1.18.42-1.62l17.56-22.05c.2-.25.48-.34.78-.25Z"/>
        <path class="cls-1" d="m122.89,204.95l-2.37-17.27c-.16-1.17-.97-2.09-2.11-2.41-1.14-.31-2.3.07-3.04.99l-6.95,8.73c-.74.93-1.06,2.09-.9,3.27s.78,2.21,1.74,2.91l9.04,6.54c.96.69,2.18.74,3.2.14,1.01-.61,1.54-1.71,1.38-2.89Zm-12.77-8.61l6.95-8.73c.19-.24.48-.33.77-.25.3.08.5.31.54.62l2.37,17.27c.04.31-.09.58-.35.74-.27.16-.56.15-.82-.03l-9.04-6.54c-.91-.66-1.12-2.19-.42-3.07Z"/>
        <path class="cls-1" d="m99.91,199.3c.16,1.18.78,2.21,1.74,2.91l22.85,16.51c.96.69,2.18.74,3.2.14,1.01-.61,1.54-1.71,1.38-2.88l-5.56-40.58c-.16-1.17-.97-2.09-2.11-2.41-1.14-.31-2.31.07-3.04.99l-17.56,22.06c-.74.93-1.06,2.09-.9,3.27Zm2.59-1.92l17.56-22.06c.19-.24.48-.34.77-.26.3.08.5.31.54.62l5.56,40.58c.04.31-.09.58-.35.74-.27.16-.56.15-.82-.03l-22.85-16.51c-.91-.66-1.12-2.19-.42-3.07Z"/>
        <path class="cls-1" d="m129.06,345.58l9.04,6.54c.96.69,2.18.74,3.2.14,1.01-.61,1.54-1.71,1.38-2.89l-2.37-17.28c-.16-1.17-.97-2.09-2.11-2.41-1.14-.31-2.31.07-3.04.99l-6.95,8.73c-.74.93-1.06,2.09-.9,3.27s.78,2.21,1.74,2.91Zm8.57-13.81c.3.08.5.3.54.61l2.37,17.28c.04.31-.09.58-.35.74-.27.16-.56.15-.82-.03l-9.04-6.54c-.91-.66-1.12-2.19-.42-3.07l6.95-8.73c.19-.24.47-.33.77-.25Z"/>
        <path class="cls-1" d="m119.64,343.25c.16,1.18.78,2.21,1.74,2.91l22.85,16.52c.96.69,2.18.74,3.2.13,1.01-.61,1.54-1.71,1.38-2.89l-5.56-40.58c-.16-1.17-.97-2.09-2.11-2.41-1.14-.31-2.31.07-3.04.99l-17.56,22.06c-.74.93-1.06,2.09-.9,3.27Zm20.93-24.22c.3.08.49.3.54.61l5.56,40.58c.04.31-.09.58-.35.74-.27.16-.56.15-.82-.03l-22.85-16.52c-.91-.66-1.12-2.19-.42-3.07l17.56-22.06c.19-.24.48-.34.78-.25Z"/>
        <path class="cls-1" d="m152.58,421.57l-2.37-17.28c-.16-1.17-.97-2.09-2.11-2.41-1.14-.31-2.31.07-3.04.99l-6.95,8.73c-.74.93-1.06,2.09-.9,3.27s.78,2.21,1.74,2.91l9.04,6.54c.96.69,2.18.74,3.2.14,1.01-.61,1.54-1.71,1.38-2.89Zm-5.05-17.6c.3.08.5.3.54.61l2.37,17.28c.04.31-.09.58-.35.74-.27.16-.57.15-.82-.03l-9.04-6.54c-.46-.33-.76-.86-.84-1.45h0c-.08-.59.07-1.18.42-1.62l6.95-8.73c.19-.24.48-.33.77-.25Z"/>
        <path class="cls-1" d="m129.56,415.61c.16,1.18.78,2.21,1.74,2.91l22.85,16.51c.96.69,2.18.74,3.2.14,1.01-.61,1.54-1.71,1.38-2.88l-5.56-40.58c-.16-1.17-.97-2.09-2.11-2.4-1.14-.31-2.31.07-3.04.99l-17.56,22.06c-.74.93-1.06,2.09-.9,3.27Zm2.59-1.92l17.56-22.06c.19-.24.48-.34.77-.26.3.08.5.31.54.62l5.56,40.58c.04.31-.09.58-.35.74-.27.16-.56.15-.82-.03l-22.85-16.51c-.91-.66-1.12-2.19-.42-3.07Z"/>
        <path class="cls-1" d="m148.86,489.99l9.04,6.53c.96.7,2.18.75,3.2.14,1.01-.61,1.54-1.71,1.38-2.88l-2.37-17.28c-.16-1.17-.97-2.09-2.11-2.41-1.14-.31-2.31.07-3.04.99l-6.95,8.73c-.74.93-1.06,2.09-.9,3.27s.78,2.21,1.74,2.9Zm10.31,4.78l-9.05-6.54c-.45-.33-.76-.86-.84-1.45s.07-1.18.42-1.62l6.95-8.73c.19-.24.48-.34.78-.25.3.08.5.3.54.61l2.37,17.28c.04.31-.09.58-.35.74-.27.16-.56.15-.81-.04Z"/>
        <path class="cls-1" d="m139.43,487.66c.16,1.18.78,2.21,1.74,2.91l22.85,16.51c.96.69,2.18.74,3.2.14,1.01-.61,1.54-1.71,1.38-2.88l-5.56-40.58c-.16-1.17-.97-2.09-2.11-2.41-1.14-.31-2.3.07-3.04.99l-17.56,22.05c-.74.93-1.06,2.09-.9,3.27Zm20.93-24.23c.3.08.49.3.54.61l5.56,40.58c.04.31-.09.58-.35.74-.27.16-.56.15-.82-.03l-22.85-16.51c-.91-.66-1.12-2.19-.42-3.07l17.56-22.06c.19-.24.48-.33.78-.25Z"/>
        <path class="cls-1" d="m158.76,562.2l9.04,6.54c.96.69,2.18.74,3.2.14,1.01-.61,1.54-1.71,1.38-2.89l-2.37-17.27c-.16-1.17-.97-2.09-2.11-2.41-1.14-.31-2.31.07-3.04.99l-6.95,8.73c-.74.93-1.06,2.09-.9,3.27s.78,2.21,1.74,2.91Zm.42-3.2h0c-.08-.59.07-1.19.42-1.63l6.95-8.73c.19-.24.48-.33.77-.25.3.08.5.31.54.62l2.37,17.27c.04.31-.09.58-.35.74-.27.16-.56.15-.82-.03l-9.04-6.54c-.46-.33-.76-.86-.84-1.45Z"/>
        <path class="cls-1" d="m149.35,560.02c.16,1.18.78,2.21,1.74,2.91l22.85,16.52c.96.69,2.19.74,3.2.13,1.01-.61,1.54-1.71,1.38-2.88l-5.56-40.58c-.16-1.17-.97-2.09-2.11-2.41-1.14-.31-2.31.07-3.04.99l-17.56,22.06c-.74.93-1.06,2.09-.9,3.27Zm20.93-24.23c.3.08.5.3.54.61l5.56,40.58c.04.31-.09.58-.35.74-.27.16-.56.15-.82-.03l-22.85-16.51c-.46-.33-.76-.86-.84-1.45h0c-.08-.59.07-1.18.43-1.62l17.56-22.06c.19-.24.48-.34.78-.25Z"/>
      </g>
      <g>
        <polygon class="cls-6" points="155.07 594.71 113.84 563.77 144.38 523.48 143.42 521.62 104.09 492.59 104.39 490.57 133.94 452.45 133.97 449.23 94.29 421.12 93.98 418.83 123.93 381.09 124.15 377.59 84.33 348.45 84.03 346.31 113.92 308.06 114.24 306.15 75.01 277.06 75.26 273.56 104.46 236.53 104.06 232.74 65.21 204.69 64.81 201.83 94.83 163.76 93.81 160.51 55.49 132.97 54.43 130.32 84.68 92.22 84.21 88.79 45.25 59.98 45.18 57.73 76.77 17.51 88.75 16.4 91.4 19.5 64.23 54.53 63.92 57.42 102.74 86.25 103.13 89.11 73.82 127.08 73.85 129.88 113.18 157.98 113.6 161.07 83.29 199.53 83.89 202.25 123.19 231.05 123.38 232.37 93.54 271.75 94.37 274.41 132.07 301.94 133.32 304.92 103.03 344.4 103.9 346.53 141.93 373.87 143.24 377.31 112.86 416.13 113.73 418.23 152.08 446.22 153.13 449.46 122.5 488.2 122.74 489.95 162.63 518.76 163.06 521.85 132.94 560.11 133.23 562.23 168.63 588.06 169.15 591.82 155.07 594.71"/>
        <path class="cls-2" d="m106.33,564.79h0c.16,1.15.76,2.18,1.65,2.83l40.08,28.97.24.17,1.27-1.75-40.32-29.15c-.86-.61-1.05-2.06-.39-2.89l28.78-36.16c.69-.86.99-2.02.83-3.16s-.76-2.18-1.65-2.83l-37.45-27.07c-.43-.31-.72-.8-.79-1.36h0c-.08-.56.07-1.12.4-1.53l28.78-36.15c.69-.86.99-2.02.83-3.17h0c-.16-1.15-.76-2.18-1.65-2.82l-37.45-27.07c-.43-.31-.72-.8-.79-1.36s.07-1.11.4-1.52l28.78-36.15c.69-.86.99-2.02.83-3.17s-.76-2.18-1.65-2.82l-37.45-27.07c-.86-.62-1.05-2.07-.4-2.89l28.78-36.16c.69-.86.99-2.02.83-3.16h0c-.16-1.15-.76-2.18-1.65-2.82l-37.45-27.07c-.43-.31-.72-.81-.79-1.37h0c-.08-.56.07-1.11.4-1.52l28.78-36.15c.69-.86.99-2.02.83-3.17h0c-.16-1.15-.76-2.18-1.65-2.82l-37.45-27.07c-.86-.62-1.05-2.07-.4-2.89l28.78-36.15c.69-.86.99-2.02.83-3.17h0c-.16-1.15-.76-2.18-1.65-2.82l-37.45-27.07c-.43-.31-.72-.8-.79-1.36s.07-1.11.4-1.52l28.78-36.15c.69-.86.99-2.02.83-3.17h0c-.16-1.15-.76-2.18-1.65-2.82l-37.45-27.07c-.43-.31-.72-.81-.79-1.36s.07-1.11.4-1.52l30.8-38.69.18-.23-1.69-1.34-30.99,38.92c-.68.86-.99,2.01-.83,3.16.16,1.15.76,2.18,1.65,2.83l37.45,27.07c.86.62,1.06,2.06.4,2.89l-28.78,36.15c-.69.86-.99,2.01-.83,3.16h0c.16,1.15.76,2.18,1.65,2.82l37.45,27.07c.43.31.72.81.79,1.36s-.07,1.11-.4,1.52l-28.78,36.16c-.68.86-.99,2.02-.83,3.17.16,1.15.76,2.18,1.65,2.82l37.45,27.07c.43.31.72.81.79,1.36s-.07,1.11-.4,1.52l-28.78,36.15c-.69.86-.99,2.01-.83,3.16h0c.16,1.15.76,2.18,1.65,2.83l37.45,27.07c.86.62,1.06,2.06.4,2.89l-28.78,36.16c-.68.86-.99,2.01-.83,3.16.16,1.15.76,2.18,1.65,2.83l37.45,27.07c.43.31.72.81.79,1.36h0c.08.56-.07,1.11-.4,1.52l-28.78,36.15c-.69.86-.99,2.01-.83,3.16h0c.16,1.15.76,2.18,1.65,2.83l37.45,27.07c.43.31.72.81.79,1.36s-.07,1.11-.4,1.53l-28.78,36.15c-.68.86-.99,2.01-.83,3.16h0c.16,1.15.76,2.18,1.65,2.83l37.45,27.07c.86.61,1.06,2.06.4,2.89l-28.78,36.15c-.68.86-.99,2.01-.83,3.16Z"/>
        <path class="cls-7" d="m166.86,594.31c1.64-.22,2.92-1.31,3.41-2.86.51-1.63-.39-3.84-1.78-4.84l-33.57-24.27c-.86-.61-1.05-2.06-.39-2.89l28.78-36.16c.69-.86.99-2.02.83-3.16s-.76-2.18-1.65-2.83l-37.71-27.26c-.79-.57-.94-1.68-.33-2.44l28.99-36.41c.69-.86.99-2.02.83-3.17h0c-.16-1.15-.76-2.18-1.65-2.82l-37.45-27.07c-.43-.31-.72-.8-.79-1.36h0c-.08-.56.07-1.11.4-1.53l28.78-36.15c.69-.86.99-2.02.83-3.17s-.76-2.18-1.65-2.82l-37.45-27.07c-.43-.31-.72-.81-.79-1.36s.07-1.11.4-1.52l28.78-36.15c.69-.86.99-2.02.83-3.17h0c-.16-1.15-.76-2.18-1.65-2.82l-37.45-27.07c-.43-.31-.72-.81-.79-1.36h0c-.08-.56.07-1.12.4-1.53l28.78-36.15c.69-.86.99-2.02.83-3.17h0c-.16-1.15-.76-2.18-1.65-2.82l-37.45-27.07c-.43-.31-.72-.81-.79-1.36s.07-1.11.4-1.52l28.78-36.15c.69-.86.99-2.02.83-3.17h0c-.16-1.15-.76-2.18-1.65-2.82l-37.45-27.07c-.43-.31-.72-.8-.79-1.36h0c-.08-.56.07-1.11.4-1.53l28.78-36.15c.72-.9,1.03-2.03.87-3.17s-.76-2.14-1.69-2.82l-37.45-27.07c-.43-.31-.72-.81-.79-1.36h0c-.08-.56.07-1.11.4-1.52l25.99-32.64.46-.58h-.07c.75-1.31.72-2.91-.12-4.27-.89-1.43-2.62-2.1-4.29-1.87l-9.8,1.34c-1.06.15-2.03.7-2.7,1.54l-30.03,37.72c-.69.86-.99,2.01-.83,3.16h0c.16,1.15.76,2.18,1.65,2.83l37.45,27.07c.43.31.72.81.79,1.36h0c.08.56-.07,1.11-.4,1.53l-28.78,36.15c-.69.86-.99,2.02-.83,3.17h0c.16,1.15.76,2.18,1.65,2.82l37.45,27.07c.43.31.72.81.79,1.36h0c.08.56-.07,1.11-.4,1.52l-28.78,36.15c-.69.86-.99,2.02-.83,3.16h0c.16,1.15.76,2.18,1.65,2.83l37.45,27.07c.43.31.72.81.79,1.36h0c.08.56-.07,1.11-.4,1.52l-28.78,36.15c-.69.86-.99,2.02-.83,3.17s.76,2.18,1.65,2.82l37.45,27.07c.43.31.72.81.79,1.36h0c.08.56-.07,1.11-.4,1.53l-28.78,36.15c-.69.86-.99,2.01-.83,3.16h0c.16,1.15.76,2.18,1.65,2.83l37.45,27.07c.43.31.72.81.79,1.37h0c.08.56-.07,1.11-.4,1.52l-28.78,36.15c-.69.86-.99,2.02-.83,3.17s.76,2.18,1.65,2.83l37.45,27.07c.43.31.72.81.79,1.37h0c.08.56-.07,1.12-.4,1.53l-28.78,36.15c-.69.86-.99,2.01-.83,3.16h0c.16,1.15.76,2.18,1.65,2.83l37.45,27.07c.43.31.72.81.79,1.36.08.56-.07,1.11-.4,1.52l-28.78,36.15c-.69.86-.99,2.02-.83,3.16h0c.16,1.15.76,2.18,1.65,2.83l39.07,28.25c.87.63,1.95.9,3.01.75l9.99-1.37Zm-.29-2.14l-10,1.37c-.51.07-1.03-.06-1.45-.36l-39.07-28.25c-.43-.31-.72-.81-.79-1.36s.07-1.11.4-1.52l28.78-36.15c.69-.87.99-2.02.83-3.17h0c-.16-1.15-.76-2.18-1.65-2.83l-37.45-27.07c-.86-.61-1.06-2.06-.4-2.89l28.78-36.15c.69-.86.99-2.02.83-3.17h0c-.16-1.15-.76-2.18-1.65-2.83l-37.45-27.07c-.85-.61-1.05-2.06-.39-2.89l28.78-36.15c.69-.86.99-2.02.83-3.17s-.76-2.18-1.65-2.82l-37.45-27.07c-.43-.31-.72-.81-.79-1.37h0c-.08-.56.07-1.11.4-1.52l28.78-36.15c.69-.86.99-2.02.83-3.16h0c-.16-1.15-.76-2.18-1.65-2.83l-37.45-27.08c-.43-.31-.71-.8-.79-1.36-.08-.56.07-1.11.4-1.53l28.78-36.15c.69-.86.99-2.02.83-3.17h0c-.16-1.15-.76-2.18-1.65-2.83l-37.45-27.07c-.43-.31-.72-.81-.79-1.37h0c-.08-.56.07-1.11.4-1.52l28.78-36.15c.69-.86.99-2.02.83-3.17s-.76-2.18-1.65-2.82l-37.45-27.07c-.85-.61-1.05-2.06-.39-2.89l28.78-36.15c.69-.86.99-2.02.83-3.16h0c-.16-1.15-.76-2.18-1.65-2.83l-37.45-27.07c-.43-.31-.72-.81-.79-1.37h0c-.08-.56.07-1.11.4-1.52l30.03-37.72c.33-.41.79-.67,1.31-.74l9.99-1.37c1-.14,1.7.43,2.03,1,.32.57.45,1.46-.18,2.25l-25.99,32.64c-.68.86-.99,2.01-.83,3.16h0c.16,1.15.76,2.18,1.65,2.83l37.45,27.07c.43.31.72.8.79,1.36h0c.08.56-.07,1.12-.4,1.53l-28.78,36.15c-.72.9-1.03,2.03-.87,3.17s.76,2.14,1.69,2.82l37.45,27.07c.86.61,1.06,2.07.4,2.89l-28.78,36.16c-.68.86-.99,2.01-.83,3.16h0c.16,1.15.76,2.18,1.65,2.83l37.45,27.07c.86.61,1.06,2.07.4,2.89l-28.78,36.15c-.69.86-.99,2.01-.83,3.16h0c.16,1.15.76,2.18,1.65,2.83l37.45,27.07c.43.31.72.8.79,1.36h0c.08.56-.07,1.12-.4,1.53l-28.78,36.15c-.68.86-.99,2.01-.83,3.16h0c.16,1.15.76,2.18,1.65,2.83l37.45,27.07c.43.31.72.81.79,1.36.08.56-.07,1.11-.4,1.52l-28.78,36.15c-.69.86-.99,2.01-.83,3.16h0c.16,1.15.76,2.18,1.65,2.83l37.45,27.07c.86.62,1.06,2.06.4,2.89l-30.39,38.18c-.61.76-.45,1.87.33,2.44l39.55,28.59c.85.61,1.05,2.06.4,2.89l-28.78,36.15c-.68.86-.99,2.02-.83,3.17.16,1.15.76,2.18,1.65,2.82l33.81,24.45c.81.59.94,1.48.77,2.12-.16.64-.68,1.37-1.68,1.51Z"/>
        <path class="cls-2" d="m103.13,14.87l-1.69-1.34-30.99,38.92c-.68.86-.99,2.01-.83,3.16h0c.16,1.15.76,2.18,1.65,2.83l37.45,27.07c.43.31.72.8.79,1.36h0c.08.56-.07,1.12-.4,1.53l-28.78,36.15c-.69.86-.99,2.01-.83,3.16s.76,2.18,1.65,2.82l37.45,27.07c.86.61,1.06,2.06.4,2.89l-28.78,36.16c-.68.86-.99,2.01-.83,3.16h0c.16,1.15.76,2.18,1.65,2.83l37.45,27.07c.86.61,1.06,2.06.4,2.89l-28.78,36.15c-.69.86-.99,2.01-.83,3.16h0c.16,1.15.76,2.18,1.65,2.83l37.45,27.07c.43.31.72.8.79,1.36h0c.08.56-.07,1.12-.4,1.53l-28.78,36.15c-.68.86-.99,2.01-.83,3.16h0c.16,1.15.76,2.18,1.65,2.83l37.45,27.07c.43.31.72.81.79,1.37h0c.08.56-.07,1.11-.4,1.52l-28.78,36.15c-.69.86-.99,2.01-.83,3.16h0c.16,1.15.76,2.18,1.65,2.83l37.45,27.07c.86.62,1.06,2.06.4,2.89l-28.78,36.15c-.68.86-.99,2.01-.83,3.16h0c.16,1.15.76,2.18,1.65,2.83l37.45,27.07c.43.31.72.81.79,1.36.08.56-.07,1.11-.4,1.52l-28.78,36.15c-.68.86-.99,2.02-.83,3.17.16,1.15.76,2.18,1.65,2.82l40.08,28.97.24.17,1.27-1.75-40.32-29.15c-.85-.62-1.06-2.06-.39-2.89l28.78-36.16c.69-.86.99-2.02.83-3.16h0c-.16-1.15-.76-2.18-1.65-2.83l-37.45-27.07c-.43-.31-.72-.8-.79-1.36h0c-.08-.56.07-1.12.4-1.53l28.78-36.15c.68-.86.99-2.02.83-3.16h0c-.16-1.15-.76-2.18-1.65-2.83l-37.45-27.07c-.43-.31-.72-.8-.79-1.36s.07-1.11.4-1.52l28.78-36.16c.68-.86.99-2.01.83-3.16h0c-.16-1.15-.76-2.18-1.65-2.82l-37.45-27.07c-.86-.61-1.06-2.06-.4-2.89l28.78-36.16c.68-.86.99-2.02.83-3.16h0c-.16-1.15-.76-2.18-1.65-2.82l-37.45-27.07c-.43-.31-.72-.81-.79-1.37h0c-.08-.56.07-1.11.4-1.52l28.78-36.15c.68-.86.99-2.02.83-3.17h0c-.16-1.15-.76-2.18-1.65-2.83l-37.45-27.07c-.86-.61-1.06-2.06-.4-2.89l28.78-36.15c.69-.86.99-2.02.83-3.17h0c-.16-1.15-.76-2.18-1.65-2.82l-37.45-27.07c-.43-.31-.72-.8-.79-1.36s.07-1.11.4-1.52l28.78-36.15c.68-.86.99-2.02.83-3.17h0c-.16-1.15-.76-2.18-1.65-2.82l-37.45-27.07c-.43-.31-.72-.81-.79-1.36h0c-.08-.56.07-1.12.4-1.53l30.8-38.69.18-.23Z"/>
      </g>
    </g>
  </g>
</svg>