<?xml version="1.0" encoding="UTF-8"?>
<svg id="Layer_1" data-name="Layer 1" xmlns="http://www.w3.org/2000/svg" xmlns:xlink="http://www.w3.org/1999/xlink" viewBox="0 0 643.76 174.73">
  <defs>
    <style>
      .cls-1 {
        fill: #fff;
      }

      .cls-2 {
        fill: #f8dc00;
      }

      .cls-3 {
        clip-path: url(#clippath);
      }

      .cls-4 {
        fill: none;
      }

      .cls-5 {
        fill: #264d9d;
      }

      .cls-6 {
        fill: #eb7e23;
      }
    </style>
    <clipPath id="clippath">
      <path class="cls-4" d="m535.49,47.45c-5.29,4.32-13.07,6.34-20.38,7.5-.5-.49-.99-.97-1.49-1.45-1.38.91-3.35,1.76-5.35,2.35-2.39.27-4.61.48-6.49.71-10.81-2.92-21.18-4.28-31.31-4.67-5.07-.21-10.07-.24-15.05-.12-4.98.12-9.92.35-14.87.57-15.47.08-31.34,4.76-46.03,10.3-2.22-4.22-5.96-10.09-11.56-10.36-15.27-1.92-36.09-6.22-47.07,8.07-5.06-4.74-10.66-4.95-13.59-2.8-3.77,2.75-7.72,4.5-11.81,5.51-.31-.05-.61-.1-.92-.14-4.78-.76-9.66-1.69-14.48-2.03-4.82-.33-9.59-.11-14.14,1.36.06.05.14.11.22.16-6.02-.91-12.02-1.83-17.81-1.92-11.27,2.01-23.71-1.48-32.17,1.37-5.72,2.77-10.89,3.2-15.84,3.48-1.72-1.12-3.69-1.95-5.69-1.78,1.11.11,2.09.35,3.01.69l-.04,1.25c-1.36.08-2.71.18-4.06.35-6.24-2.23-13.68-3.28-15.84-7.32-2.37,5.42,2.65,4.96,7.11,4.97-4.91.45-10.73,1.6-16.07,1.38,2.09-.91,3.51-3.17,6.02-.48,1.16-1.81.63-3.16-.99-4.5-4.86,1.3-14.15-1.97-14.49,2.16-.67-.48-1.3-1.04-1.9-1.68l-.79-.93-2.3,3.61-1.09-.9c.3.57.63,1.09.99,1.6-6.25.64-13.07-.64-17.62,2.89.49.34.95.69,1.37,1-.5-.32-.96-.65-1.37-1-.49,1.12-.84,2.07-1.1,2.9-1.81-1.99.91-2.18,1.46-4.22-4.39-.02-7.69-.02-8.89,3.56l7.25,1.23c-.36,1.28-.47,2.24-.45,3.03-2.39,2.36-4.37,4.27-5.21,3.56-5.91-2.27-10.46-5.94-14.63-9.85.13-.32.27-.6.4-.88,2.97.95,7.23,1.26,8.85,1.53l-5.32-4.54-1.71,2.23c-.72-.21-1.1-.67-1.31-1.21-.02-.33-.08-.69-.21-1.1-.02-.32,0-.62,0-.86l-.3.08c-.14-.32-.31-.66-.53-1.03l-.18,1.22-2.3.6c-.09.25-.11.48-.09.7-2.28-3.28-4.49-6.94-9.15-8.1-.03.11-.07.23-.11.34-2.39-1.8-4.94-3.32-7.83-4.37-.62-.55-2.56.93-4.43,2.87-.16,0-.31-.02-.49-.02-1.48,1.41-2.3,2.67-2.61,3.83-.56.87-.92,1.62-.95,2.12,1.17,3.42,4.07,6.04,7.32,8.37.33.24.67.48,1.01.71l-.87-.02.53.46c.17-.13.32-.25.46-.35,2.93,2.02,6,3.87,8.23,5.9,1.45,3.38,2.4,5.06,4.01,7.92,2.58,4.55-3.01,6.71-4.45,7.81,4.5,7.4,12.36,10.62,21.32,12.09,8.97,1.48,19.03,1.21,28.02,1.78,2.77,0,4.3-5.64,7.07-5.64,1.36,1.13,2.71,2.26,4.06,3.38,2.77,0,6.96-1.13,8.31,0,5.42,4.5,13.01,5.06,20.78,4.94,7.77-.09,15.73-.88,21.88.85,8.19,2.35,16.56.18,26.06,3.72,8.08,4.67,20.61,1.49,31.63,1.8,1.43-1.09,2.86-2.18,4.3-3.27,2.09-.51,4.82.12,7.2.76,2.38.64,4.41,1.27,5.13.73,15.47-5.18,30.43-1.23,43.04-4.09,6.27-.85,12.52-1.27,18.7-1.6,6.18-.29,12.3-.47,18.32-.87,6.02-.42,11.94-.96,17.74-2.1.37-.07.74-.15,1.11-.23l1.01,2.74c1.97-1.4,3.9-2.4,4.4-4.03.7-.19,1.39-.4,2.09-.61.31-.09.62-.2.93-.3,3,1.25,5.51.69,7.46-2.83,2.25,1.31.77,2.36,2.05,3.56,3.42-1.02,7.12-1.42,10.9-1.33,1.12,1.08,2.77,1.87,6.28,1.8l.11-1.15c2.78.48,5.54,1.18,8.22,2.09,8.4,2.82,15.89,7.64,20.17,13.05,3.2-4.27,6.7-4.57,10.29-4.16,3.59.42,7.27,1.58,10.88.18,4.24-.78,8.92-2.37,13.35-3.28,4.43-.88,8.62-1.07,11.87.91,10.59,4.96,19.74,3.12,28.13-1.27.3-.01.61-.02.91-.04.37-.35.74-.71,1.11-1.07.31-.18.61-.35.91-.54,9.19-5.46,17.52-13.37,25.78-17.64-1.01-13.7-1.73-29.63-16.64-34.52-2.28-.71-4.61-1.02-6.99-1.06-3.17-2.22-6.69-4.37-10.46-6.39Zm-406.22,18.08l-.07.49c-.26-.3-.51-.62-.76-.94.24.16.52.31.83.45Zm85.21-.46c-.33-.14-.65-.3-.95-.48.32.15.64.3.95.48Z"/>
    </clipPath>
  </defs>
  <g>
    <path class="cls-5" d="m48.33,59.67c-.66-.03-1.15-.09-1.37-.9-1.34,2.6.65,3.67,3.23,4.34,2.8-1.98-4.07,1.28-1.87-3.45Z"/>
    <path class="cls-5" d="m50.03,59.64l-1.54-.28c-.06.11-.1.21-.15.32.47.02,1.04.02,1.68.26.01-.1.01-.2.02-.3Z"/>
    <path class="cls-5" d="m48.12,53c1.6-.32,4.15.35,3.4,2.54l2.36-2.51-7.26-.62c1.28,2.3,3.62,3.85,3.41,7.22l3.12.56c-2.96-2.06-3.71-4.84-5.03-7.2Z"/>
    <path class="cls-5" d="m66.26,61.62l1.55.54c.43-1.32-.86-2.59-1.92-3.78.18,1.08-.14,2.11-.34,3.14-.35,1.73-.37,3.43,2.96,5.2-1.49-1.44-2.95-2.88-2.24-5.1Z"/>
    <path class="cls-5" d="m65.88,58.38c-.12-.74-.48-1.5-1.26-2.29-.07.72.55,1.49,1.26,2.29Z"/>
    <path class="cls-5" d="m52.6,65.57c.5,5.48,3.55,1.67,6.32,6.37l1.15-.82c-2.51-1.83-5-3.67-7.47-5.55Z"/>
    <path class="cls-5" d="m139.1,56.47c-.33-.09-.66-.19-1.1-.23l.37.97c.22-.18.49-.51.73-.74Z"/>
    <path class="cls-5" d="m145.57,58.98l-5.35-3.64c-.4.51-.74.77-1.12,1.13,3.48.94,2.43,4.13,6.46,2.52Z"/>
    <path class="cls-5" d="m125.54,55.65c4.76,3.22,9.63,3.73,13.48,3.3l-.64-1.74c-4.35,3.31-6.55-3.48-12.83-1.56Z"/>
    <path class="cls-5" d="m535.49,47.45c-5.29,4.32-13.07,6.34-20.38,7.5-.5-.49-.99-.97-1.49-1.45-1.38.91-3.35,1.76-5.35,2.35-2.39.27-4.61.48-6.49.71-10.81-2.92-21.18-4.28-31.31-4.67-5.07-.21-10.07-.24-15.05-.12-4.98.12-9.92.35-14.87.57-15.47.08-31.34,4.76-46.03,10.3-2.22-4.22-5.96-10.09-11.56-10.36-15.27-1.92-36.09-6.22-47.07,8.07-5.06-4.74-10.66-4.95-13.59-2.8-3.77,2.75-7.72,4.5-11.81,5.51-.31-.05-.61-.1-.92-.14-4.78-.76-9.66-1.69-14.48-2.03-4.82-.33-9.59-.11-14.14,1.36.06.05.14.11.22.16-6.02-.91-12.02-1.83-17.81-1.92-11.27,2.01-23.71-1.48-32.17,1.37-5.72,2.77-10.89,3.2-15.84,3.48-1.72-1.12-3.69-1.95-5.69-1.78,1.11.11,2.09.35,3.01.69l-.04,1.25c-1.36.08-2.71.18-4.06.35-6.24-2.23-13.68-3.28-15.84-7.32-2.37,5.42,2.65,4.96,7.11,4.97-4.91.45-10.73,1.6-16.07,1.38,2.09-.91,3.51-3.17,6.02-.48,1.16-1.81.63-3.16-.99-4.5-4.86,1.3-14.15-1.97-14.49,2.16-.67-.48-1.3-1.04-1.9-1.68l-.79-.93-2.3,3.61-1.09-.9c.3.57.63,1.09.99,1.6-6.25.64-13.07-.64-17.62,2.89.49.34.95.69,1.37,1-.5-.32-.96-.65-1.37-1-.49,1.12-.84,2.07-1.1,2.9-1.81-1.99.91-2.18,1.46-4.22-4.39-.02-7.69-.02-8.89,3.56l7.25,1.23c-.36,1.28-.47,2.24-.45,3.03-2.39,2.36-4.37,4.27-5.21,3.56-5.91-2.27-10.46-5.94-14.63-9.85.13-.32.27-.6.4-.88,2.97.95,7.23,1.26,8.85,1.53l-5.32-4.54-1.71,2.23c-.72-.21-1.1-.67-1.31-1.21-.02-.33-.08-.69-.21-1.1-.02-.32,0-.62,0-.86l-.3.08c-.14-.32-.31-.66-.53-1.03l-.18,1.22-2.3.6c-.09.25-.11.48-.09.7-2.28-3.28-4.49-6.94-9.15-8.1-.03.11-.07.23-.11.34-2.39-1.8-4.94-3.32-7.83-4.37-.62-.55-2.56.93-4.43,2.87-.16,0-.31-.02-.49-.02-1.48,1.41-2.3,2.67-2.61,3.83-.56.87-.92,1.62-.95,2.12,1.17,3.42,4.07,6.04,7.32,8.37.33.24.67.48,1.01.71l-.87-.02.53.46c.17-.13.32-.25.46-.35,2.93,2.02,6,3.87,8.23,5.9,1.45,3.38,2.4,5.06,4.01,7.92,2.58,4.55-3.01,6.71-4.45,7.81,4.5,7.4,12.36,10.62,21.32,12.09,8.97,1.48,19.03,1.21,28.02,1.78,2.77,0,4.3-5.64,7.07-5.64,1.36,1.13,2.71,2.26,4.06,3.38,2.77,0,6.96-1.13,8.31,0,5.42,4.5,13.01,5.06,20.78,4.94,7.77-.09,15.73-.88,21.88.85,8.19,2.35,16.56.18,26.06,3.72,8.08,4.67,20.61,1.49,31.63,1.8,1.43-1.09,2.86-2.18,4.3-3.27,2.09-.51,4.82.12,7.2.76,2.38.64,4.41,1.27,5.13.73,15.47-5.18,30.43-1.23,43.04-4.09,6.27-.85,12.52-1.27,18.7-1.6,6.18-.29,12.3-.47,18.32-.87,6.02-.42,11.94-.96,17.74-2.1.37-.07.74-.15,1.11-.23l1.01,2.74c1.97-1.4,3.9-2.4,4.4-4.03.7-.19,1.39-.4,2.09-.61.31-.09.62-.2.93-.3,3,1.25,5.51.69,7.46-2.83,2.25,1.31.77,2.36,2.05,3.56,3.42-1.02,7.12-1.42,10.9-1.33,1.12,1.08,2.77,1.87,6.28,1.8l.11-1.15c2.78.48,5.54,1.18,8.22,2.09,8.4,2.82,15.89,7.64,20.17,13.05,3.2-4.27,6.7-4.57,10.29-4.16,3.59.42,7.27,1.58,10.88.18,4.24-.78,8.92-2.37,13.35-3.28,4.43-.88,8.62-1.07,11.87.91,10.59,4.96,19.74,3.12,28.13-1.27.3-.01.61-.02.91-.04.37-.35.74-.71,1.11-1.07.31-.18.61-.35.91-.54,9.19-5.46,17.52-13.37,25.78-17.64-1.01-13.7-1.73-29.63-16.64-34.52-2.28-.71-4.61-1.02-6.99-1.06-3.17-2.22-6.69-4.37-10.46-6.39Zm-406.22,18.08l-.07.49c-.26-.3-.51-.62-.76-.94.24.16.52.31.83.45Zm85.21-.46c-.33-.14-.65-.3-.95-.48.32.15.64.3.95.48Z"/>
  </g>
  <g class="cls-3">
    <g>
      <g>
        <g>
          <polygon class="cls-6" points="593.49 106.71 573.22 106.71 573.22 104.71 583.28 94.84 593.88 105.29 593.49 106.71"/>
          <polygon class="cls-6" points="520.18 106.71 499.91 106.71 499.91 104.71 509.97 94.84 520.56 105.29 520.18 106.71"/>
          <polygon class="cls-6" points="447.65 106.71 427.38 106.71 427.38 104.71 437.44 94.84 448.04 105.29 447.65 106.71"/>
          <polygon class="cls-6" points="374.7 106.71 354.43 106.71 354.43 104.71 364.49 94.84 375.08 105.29 374.7 106.71"/>
          <polygon class="cls-6" points="302 106.71 281.73 106.71 281.73 104.71 291.79 94.84 302.38 105.29 302 106.71"/>
          <polygon class="cls-6" points="228.96 106.71 208.69 106.71 208.69 104.71 218.75 94.84 229.35 105.29 228.96 106.71"/>
          <polygon class="cls-6" points="156.23 106.71 135.96 106.71 135.96 104.71 146.02 94.84 156.62 105.29 156.23 106.71"/>
          <polygon class="cls-6" points="82.87 106.71 62.61 106.71 62.61 104.71 72.66 94.84 83.26 105.29 82.87 106.71"/>
        </g>
        <path class="cls-1" d="m361.35,95.16l-7.71,8.07c-.81.85-1.03,2.06-.57,3.15.47,1.09,1.49,1.76,2.67,1.76h17.44c1.18,0,2.21-.68,2.67-1.76.46-1.09.24-2.29-.57-3.14l-7.7-8.07c-.82-.86-1.93-1.33-3.11-1.33s-2.29.47-3.12,1.33Zm4.66,1.49l7.71,8.08c.21.22.27.51.15.8s-.37.45-.68.45h-17.44c-.31,0-.56-.16-.68-.45-.12-.29-.07-.58.14-.8l7.71-8.07c.39-.41.95-.64,1.55-.64h0c.6,0,1.16.23,1.55.64Z"/>
        <path class="cls-1" d="m364.31,86.14c-1.19,0-2.29.47-3.12,1.33l-19.47,20.4c-.82.86-1.03,2.06-.57,3.15.47,1.09,1.49,1.76,2.67,1.76h40.96c1.18,0,2.2-.67,2.67-1.76.46-1.09.25-2.29-.57-3.15l-19.47-20.39c-.82-.86-1.92-1.33-3.11-1.33Zm21.16,24.02c-.12.29-.37.45-.68.45h-40.96c-.31,0-.56-.16-.68-.45-.12-.28-.07-.58.15-.8l19.46-20.4c.39-.41.96-.64,1.55-.64h0c.6,0,1.16.23,1.54.64l19.47,20.39c.21.23.27.52.15.81Z"/>
        <path class="cls-1" d="m583.12,86.14c-1.19,0-2.29.47-3.12,1.33l-19.46,20.39c-.81.86-1.03,2.06-.57,3.15.47,1.09,1.49,1.76,2.67,1.76h40.96c1.18,0,2.21-.68,2.67-1.76.46-1.09.24-2.29-.57-3.15l-19.47-20.39c-.82-.86-1.93-1.33-3.12-1.33Zm21.16,24.02c-.12.29-.37.45-.68.45h-40.96c-.31,0-.56-.16-.68-.45-.12-.29-.07-.58.15-.8l19.47-20.39c.77-.81,2.32-.82,3.1,0l19.47,20.39c.21.23.27.52.14.81Z"/>
        <path class="cls-1" d="m580,95.16l-7.7,8.07c-.82.85-1.04,2.06-.57,3.15.46,1.09,1.49,1.76,2.67,1.76h17.44c1.18,0,2.2-.68,2.67-1.76.46-1.09.24-2.29-.57-3.15l-7.7-8.07c-.82-.86-1.93-1.33-3.12-1.33s-2.29.47-3.12,1.33Zm12.52,10.37c-.12.29-.37.45-.68.45h-17.44c-.31,0-.56-.16-.68-.45-.12-.29-.07-.58.15-.81l7.7-8.07c.39-.41.95-.64,1.55-.64h0c.6,0,1.16.23,1.55.64l7.71,8.07c.21.22.27.52.14.8Z"/>
        <path class="cls-1" d="m507.12,95.16l-7.7,8.07c-.82.85-1.04,2.06-.57,3.15.47,1.09,1.49,1.76,2.67,1.76h17.44c1.18,0,2.2-.68,2.67-1.76.46-1.09.25-2.29-.57-3.15l-7.71-8.07c-.82-.86-1.92-1.33-3.12-1.33s-2.29.47-3.11,1.33Zm-6.14,9.57l7.7-8.07c.39-.41.96-.64,1.55-.64h0c.6,0,1.16.23,1.55.64l7.71,8.07c.21.23.27.52.14.8-.12.29-.37.45-.68.45h-17.44c-.31,0-.56-.16-.68-.45-.12-.29-.07-.58.15-.8Z"/>
        <path class="cls-1" d="m510.08,86.14c-1.19,0-2.29.47-3.11,1.33l-19.47,20.4c-.81.86-1.03,2.06-.57,3.15.47,1.09,1.49,1.76,2.67,1.76h40.96c1.18,0,2.2-.67,2.67-1.76.47-1.09.25-2.29-.57-3.15l-19.47-20.39c-.82-.86-1.93-1.33-3.12-1.33Zm21.16,24.02c-.12.29-.37.45-.68.45h-40.96c-.31,0-.56-.16-.68-.45-.12-.29-.07-.58.15-.8l19.47-20.4c.39-.41.95-.64,1.55-.64s1.16.23,1.55.64l19.46,20.39c.22.23.27.52.15.81Z"/>
        <path class="cls-1" d="m655.71,86.14c-1.19,0-2.29.47-3.11,1.33l-19.47,20.4c-.81.86-1.03,2.06-.57,3.15.47,1.09,1.49,1.76,2.67,1.76h40.96c1.18,0,2.2-.67,2.67-1.76s.25-2.29-.57-3.15l-19.47-20.39c-.82-.86-1.93-1.33-3.12-1.33Zm21.16,24.02c-.12.29-.37.45-.68.45h-40.96c-.31,0-.56-.16-.68-.45-.12-.29-.07-.58.15-.8l19.47-20.4c.39-.41.95-.64,1.55-.64s1.16.23,1.55.64l19.46,20.39c.22.23.27.52.15.81Z"/>
        <path class="cls-1" d="m428.63,108.14h17.44c1.18,0,2.21-.68,2.67-1.76.46-1.09.25-2.29-.57-3.15l-7.7-8.07c-.82-.86-1.93-1.33-3.12-1.33s-2.29.47-3.12,1.33l-7.7,8.07c-.81.85-1.03,2.06-.57,3.15.47,1.09,1.49,1.76,2.67,1.76Zm10.27-11.49l7.71,8.07c.21.22.27.52.14.8-.12.29-.37.45-.68.45h-17.44c-.31,0-.56-.16-.68-.45-.12-.29-.07-.58.15-.8l7.7-8.07c.78-.81,2.33-.81,3.1,0Z"/>
        <path class="cls-1" d="m437.35,86.14c-1.19,0-2.29.47-3.12,1.33l-19.46,20.39c-.81.86-1.03,2.06-.57,3.15.47,1.09,1.49,1.76,2.67,1.76h40.96c1.18,0,2.21-.68,2.67-1.76.46-1.09.25-2.29-.57-3.15l-19.47-20.39c-.82-.86-1.93-1.33-3.12-1.33Zm1.55,2.83l19.47,20.39c.21.22.27.52.15.8-.12.29-.37.45-.69.45h-40.96c-.31,0-.56-.16-.68-.45-.12-.29-.07-.58.15-.8l19.46-20.39c.78-.81,2.33-.81,3.1,0Z"/>
        <path class="cls-1" d="m288.47,95.16l-7.7,8.07c-.81.85-1.03,2.06-.57,3.15.47,1.09,1.49,1.76,2.67,1.76h17.44c1.18,0,2.2-.68,2.67-1.76.46-1.09.24-2.29-.57-3.15l-7.71-8.07c-.82-.86-1.93-1.33-3.11-1.33s-2.29.47-3.12,1.33Zm12.52,10.37c-.12.29-.37.45-.68.45h-17.44c-.31,0-.56-.16-.68-.45-.12-.29-.07-.58.15-.8l7.7-8.07c.78-.82,2.32-.81,3.1,0l7.71,8.07c.21.22.27.51.14.8Z"/>
        <path class="cls-1" d="m292.06,86.14c-1.19,0-2.29.47-3.12,1.33l-19.47,20.4c-.81.86-1.03,2.06-.57,3.15.47,1.09,1.49,1.76,2.67,1.76h40.96c1.18,0,2.21-.68,2.67-1.76.46-1.09.24-2.29-.57-3.15l-19.47-20.39c-.82-.86-1.93-1.33-3.11-1.33Zm21.16,24.02c-.12.29-.37.45-.68.45h-40.96c-.31,0-.56-.16-.68-.45-.12-.29-.07-.58.15-.8l19.47-20.39c.77-.81,2.32-.82,3.1,0l19.47,20.39c.21.23.27.52.14.81Z"/>
        <path class="cls-1" d="m209.98,108.14h17.44c1.18,0,2.2-.68,2.67-1.76.46-1.09.24-2.29-.57-3.15l-7.7-8.07c-.82-.86-1.93-1.33-3.12-1.33s-2.29.47-3.12,1.33l-7.7,8.07c-.81.85-1.03,2.06-.57,3.15.47,1.09,1.49,1.76,2.67,1.76Zm18.12-2.61c-.12.29-.37.45-.68.45h-17.44c-.31,0-.56-.16-.68-.45-.12-.29-.07-.58.15-.8l7.71-8.07c.39-.41.95-.64,1.55-.64h0c.6,0,1.16.23,1.55.64l7.71,8.07c.21.22.27.52.14.8Z"/>
        <path class="cls-1" d="m219.02,86.14c-1.19,0-2.29.47-3.12,1.33l-19.46,20.39c-.81.86-1.03,2.06-.57,3.15.47,1.09,1.49,1.76,2.67,1.76h40.96c1.18,0,2.2-.68,2.67-1.76.46-1.09.25-2.29-.57-3.15l-19.47-20.39c-.82-.86-1.93-1.33-3.12-1.33Zm1.55,2.83l19.47,20.39c.21.22.27.52.15.8-.12.29-.37.45-.68.45h-40.96c-.31,0-.56-.16-.68-.45-.12-.29-.07-.58.15-.8l19.46-20.39c.78-.81,2.33-.81,3.1,0Z"/>
        <path class="cls-1" d="m142.7,95.16l-7.7,8.07c-.82.85-1.04,2.06-.57,3.15.47,1.09,1.49,1.76,2.67,1.76h17.44c1.18,0,2.2-.68,2.67-1.76.46-1.09.25-2.29-.57-3.15l-7.71-8.07c-.82-.86-1.92-1.33-3.12-1.33s-2.29.47-3.11,1.33Zm-6.14,9.57l7.7-8.07c.39-.41.95-.64,1.55-.64s1.16.23,1.55.64l7.71,8.07c.21.23.27.52.14.8-.12.29-.37.45-.68.45h-17.44c-.31,0-.56-.16-.68-.45-.12-.29-.07-.58.15-.8Z"/>
        <path class="cls-1" d="m146.29,86.14c-1.19,0-2.29.47-3.12,1.33l-19.46,20.39c-.81.86-1.03,2.06-.57,3.15.47,1.09,1.49,1.76,2.67,1.76h40.96c1.18,0,2.21-.68,2.67-1.76.46-1.09.24-2.29-.57-3.15l-19.46-20.39c-.82-.86-1.93-1.33-3.12-1.33Zm21.16,24.02c-.12.29-.37.45-.68.45h-40.96c-.31,0-.56-.16-.68-.45-.12-.29-.07-.58.15-.8l19.46-20.39c.78-.81,2.33-.81,3.1,0l19.47,20.39c.21.22.27.52.14.8Z"/>
        <path class="cls-1" d="m69.82,95.16l-7.7,8.07c-.81.85-1.03,2.06-.57,3.15.47,1.09,1.49,1.76,2.67,1.76h17.44c1.18,0,2.21-.68,2.67-1.76.46-1.09.24-2.29-.57-3.15l-7.7-8.07c-.82-.86-1.93-1.33-3.12-1.33s-2.29.47-3.12,1.33Zm3.11.85h0c.6,0,1.16.23,1.55.64l7.71,8.07c.21.22.27.52.14.8-.12.29-.37.45-.68.45h-17.44c-.31,0-.56-.16-.68-.45-.12-.29-.07-.58.15-.8l7.7-8.07c.39-.41.95-.64,1.55-.64Z"/>
        <path class="cls-1" d="m73.25,86.14c-1.19,0-2.29.47-3.12,1.33l-19.47,20.4c-.82.86-1.03,2.06-.57,3.15.47,1.09,1.49,1.76,2.67,1.76h40.96c1.18,0,2.2-.68,2.67-1.76.46-1.09.25-2.29-.57-3.15l-19.47-20.39c-.82-.86-1.93-1.33-3.12-1.33Zm21.16,24.02c-.12.29-.37.45-.68.45h-40.96c-.31,0-.56-.16-.68-.45-.12-.29-.07-.58.15-.8l19.46-20.4c.39-.41.96-.64,1.55-.64h0c.6,0,1.16.23,1.54.64l19.47,20.39c.21.23.27.52.15.8Z"/>
      </g>
      <g>
        <polygon class="cls-6" points="38.11 87.1 74.36 50.45 110.14 86.17 112.1 85.48 146.2 50.45 148.17 51.03 181.93 85.48 185.11 85.94 218.34 50.45 220.66 50.45 253.98 85.25 257.42 85.94 291.69 50.45 293.86 50.45 327.69 85.25 329.54 85.82 363.69 50.91 367.13 51.64 399.84 85.59 403.66 85.71 436.72 51.03 439.61 51.03 473.25 85.94 476.6 85.36 509.09 51.14 511.86 50.45 545.5 85.59 548.97 85.59 582.8 50.91 585.04 51.14 620.6 87.91 620.07 99.93 616.64 102.12 585.62 70.45 582.8 69.76 548.97 104.3 546.08 104.3 512.44 70.1 509.67 69.76 476.49 104.9 473.37 104.9 439.38 69.64 436.6 69.87 402.73 104.9 401.4 104.9 366.43 69.99 363.69 70.45 331.29 104.07 328.17 104.9 293.16 69.52 290.94 70.1 258.69 104.07 255.1 104.9 220.77 69.52 218.57 70.1 185.63 104.3 182.27 104.9 148.05 69.29 146.29 69.29 112.33 104.9 109.21 104.9 75.4 69.87 73.26 69.87 42.85 101.43 39.07 101.43 38.11 87.1"/>
        <path class="cls-2" d="m74.37,42.87h0c-1.16,0-2.26.46-3.02,1.25l-34.15,35.77-.2.21,1.56,1.5,34.35-35.99c.72-.76,2.19-.77,2.92,0l31.91,33.43c.76.8,1.86,1.25,3.02,1.25s2.26-.46,3.02-1.25l31.91-33.43c.36-.38.89-.6,1.46-.6h0c.56,0,1.09.22,1.46.6l31.91,33.43c.76.8,1.86,1.25,3.02,1.25h0c1.16,0,2.26-.46,3.02-1.25l31.91-33.43c.36-.38.89-.6,1.46-.6s1.09.22,1.46.6l31.91,33.43c.76.8,1.86,1.25,3.02,1.25s2.26-.46,3.02-1.25l31.91-33.43c.73-.76,2.19-.76,2.92,0l31.91,33.43c.76.8,1.86,1.25,3.02,1.25h0c1.16,0,2.26-.46,3.02-1.25l31.91-33.43c.37-.38.9-.6,1.46-.6h0c.56,0,1.09.22,1.45.6l31.91,33.43c.76.8,1.86,1.25,3.03,1.25h0c1.16,0,2.26-.46,3.02-1.25l31.91-33.43c.73-.76,2.19-.76,2.92,0l31.91,33.43c.76.8,1.86,1.25,3.02,1.25h0c1.16,0,2.26-.46,3.02-1.25l31.91-33.43c.36-.38.89-.6,1.46-.6s1.09.22,1.46.6l31.91,33.43c.76.8,1.86,1.25,3.02,1.25h0c1.16,0,2.26-.46,3.02-1.25l31.91-33.43c.36-.38.9-.6,1.46-.6s1.09.22,1.46.6l34.15,35.77.21.21,1.56-1.5-34.35-35.98c-.76-.79-1.86-1.25-3.02-1.25-1.16,0-2.26.46-3.02,1.25l-31.91,33.43c-.73.77-2.19.77-2.92,0l-31.91-33.42c-.76-.8-1.86-1.25-3.02-1.25h0c-1.16,0-2.26.46-3.02,1.25l-31.91,33.43c-.36.38-.9.6-1.46.6s-1.09-.22-1.46-.6l-31.91-33.43c-.76-.8-1.86-1.25-3.02-1.25-1.16,0-2.26.46-3.02,1.25l-31.91,33.43c-.36.38-.9.6-1.46.6s-1.09-.22-1.46-.6l-31.91-33.42c-.76-.8-1.86-1.25-3.02-1.25h0c-1.16,0-2.26.46-3.02,1.25l-31.91,33.43c-.73.77-2.19.77-2.92,0l-31.91-33.43c-.76-.79-1.86-1.25-3.02-1.25-1.16,0-2.26.46-3.02,1.25l-31.91,33.43c-.36.38-.9.6-1.46.6h0c-.56,0-1.09-.22-1.45-.6l-31.91-33.42c-.76-.8-1.86-1.25-3.02-1.25h0c-1.16,0-2.26.46-3.02,1.25l-31.91,33.43c-.36.38-.9.6-1.46.6s-1.09-.22-1.46-.6l-31.91-33.43c-.76-.79-1.86-1.25-3.02-1.25h0c-1.16,0-2.26.46-3.03,1.25l-31.91,33.43c-.72.76-2.19.77-2.92,0l-31.91-33.43c-.76-.8-1.86-1.25-3.02-1.25Z"/>
        <path class="cls-1" d="m36.9,98.83c0,1.65.9,3.08,2.37,3.77,1.55.73,3.86.13,5.04-1.1l28.6-29.96c.72-.76,2.19-.77,2.92,0l31.91,33.42c.76.8,1.86,1.25,3.02,1.25s2.26-.46,3.02-1.25l32.13-33.66c.67-.7,1.79-.7,2.46,0l32.13,33.66c.76.8,1.86,1.25,3.03,1.25h0c1.16,0,2.26-.46,3.02-1.25l31.91-33.43c.36-.38.89-.6,1.45-.6h0c.56,0,1.09.22,1.46.6l31.91,33.42c.76.8,1.86,1.25,3.02,1.25s2.26-.46,3.02-1.25l31.91-33.42c.36-.38.9-.6,1.46-.6s1.09.22,1.46.6l31.91,33.42c.76.8,1.86,1.25,3.02,1.25h0c1.16,0,2.26-.46,3.02-1.25l31.91-33.43c.37-.38.9-.6,1.46-.6h0c.56,0,1.09.22,1.46.6l31.91,33.42c.76.8,1.86,1.25,3.03,1.25h0c1.16,0,2.26-.46,3.02-1.25l31.91-33.42c.36-.38.9-.6,1.46-.6s1.09.22,1.46.6l31.91,33.42c.76.8,1.86,1.25,3.02,1.25h0c1.16,0,2.26-.46,3.02-1.25l31.91-33.43c.36-.38.89-.6,1.45-.6h0c.56,0,1.09.22,1.46.6l31.91,33.42c.8.83,1.87,1.29,3.02,1.29s2.22-.46,3.02-1.29l31.91-33.42c.36-.38.9-.6,1.46-.6h0c.56,0,1.09.22,1.45.6l28.81,30.18.51.53v-.08c1.21.93,2.79,1.11,4.25.46,1.53-.69,2.44-2.31,2.44-4v-9.89c0-1.07-.41-2.11-1.16-2.89l-33.29-34.87c-.76-.8-1.86-1.25-3.02-1.26h0c-1.16,0-2.26.46-3.02,1.25l-31.91,33.42c-.36.38-.9.6-1.46.6h0c-.56,0-1.09-.22-1.46-.6l-31.91-33.42c-.76-.8-1.86-1.25-3.02-1.25h0c-1.16,0-2.26.46-3.02,1.25l-31.91,33.42c-.36.38-.9.6-1.46.6h0c-.56,0-1.09-.22-1.45-.6l-31.91-33.42c-.76-.8-1.86-1.25-3.02-1.26h0c-1.16,0-2.26.46-3.02,1.25l-31.91,33.42c-.36.38-.9.6-1.46.6h0c-.56,0-1.09-.22-1.45-.6l-31.91-33.42c-.76-.8-1.86-1.25-3.02-1.25s-2.26.46-3.02,1.25l-31.91,33.42c-.36.38-.9.6-1.46.6h0c-.56,0-1.09-.22-1.46-.6l-31.91-33.42c-.76-.8-1.86-1.25-3.02-1.26h0c-1.16,0-2.26.46-3.02,1.25l-31.91,33.42c-.37.38-.9.6-1.46.6h0c-.56,0-1.09-.22-1.45-.6l-31.91-33.42c-.76-.8-1.86-1.25-3.02-1.25s-2.26.46-3.02,1.25l-31.9,33.42c-.37.38-.9.6-1.46.6h0c-.56,0-1.09-.22-1.46-.6l-31.91-33.42c-.76-.8-1.86-1.25-3.02-1.26h0c-1.16,0-2.26.46-3.03,1.25l-31.91,33.42c-.36.38-.9.6-1.46.6-.56,0-1.09-.22-1.46-.6l-31.91-33.42c-.76-.8-1.86-1.25-3.02-1.26h0c-1.16,0-2.26.46-3.02,1.25l-33.29,34.88c-.74.78-1.15,1.81-1.15,2.89v10.09Zm2.16,0v-10.09c0-.52.2-1.01.56-1.39l33.29-34.87c.36-.38.9-.6,1.46-.6s1.09.22,1.46.6l31.91,33.42c.76.8,1.86,1.26,3.02,1.26h0c1.16,0,2.26-.46,3.02-1.25l31.91-33.43c.72-.76,2.19-.77,2.92,0l31.91,33.42c.76.8,1.86,1.26,3.02,1.26h0c1.16,0,2.26-.46,3.02-1.25l31.91-33.43c.72-.76,2.18-.76,2.91,0l31.91,33.42c.76.8,1.86,1.26,3.02,1.26s2.26-.46,3.02-1.25l31.91-33.43c.37-.38.9-.6,1.46-.6h0c.56,0,1.09.22,1.45.6l31.91,33.42c.76.8,1.86,1.26,3.02,1.26h0c1.16,0,2.26-.46,3.02-1.25l31.91-33.43c.36-.38.89-.6,1.45-.6.56,0,1.09.22,1.46.6l31.91,33.42c.76.8,1.86,1.26,3.02,1.26h0c1.16,0,2.26-.46,3.02-1.25l31.91-33.43c.37-.38.9-.6,1.46-.6h0c.56,0,1.09.22,1.45.6l31.91,33.42c.76.8,1.86,1.26,3.03,1.26s2.26-.46,3.02-1.25l31.91-33.43c.72-.76,2.18-.76,2.91,0l31.91,33.42c.76.8,1.86,1.26,3.02,1.26h0c1.16,0,2.26-.46,3.02-1.25l31.91-33.43c.37-.38.9-.6,1.46-.6h0c.56,0,1.09.22,1.45.6l33.29,34.87c.36.38.56.87.56,1.4v10.09c0,1.01-.65,1.63-1.27,1.87-.61.24-1.51.25-2.21-.48l-28.81-30.18c-.76-.79-1.86-1.25-3.02-1.25h0c-1.16,0-2.26.46-3.02,1.25l-31.91,33.43c-.36.38-.89.6-1.45.6h0c-.56,0-1.09-.22-1.46-.6l-31.91-33.42c-.8-.83-1.87-1.29-3.02-1.29s-2.23.46-3.02,1.29l-31.91,33.43c-.72.77-2.19.77-2.92,0l-31.91-33.43c-.76-.8-1.86-1.25-3.02-1.25h0c-1.16,0-2.26.46-3.02,1.25l-31.91,33.43c-.72.77-2.19.77-2.92,0l-31.91-33.42c-.76-.8-1.86-1.25-3.02-1.25h0c-1.16,0-2.26.46-3.02,1.25l-31.91,33.43c-.36.38-.89.6-1.45.6h0c-.56,0-1.09-.22-1.46-.6l-31.91-33.43c-.76-.79-1.86-1.25-3.02-1.25h0c-1.16,0-2.26.46-3.02,1.25l-31.91,33.43c-.36.38-.9.6-1.46.6-.56,0-1.09-.22-1.46-.6l-31.91-33.42c-.76-.8-1.86-1.25-3.02-1.25h0c-1.16,0-2.26.46-3.02,1.25l-31.91,33.43c-.73.77-2.19.77-2.92,0l-33.7-35.3c-.67-.7-1.79-.7-2.46,0l-33.7,35.3c-.72.76-2.19.76-2.92,0l-31.91-33.43c-.76-.8-1.86-1.25-3.02-1.25-1.16,0-2.26.46-3.02,1.25l-28.81,30.18c-.69.72-1.59.73-2.2.48-.61-.24-1.27-.86-1.27-1.87Z"/>
        <path class="cls-2" d="m619.63,114.38l1.56-1.5-34.35-35.98c-.76-.79-1.86-1.25-3.02-1.25h0c-1.16,0-2.26.46-3.02,1.25l-31.91,33.43c-.36.38-.89.6-1.45.6h0c-.56,0-1.09-.22-1.46-.6l-31.91-33.42c-.76-.8-1.86-1.25-3.02-1.25s-2.26.46-3.02,1.25l-31.91,33.43c-.72.76-2.19.77-2.92,0l-31.91-33.43c-.76-.79-1.86-1.25-3.02-1.25h0c-1.16,0-2.26.46-3.02,1.25l-31.91,33.43c-.72.76-2.19.77-2.92,0l-31.91-33.42c-.76-.8-1.86-1.25-3.02-1.25h0c-1.16,0-2.26.46-3.02,1.25l-31.91,33.43c-.36.38-.89.6-1.45.6h0c-.56,0-1.09-.22-1.46-.6l-31.91-33.43c-.76-.79-1.86-1.25-3.02-1.25h0c-1.16,0-2.26.46-3.02,1.25l-31.91,33.43c-.37.38-.9.6-1.46.6h0c-.56,0-1.09-.22-1.45-.6l-31.91-33.42c-.76-.8-1.86-1.25-3.02-1.25h0c-1.16,0-2.26.46-3.02,1.25l-31.91,33.43c-.73.77-2.19.77-2.92,0l-31.91-33.43c-.76-.79-1.86-1.25-3.02-1.25h0c-1.16,0-2.26.46-3.02,1.25l-31.91,33.43c-.36.38-.9.6-1.46.6-.56,0-1.09-.22-1.46-.6l-31.91-33.43c-.76-.8-1.86-1.25-3.02-1.25-1.16,0-2.26.46-3.02,1.25l-34.15,35.77-.2.21,1.56,1.5,34.35-35.99c.73-.76,2.18-.77,2.92,0l31.91,33.43c.76.8,1.86,1.25,3.02,1.25h0c1.16,0,2.26-.46,3.02-1.25l31.91-33.43c.36-.38.89-.6,1.46-.6h0c.56,0,1.09.22,1.46.6l31.91,33.43c.76.8,1.86,1.25,3.02,1.25h0c1.16,0,2.26-.46,3.02-1.25l31.91-33.43c.36-.38.89-.6,1.46-.6s1.09.22,1.46.6l31.91,33.43c.76.8,1.86,1.25,3.02,1.25h0c1.16,0,2.26-.46,3.02-1.25l31.91-33.43c.72-.76,2.19-.77,2.92,0l31.91,33.43c.76.8,1.86,1.25,3.02,1.25h0c1.16,0,2.26-.46,3.02-1.25l31.91-33.43c.37-.38.9-.6,1.46-.6h0c.56,0,1.09.22,1.45.6l31.91,33.43c.76.8,1.86,1.25,3.02,1.25h0c1.16,0,2.26-.46,3.02-1.25l31.91-33.43c.72-.76,2.19-.77,2.92,0l31.91,33.43c.76.8,1.86,1.25,3.02,1.25h0c1.16,0,2.26-.46,3.02-1.25l31.91-33.43c.36-.38.89-.6,1.46-.6s1.09.22,1.46.6l31.91,33.43c.76.8,1.86,1.25,3.02,1.25h0c1.16,0,2.26-.46,3.02-1.25l31.91-33.43c.36-.38.9-.6,1.46-.6h0c.56,0,1.09.22,1.46.6l34.15,35.77.21.21Z"/>
      </g>
    </g>
  </g>
</svg>