<svg xmlns="http://www.w3.org/2000/svg" width="176.72" height="55.959" viewBox="0 0 176.72 55.959">
  <g id="Group_308" data-name="Group 308" transform="translate(-1271.153 -5838.077)">
    <path id="Path_3023" data-name="Path 3023" d="M422.719,27.835h-3.506v8.176h-2.28V27.835h-3.506v-2.08h9.292Z" transform="translate(920.037 5818.83)" fill="#55504f"/>
    <path id="Path_3024" data-name="Path 3024" d="M419.114,29.766H423.6V25.754h2.313v10.26H423.6V31.9h-4.486v4.119H416.8V25.754h2.313Z" transform="translate(927.548 5818.828)" fill="#55504f"/>
    <path id="Path_3025" data-name="Path 3025" d="M428.075,27.822h-5.406V29.75h4.825v2.006h-4.825v2.19h5.667v2.067h-7.931V25.754h7.67Z" transform="translate(935.568 5818.828)" fill="#55504f"/>
    <path id="Path_3026" data-name="Path 3026" d="M423.081,40.2a5.62,5.62,0,0,1-1.913,1.01,7.459,7.459,0,0,1-2.235.323,6.5,6.5,0,0,1-2.235-.368,4.808,4.808,0,0,1-1.732-1.058,4.667,4.667,0,0,1-1.116-1.668,5.953,5.953,0,0,1-.4-2.219,5.149,5.149,0,0,1,.4-2.067,4.9,4.9,0,0,1,1.1-1.716,5.462,5.462,0,0,1,1.774-1.161,6.071,6.071,0,0,1,2.358-.429,6.588,6.588,0,0,1,2.145.352,5.221,5.221,0,0,1,1.761,1.055L421.7,33.9a3.6,3.6,0,0,0-1.209-.735,4.624,4.624,0,0,0-1.487-.229,3.736,3.736,0,0,0-1.332.229,2.823,2.823,0,0,0-1.713,1.684,3.653,3.653,0,0,0-.229,1.332,3.512,3.512,0,0,0,.242,1.364,2.789,2.789,0,0,0,.69,1.01,2.587,2.587,0,0,0,1.026.645,3.626,3.626,0,0,0,1.3.229,4.261,4.261,0,0,0,1.9-.4V37.472l-1.806-.106V35.45h4Z" transform="translate(920.089 5830.155)" fill="#55504f"/>
    <path id="Path_3027" data-name="Path 3027" d="M423.411,31.155a3.991,3.991,0,0,1,1.271.706,3.429,3.429,0,0,1,.813,1.1,3.326,3.326,0,0,1,.29,1.439,3.233,3.233,0,0,1-.552,1.868,3.459,3.459,0,0,1-1.545,1.226l2.5,3.674H423.4l-1.884-3.064h-2.067V41.17h-2.3V30.91h4.638a4.966,4.966,0,0,1,1.622.245m-1.79,4.915a1.967,1.967,0,0,0,1.316-.413,1.4,1.4,0,0,0,.506-1.148,1.43,1.43,0,0,0-.474-1.148,1.925,1.925,0,0,0-1.287-.4h-2.235v3.106Z" transform="translate(928.326 5830.302)" fill="#55504f"/>
    <path id="Path_3028" data-name="Path 3028" d="M431.323,41.179h-2.542L428,39.144h-4.4l-.764,2.035h-2.5l4.212-10.273h2.526Zm-4.074-4.058-1.361-3.906h-.155l-1.377,3.906Z" transform="translate(935.431 5830.293)" fill="#55504f"/>
    <path id="Path_3029" data-name="Path 3029" d="M429.622,35.564l2.848-4.654h2.464V41.167h-2.251V34.4h-.135l-2.374,3.906H428.98L426.606,34.4h-.139v6.767h-2.235V30.91h2.509Z" transform="translate(944.085 5830.303)" fill="#55504f"/>
    <path id="Path_3030" data-name="Path 3030" d="M436,32.977H430.6v1.929h4.825v2.006H430.6V39.1h5.667V41.17h-7.931V30.91H436Z" transform="translate(953.212 5830.302)" fill="#55504f"/>
    <path id="Path_3031" data-name="Path 3031" d="M439.124,32.977h-5.406v1.929h4.825v2.006h-4.825V39.1h5.667V41.17h-7.931V30.91h7.67Z" transform="translate(960.156 5830.302)" fill="#55504f"/>
    <path id="Path_3032" data-name="Path 3032" d="M443.837,41.167h-2.3l-4.732-6.554v6.554h-2.235V30.911h2.067l4.977,6.918V30.911h2.219Z" transform="translate(967.098 5830.303)" fill="#55504f"/>
    <path id="Path_3033" data-name="Path 3033" d="M420.555,38.358a4.145,4.145,0,0,0-1.545-.261,3.892,3.892,0,0,0-1.364.229A3.2,3.2,0,0,0,416.62,39a3.09,3.09,0,0,0-.658,1.042,3.626,3.626,0,0,0-.229,1.3,3.736,3.736,0,0,0,.229,1.332,2.919,2.919,0,0,0,.674,1.01,3.117,3.117,0,0,0,1.026.674,3.684,3.684,0,0,0,1.316.229,4.849,4.849,0,0,0,1.638-.29,4.566,4.566,0,0,0,1.348-.874l1.3,1.609a6.164,6.164,0,0,1-4.409,1.651,6.253,6.253,0,0,1-2.19-.368,5.309,5.309,0,0,1-1.713-1.071,5.086,5.086,0,0,1-1.1-1.684,5.847,5.847,0,0,1-.4-2.19,5.266,5.266,0,0,1,.4-2.08,4.774,4.774,0,0,1,1.116-1.716,5.2,5.2,0,0,1,1.777-1.148A6.06,6.06,0,0,1,419.1,36a6.253,6.253,0,0,1,2.19.368,5.312,5.312,0,0,1,1.777,1.042l-1.274,1.668a3.348,3.348,0,0,0-1.239-.719" transform="translate(920.087 5841.629)" fill="#55504f"/>
    <path id="Path_3034" data-name="Path 3034" d="M423.277,36.311a3.99,3.99,0,0,1,1.271.706,3.449,3.449,0,0,1,.813,1.1,3.349,3.349,0,0,1,.29,1.442,3.232,3.232,0,0,1-.552,1.868,3.459,3.459,0,0,1-1.545,1.226l2.5,3.674h-2.787l-1.884-3.061h-2.068v3.061h-2.3V36.066h4.638a4.965,4.965,0,0,1,1.622.245m-1.79,4.916a1.967,1.967,0,0,0,1.316-.413,1.4,1.4,0,0,0,.506-1.148,1.431,1.431,0,0,0-.474-1.148,1.926,1.926,0,0,0-1.287-.4h-2.235v3.109Z" transform="translate(928.027 5841.776)" fill="#55504f"/>
    <path id="Path_3035" data-name="Path 3035" d="M428.036,38.133h-5.406v1.929h4.825v2.006h-4.825v2.19H428.3v2.067h-7.931V36.066h7.67Z" transform="translate(935.481 5841.776)" fill="#55504f"/>
    <path id="Path_3036" data-name="Path 3036" d="M434.23,46.334h-2.542l-.781-2.035h-4.4l-.765,2.035h-2.5l4.212-10.273h2.526Zm-4.074-4.058-1.361-3.9h-.155l-1.377,3.9Z" transform="translate(941.9 5841.765)" fill="#55504f"/>
    <path id="Path_3037" data-name="Path 3037" d="M435.832,38.147h-3.506v8.176h-2.28V38.147H426.54v-2.08h9.292Z" transform="translate(949.22 5841.777)" fill="#55504f"/>
    <rect id="Rectangle_138" data-name="Rectangle 138" width="2.313" height="10.257" transform="translate(1386.646 5877.842)" fill="#55504f"/>
    <path id="Path_3038" data-name="Path 3038" d="M436.534,44.013h.152l2.635-7.947h2.632l-4.07,10.289h-2.709L431.1,36.065h2.68Z" transform="translate(959.366 5841.775)" fill="#55504f"/>
    <path id="Path_3039" data-name="Path 3039" d="M442.61,38.133H437.2v1.929h4.825v2.006H437.2v2.19h5.667v2.067H434.94V36.066h7.67Z" transform="translate(967.914 5841.776)" fill="#55504f"/>
    <path id="Path_3040" data-name="Path 3040" d="M441.764,44.226h5.541v2.1h-7.838V36.066h2.3Z" transform="translate(977.988 5841.776)" fill="#55504f"/>
    <path id="Path_3041" data-name="Path 3041" d="M453.273,46.334h-2.542l-.781-2.035h-4.4l-.764,2.035h-2.5l4.212-10.273h2.525ZM449.2,42.276l-1.361-3.9h-.155l-1.377,3.9Z" transform="translate(984.279 5841.765)" fill="#55504f"/>
    <path id="Path_3042" data-name="Path 3042" d="M453.349,36.818a2.472,2.472,0,0,1,.935,2.051,2.548,2.548,0,0,1-.261,1.148,1.827,1.827,0,0,1-.735.748V40.9a2.245,2.245,0,0,1,1.193.89,2.4,2.4,0,0,1,.461,1.468,3.507,3.507,0,0,1-.216,1.2,2.54,2.54,0,0,1-.7.961,3.514,3.514,0,0,1-1.18.661,5.114,5.114,0,0,1-1.7.245h-4.961V36.066h4.535a4.025,4.025,0,0,1,2.632.752m-2.542,3.29a1.426,1.426,0,0,0,.919-.274,1.026,1.026,0,0,0,.323-.781c0-.69-.445-1.026-1.319-1.026h-2.264v2.08Zm.368,4.258c1.01,0,1.516-.4,1.516-1.21a1.013,1.013,0,0,0-.4-.871,1.75,1.75,0,0,0-1.135-.306h-2.693v2.387Z" transform="translate(992.931 5841.776)" fill="#55504f"/>
    <path id="Path_3043" data-name="Path 3043" d="M441.819,69.127c11.663-15.224,3.771-45,3.771-45s-30.609-3.467-43.969,10.289a26.384,26.384,0,0,0-7.46,19.972,82.04,82.04,0,0,0,4.951,23.565,81.875,81.875,0,0,0,24.039,1.464,26.374,26.374,0,0,0,18.669-10.289" transform="translate(877.045 5814.34)" fill="#72735d"/>
    <path id="Path_3044" data-name="Path 3044" d="M408.967,34.532a3.377,3.377,0,1,1,3.377-3.377,3.382,3.382,0,0,1-3.377,3.377" transform="translate(902.598 5823.332)" fill="#f9ca47"/>
    <path id="Path_3045" data-name="Path 3045" d="M405.257,34.42a3.377,3.377,0,1,1,3.377-3.377,3.382,3.382,0,0,1-3.377,3.377" transform="translate(894.342 5823.083)" fill="#66be77"/>
    <path id="Path_3046" data-name="Path 3046" d="M409.588,38.266a3.377,3.377,0,1,1,3.377-3.377,3.382,3.382,0,0,1-3.377,3.377" transform="translate(903.98 5831.642)" fill="#72735d"/>
    <path id="Path_3047" data-name="Path 3047" d="M428.985,39.747a4.421,4.421,0,0,0-3.925,2.393l-3.206.032,4.648-5.648a4.74,4.74,0,0,0,.48.026,4.425,4.425,0,1,0-4.425-4.425,4.355,4.355,0,0,0,.268,1.5l-4.435,5.393-1.122-3.448a4.421,4.421,0,1,0-2.667.6l1.735,5.344-2.367,2.88-7.486-14.588h-8.986l10.75,20.243V63.686h8.428V48.475l2.629-3.2,5.386-.058a4.424,4.424,0,1,0,4.3-5.47m-2-9.95a2.329,2.329,0,1,1-2.329,2.329,2.332,2.332,0,0,1,2.329-2.329m-14.295,1.971a2.329,2.329,0,1,1,2.329,2.329,2.332,2.332,0,0,1-2.329-2.329m16.3,14.734a2.329,2.329,0,1,1,2.329-2.329,2.332,2.332,0,0,1-2.329,2.329" transform="translate(884.583 5822.362)" fill="#fff"/>
  </g>
</svg>
