<svg xmlns="http://www.w3.org/2000/svg" xmlns:xlink="http://www.w3.org/1999/xlink" width="2521.226" height="1819" viewBox="0 0 2521.226 1819">
  <defs>
    <clipPath id="clip-path">
      <rect id="Rectangle_98" data-name="Rectangle 98" width="1818.997" height="2521.226" fill="none"/>
    </clipPath>
    <clipPath id="clip-path-2">
      <path id="Path_2354" data-name="Path 2354" d="M785.186,1191.819l1.6.045c-.868.945-1.787,1.858-2.729,2.764a19.707,19.707,0,0,0,1.126-2.809m-9.928-14.137,7.76,4.658a6.145,6.145,0,0,1-3.406,4.632,13.68,13.68,0,0,0-3.455,1.087c-1.019.174-1.983.248-2.741.306l.361.942c-.964.571-1.993,1.242-3.125,2.061l3.964.122,2.748,7.144a5.39,5.39,0,0,0,2.29.026c-9.686,8.515-20.6,16.907-22.629,32.267.371.061.751.148,1.135.242A96.578,96.578,0,0,0,747,1257.84c-1.539,2.18,3.912,7.873,10.8,13.169.036.519.061,1.01.113,1.561,5.044,4.232,9.386,6.393,13.214,6.98,2.987,1.487,5.541,2.374,7.128,2.28a38.849,38.849,0,0,0,10.837-7.818V1188.82c-1.042-.29-1.99-.623-2.9-.935,1.964-9.87,1.426-23.642,1.687-28.906Zm13.84-31.825v-22.342c-4.786,4.084-6.622-3.416-12.844-4.37,1.461,13.337,2.593,23.513,12.844,26.713m-5.79-30.78a42.428,42.428,0,0,1-2.7,4.741c.926-1.7,1.851-3.306,2.7-4.741M752.781,918.9a24.785,24.785,0,0,1-1.18,3.213c.361-1.094.745-2.171,1.18-3.213M645.114,263.549c9.283,27.277,21.533,53.912,34.518,79.251-12.7,8.651-30.157,22.768-29.012,40.8-.606,49.642-6.838,117.927,42.962,147.907-13.344,17.924-11.986,35.953-4.029,44.568A107.727,107.727,0,0,1,711.5,611.92c-.042,1-.081,2-.129,3-.709,15.588-1.919,31.564-1.242,47.146s3.129,30.78,9.476,44.82a6.025,6.025,0,0,0,.442-.774c-.726,19.626-1.51,39.179.31,57.78,10.534,35.4,3.854,76.522,16.069,102.587,10.944,17.336,14.211,33.738,16.9,49.516-2.958,5.9-4.906,12.518-3.651,18.888a38.831,38.831,0,0,1,1.106-9.886l4.025-.323c.758,4.332,1.574,8.625,2.6,12.879-4.884,20.82-5.535,45.026-17.711,53.409,18.22,5.619,14.924-10.279,13.337-24.587,3.209,15.559,9.038,33.792,10.24,50.99-3.693-6.386-11.431-10.105-3.729-19.13-6.212-3.048-10.341-.874-14.062,4.819,5.912,15.092-1.168,46.072,12.192,45.668a40.347,40.347,0,0,1-4.7,6.689l-2.69,2.874,12.4,6.051-2.506,3.816a49.08,49.08,0,0,0,4.758-3.745c4.325,19.8,2.7,42.111,15.659,55.415,3.229.994,6.025,1.719,8.492,2.242V263.549Z" transform="translate(-645.114 -263.549)" fill="none"/>
    </clipPath>
    <clipPath id="clip-path-5">
      <path id="Path_2417" data-name="Path 2417" d="M218.245,263.549c14.624,23.107,39.624,33.228,68.1,37.889,28.929,4.78,61.382,3.893,90.382,5.738,8.921-.01,13.885-18.191,22.807-18.2l13.111,10.9a90.179,90.179,0,0,0,9.992-.8c6.96-.806,13.908-1.616,16.827.816,17.482,14.508,41.949,16.324,67.007,15.94,25.052-.3,50.745-2.848,70.575,2.738,26.432,7.586,53.409.581,84.044,11.992,18.036,10.437,42.962,8.734,68.381,7.031,11.3-.758,22.694-1.516,33.621-1.209q6.933-5.274,13.882-10.56c6.751-1.638,15.543.4,23.216,2.442,7.68,2.071,14.237,4.106,16.55,2.358,28.587-9.573,56.635-9.479,83.025-9.386,19.668.071,38.417.139,55.793-3.793,20.23-2.729,40.379-4.106,60.324-5.154,19.943-.926,39.679-1.516,59.1-2.816,19.42-1.355,38.524-3.109,57.225-6.77,1.19-.229,2.38-.487,3.571-.735l3.251,8.831c6.344-4.506,12.592-7.747,14.179-13q3.377-.934,6.738-1.961c1.006-.306,2.006-.645,3.009-.961,9.673,4.041,17.775,2.238,24.068-9.121,7.254,4.229,2.493,7.609,6.628,11.492a113.238,113.238,0,0,1,35.16-4.274c3.622,3.467,8.947,6.044,20.268,5.8l.345-3.706a174.753,174.753,0,0,1,26.5,6.738c27.077,9.112,51.235,24.642,65.066,42.1,10.324-13.785,21.6-14.753,33.18-13.421s23.461,5.1,35.1.571c13.672-2.513,28.761-7.644,43.069-10.566,14.3-2.832,27.816-3.458,38.276,2.938,34.173,16,63.666,10.063,90.743-4.08.984-.039,1.964-.071,2.945-.132q1.814-1.713,3.58-3.448,1.475-.852,2.945-1.726c25.493-15.166,48.955-36.169,71.971-50.5Z" transform="translate(-218.245 -263.549)" fill="none"/>
    </clipPath>
  </defs>
  <g id="Group_305" data-name="Group 305" transform="translate(2784.775 -94.478) rotate(90)">
    <g id="Group_264" data-name="Group 264" transform="translate(94.478 263.549)">
      <g id="Group_263" data-name="Group 263" clip-path="url(#clip-path)">
        <path id="Path_2341" data-name="Path 2341" d="M686.5,646.328c-1.534-5.025-.37-13.421,6.558-11.821l-8.446-6.635.623,23.481c6.539-4.922,10.445-12.989,20.755-13.559l.642-10.2c-5.241,10.225-13.421,13.637-20.131,18.736" transform="translate(1118.664 546.589)" fill="#264d9d"/>
        <path id="Path_2342" data-name="Path 2342" d="M698.279,620.627l1.122-5.154c-4.165-.893-7.575,3.687-10.827,7.535,3.209-.968,6.46-.329,9.653-.036,5.357.481,10.527-.061,14.772-11.363-3.872,5.283-7.737,10.511-14.72,9.018" transform="translate(1126.817 511.02)" fill="#264d9d"/>
        <path id="Path_2343" data-name="Path 2343" d="M692.957,615.143a12.7,12.7,0,0,0-6.514,4.883c2.218-.042,4.33-2.3,6.514-4.883" transform="translate(1122.434 518.885)" fill="#264d9d"/>
        <path id="Path_2344" data-name="Path 2344" d="M678.652,542.6a20.022,20.022,0,0,0-.33,3.6l2.826-1.532c-.629-.655-1.7-1.377-2.5-2.068" transform="translate(1105.738 357.448)" fill="#264d9d"/>
        <path id="Path_2345" data-name="Path 2345" d="M686.407,535.9l-9.222,18.459a27.472,27.472,0,0,1,3.8,3.167c1.653-11.5,11.719-9.279,5.421-21.626" transform="translate(1103.404 342.527)" fill="#264d9d"/>
        <path id="Path_2346" data-name="Path 2346" d="M680.454,586.791a66.926,66.926,0,0,0,5.378-44.385l-5.06,2.69c11.542,12.756-8.3,22.249-.318,41.695" transform="translate(1106.112 357.017)" fill="#264d9d"/>
        <path id="Path_2347" data-name="Path 2347" d="M624.854,235.647c14.924,15.375,23.755,39.585,29.79,62.579-1.3,1.768-2.607,3.532-3.9,5.315a70.27,70.27,0,0,1,8.993,16.3c1.632,7.576,3.046,14.585,4.388,20.552A475.841,475.841,0,0,0,660.7,442.443c1.1,16.314,2.747,32.367,4.8,48.274,2.081,15.9,4.464,31.673,6.848,47.439,5.564,49.558,25.24,98.729,47.122,143.791-12.037,8.651-28.574,22.768-27.49,40.8-.574,49.645-6.478,117.93,40.7,147.91-12.642,17.924-11.358,35.953-3.817,44.568a108.968,108.968,0,0,1,20.794,35.837q-.059,1.5-.122,3c-.672,15.592-1.818,31.567-1.176,47.146s2.964,30.78,8.981,44.823a6.814,6.814,0,0,0,.416-.774c-.688,19.623-1.43,39.179.29,57.776,9.983,35.4,3.652,76.526,15.227,102.59,10.368,17.336,13.461,33.734,16.012,49.513-2.8,5.906-4.648,12.521-3.459,18.888a40.714,40.714,0,0,1,1.048-9.883l3.814-.326c.718,4.335,1.494,8.628,2.466,12.882-4.627,20.82-5.247,45.026-16.779,53.409,17.259,5.619,14.139-10.279,12.635-24.59,3.043,15.559,8.562,33.792,9.7,50.99-3.5-6.383-10.832-10.1-3.532-19.127-5.885-3.051-9.8-.874-13.323,4.819,5.6,15.092-1.106,46.072,11.55,45.665a40.506,40.506,0,0,1-4.452,6.689l-2.545,2.877,11.749,6.051-2.374,3.816a46.46,46.46,0,0,0,4.5-3.748c4.1,19.8,2.558,42.114,14.842,55.418.874-1.7,1.751-3.309,2.558-4.741a43.694,43.694,0,0,1-2.558,4.741,86.324,86.324,0,0,0,9.186,2.487c-5.427,6.531-6.949-2.132-13.311-3.164,1.464,14.082,2.576,24.642,13.876,27.187l1.225-23.687a30.108,30.108,0,0,0,9.372.345c7.985,6.809,14.475,12.46,12.614,15.4-4.846,19.765-14.435,35.689-24.871,50.448-1.005-.293-1.922-.632-2.8-.951,1.864-9.867,1.354-23.639,1.6-28.906l-11.957,18.707,7.352,4.658a6.124,6.124,0,0,1-3.224,4.628,12.694,12.694,0,0,0-3.276,1.087,25.517,25.517,0,0,1-2.6.31l.342.942c-.914.568-1.888,1.242-2.961,2.061l3.756.122,2.6,7.141a4.847,4.847,0,0,0,2.17.029c-9.177,8.512-19.52,16.907-21.436,32.267.349.061.712.148,1.076.242a99.527,99.527,0,0,0-10.579,26.667c-1.455,2.184,3.71,7.876,10.237,13.169.037.519.061,1.013.11,1.564,4.776,4.232,8.9,6.393,12.522,6.98,2.827,1.487,5.247,2.371,6.75,2.277,9.983-4.98,16.947-15.233,22.887-26.51.614-1.161,1.216-2.335,1.812-3.512l.235,2.787,1.21-1.864c-.47-.5-.868-.936-1.231-1.335,5.115-10.118,9.68-20.623,15.089-28.522a214.681,214.681,0,0,0,22.68-15.724c12.917-9.9,21.423,7.209,25.246,11.411,20.932-17.117,27.99-43.462,29.366-72.729,1.409-29.283-2.885-61.434-4.242-90.456-.959-8.863-18.6-11.75-19.569-20.613q4.446-7.151,8.868-14.253c-.935-8.889-5.821-21.884-2.845-26.651,11.792-19,10.894-43.52,7.856-68.375-2.955-24.861-8.095-50.106-4.947-70.439,4.324-27.113-5.149-53.132,2.328-84.857,11.413-27.58-2.551-66.6-5.4-102.01q-5.707-6.294-11.425-12.6c-2.261-6.525-1.28-15.492-.174-23.345,1.131-7.86,2.347-14.608.455-16.707C880.055,906.963,886.9,857.6,873.9,818.21c-4.727-19.791-8.171-39.659-11.282-59.36-3-19.714-5.662-39.256-8.959-58.405-3.346-19.146-7.034-37.931-12.473-56.1-.345-1.161-.715-2.309-1.073-3.464l7.967-4.225c-4.92-5.8-8.636-11.64-13.745-12.631q-1.242-3.251-2.567-6.47c-.394-.968-.819-1.922-1.225-2.883,2.775-10.066.214-17.914-11.15-22.891,3.2-7.683,6.9-3.332,10.108-7.876a118.668,118.668,0,0,1-7.774-34.454c2.882-3.993,4.736-9.573,3.3-20.794l-3.529.074a184.366,184.366,0,0,1,3.52-27.09c5.69-27.932,17.732-53.683,32.693-69.391-14.078-8.709-16.189-19.8-16.171-31.46s2.3-23.884-3.208-34.941c-3.82-13.3-10.261-27.719-14.536-41.608-4.193-13.892-6.224-27.248-1.314-38.359,11.419-35.757,2.683-64.4-13.518-89.708-.144-.974-.281-1.948-.443-2.916q-1.8-1.6-3.624-3.167-.958-1.369-1.941-2.732c-19.752-27.458-46.636-51.3-62.425-76.21-41.252,8.2-89.365,16.288-99.079,65.862a83.448,83.448,0,0,0-.8,22.8,338.311,338.311,0,0,0-15.8,35.837M819.467,1530.963l1.519.048c-.822.942-1.7,1.858-2.585,2.764a20.258,20.258,0,0,0,1.067-2.812m-30.7-272.916a26.169,26.169,0,0,1-1.115,3.213c.336-1.094.7-2.171,1.115-3.213" transform="translate(995.826 -602.696)" fill="#264d9d"/>
      </g>
    </g>
    <g id="Group_266" data-name="Group 266" transform="translate(1769.493 263.549)">
      <g id="Group_265" data-name="Group 265" clip-path="url(#clip-path-2)">
        <path id="Path_2348" data-name="Path 2348" d="M682.625,373.185a13.778,13.778,0,0,0,5.4,9.505l72.432,54.98a9.367,9.367,0,0,0,14.969-8.518l-14.869-131.27a9.369,9.369,0,0,0-16.5-4.951L685.77,362.722a13.734,13.734,0,0,0-3.145,10.463m69.314-76.538a2.3,2.3,0,0,1,1.687,2.019l14.869,131.27a2.39,2.39,0,0,1-3.822,2.177l-72.429-54.974a6.939,6.939,0,0,1-2.613-4.748l0-.013a6.864,6.864,0,0,1,1.5-5.183L749.407,297.4a2.319,2.319,0,0,1,2.532-.758" transform="translate(-561.841 -205.681)" fill="#fff"/>
        <path id="Path_2349" data-name="Path 2349" d="M674.4,300.612a13.8,13.8,0,0,0,5.4,9.505l72.426,54.977a9.371,9.371,0,0,0,14.979-8.515l-14.872-131.27a9.372,9.372,0,0,0-16.5-4.957l-58.289,69.791a13.779,13.779,0,0,0-3.138,10.47m8.5-6,58.289-69.791a2.388,2.388,0,0,1,4.212,1.268l14.872,131.27a2.392,2.392,0,0,1-3.822,2.171l-72.426-54.977a7.334,7.334,0,0,1-1.125-9.941" transform="translate(-580.138 -367.184)" fill="#fff"/>
        <path id="Path_2350" data-name="Path 2350" d="M936.735,1929.562,806.126,1826.7l101.5-127.629-2.935-6.048-124.645-96.581,1.139-6.509,98.155-120.691.326-10.363-125.81-93.63-.842-7.425,99.426-119.417.974-11.273-126.19-96.971-.784-6.931,99.239-121.062,1.181-6.138L702.565,899.276l1.084-11.289,96.942-117.178-1.016-12.269L676.42,665.168l-1.048-9.26,99.677-120.494-3.071-10.534-121.462-91.7-3.229-8.625L747.708,303.979l-1.261-11.108L623.014,197.025l-.071-7.251L727.852,62.459,766.576,59.8,774.862,70,684.6,180.895l-1.2,9.289L806.4,286.078l1.052,9.257-97.384,120.23-.106,9.018,124.68,93.575,1.132,10.005L735.106,649.889l1.748,8.809,124.561,95.839.481,4.261L762.7,883.549l2.477,8.634,119.5,91.627,3.806,9.7-100.664,125.02,2.658,6.915,120.559,91.037,3.974,11.186L814.106,1350.55l2.648,6.828,121.562,93.178,3.138,10.528-101.69,122.594.642,5.664,126.442,95.894,1.132,10.005-99.987,121.078.777,6.864,112.186,85.986,1.377,12.14Z" transform="translate(-694.453 -716.968)" fill="#f8dc00"/>
        <path id="Path_2351" data-name="Path 2351" d="M799.876,1826.927v.006a13.521,13.521,0,0,0,5.109,9.237l127.039,96.455.758.571,4.225-5.551-127.8-97.033a6.9,6.9,0,0,1-1.058-9.344l95.542-114.408a13.786,13.786,0,0,0-2.2-19.375l-118.714-90.121a6.468,6.468,0,0,1-2.454-4.451v-.006a6.5,6.5,0,0,1,1.4-4.893l95.542-114.4a13.49,13.49,0,0,0,2.913-10.147v-.007a13.468,13.468,0,0,0-5.109-9.221l-118.714-90.13a6.664,6.664,0,0,1-1.055-9.334l95.543-114.4a13.78,13.78,0,0,0-2.2-19.372l-118.71-90.13a6.915,6.915,0,0,1-1.058-9.344l95.539-114.408a13.466,13.466,0,0,0,2.916-10.137v-.01a13.459,13.459,0,0,0-5.109-9.218L703.514,897.63a6.536,6.536,0,0,1-2.454-4.464v-.01a6.459,6.459,0,0,1,1.4-4.877L798,773.885a13.51,13.51,0,0,0,2.913-10.15v-.01a13.462,13.462,0,0,0-5.109-9.218l-118.711-90.13a6.911,6.911,0,0,1-1.058-9.344l95.539-114.4a13.5,13.5,0,0,0,2.916-10.144v-.016a13.477,13.477,0,0,0-5.109-9.212l-118.714-90.13a6.661,6.661,0,0,1-1.055-9.338l95.539-114.4a13.489,13.489,0,0,0,2.916-10.144v-.006a13.46,13.46,0,0,0-5.109-9.221l-118.71-90.13a6.666,6.666,0,0,1-1.058-9.344L725.434,66.119l.61-.739-5.361-4.464L617.832,184.081a13.786,13.786,0,0,0,2.193,19.365l118.71,90.13a6.879,6.879,0,0,1,1.058,9.344l-95.533,114.4a13.471,13.471,0,0,0-2.922,10.141v.006a13.467,13.467,0,0,0,5.109,9.221l118.711,90.13a6.654,6.654,0,0,1,1.058,9.341L670.676,650.569a13.792,13.792,0,0,0,2.193,19.372L791.58,760.064a6.654,6.654,0,0,1,1.058,9.341l-95.532,114.4a13.476,13.476,0,0,0-2.922,10.137v.01a13.5,13.5,0,0,0,5.109,9.228L818,993.312a6.872,6.872,0,0,1,1.058,9.341l-95.539,114.411a13.787,13.787,0,0,0,2.193,19.365l118.71,90.13a6.5,6.5,0,0,1,2.458,4.457v.007a6.461,6.461,0,0,1-1.4,4.877L749.95,1350.3a13.475,13.475,0,0,0-2.922,10.137v.01a13.527,13.527,0,0,0,5.109,9.228l118.71,90.124a6.665,6.665,0,0,1,1.061,9.347l-95.542,114.4a13.488,13.488,0,0,0-2.913,10.131v.006a13.531,13.531,0,0,0,5.109,9.244l118.71,90.13a6.9,6.9,0,0,1,1.058,9.341l-95.543,114.4a13.5,13.5,0,0,0-2.912,10.131" transform="translate(-712.51 -714.486)" fill="#f8dc00"/>
        <path id="Path_2352" data-name="Path 2352" d="M977.663,1931.626a13.211,13.211,0,0,0,11.224-8.976c1.777-5.219-.977-12.408-5.367-15.743l-106.409-80.783a6.893,6.893,0,0,1-1.055-9.341l95.536-114.408A13.781,13.781,0,0,0,969.4,1683l-119.549-90.762a5.5,5.5,0,0,1-.9-7.9l96.217-115.2a13.505,13.505,0,0,0,2.919-10.153v-.006a13.507,13.507,0,0,0-5.112-9.221l-118.717-90.13a6.487,6.487,0,0,1-2.451-4.441v-.006a6.5,6.5,0,0,1,1.4-4.886l95.536-114.4a13.779,13.779,0,0,0-2.193-19.375l-118.707-90.13a6.662,6.662,0,0,1-1.058-9.341l95.536-114.4a13.526,13.526,0,0,0,2.919-10.147v-.006a13.508,13.508,0,0,0-5.112-9.221L771.419,893.144a6.537,6.537,0,0,1-2.455-4.457v-.007a6.5,6.5,0,0,1,1.4-4.886L865.9,769.4a13.516,13.516,0,0,0,2.919-10.154v-.006a13.5,13.5,0,0,0-5.115-9.221L745,659.887a6.67,6.67,0,0,1-1.058-9.341l95.539-114.4A13.527,13.527,0,0,0,842.4,526l0-.013a13.47,13.47,0,0,0-5.112-9.215L718.571,426.643a6.483,6.483,0,0,1-2.451-4.445v-.006a6.508,6.508,0,0,1,1.4-4.886l95.536-114.4a13.486,13.486,0,0,0-2.2-19.372L692.155,193.4a6.51,6.51,0,0,1-2.454-4.457v-.006a6.461,6.461,0,0,1,1.4-4.88l86.266-103.3,1.516-1.829-.242.029a13.254,13.254,0,0,0-.074-13.795c-2.764-4.667-8.3-6.977-13.692-6.367l-31.709,3.593a13.479,13.479,0,0,0-8.828,4.754L624.661,186.5a13.487,13.487,0,0,0-2.928,10.125l0,.016a13.5,13.5,0,0,0,5.119,9.234l118.707,90.13a6.5,6.5,0,0,1,2.455,4.451v.006a6.5,6.5,0,0,1-1.4,4.886L651.083,419.744a13.518,13.518,0,0,0-2.919,10.147l0,.006a13.454,13.454,0,0,0,5.109,9.221l118.707,90.13a6.5,6.5,0,0,1,2.455,4.458v.006a6.5,6.5,0,0,1-1.4,4.88l-95.533,114.4a13.514,13.514,0,0,0-2.925,10.141v.006a13.507,13.507,0,0,0,5.119,9.234L798.406,762.5a6.5,6.5,0,0,1,2.454,4.458l0,.006a6.5,6.5,0,0,1-1.4,4.88l-95.53,114.4a13.783,13.783,0,0,0,2.19,19.375l118.707,90.13a6.5,6.5,0,0,1,2.455,4.448v.01a6.484,6.484,0,0,1-1.4,4.887l-95.53,114.4a13.457,13.457,0,0,0-2.929,10.125v.016a13.528,13.528,0,0,0,5.119,9.234l118.707,90.124a6.532,6.532,0,0,1,2.451,4.464l0,.006a6.492,6.492,0,0,1-1.4,4.88l-95.53,114.392a13.793,13.793,0,0,0,2.19,19.381l118.707,90.114a6.537,6.537,0,0,1,2.454,4.464l0,.01a6.5,6.5,0,0,1-1.4,4.886L783.2,1585.974a13.486,13.486,0,0,0-2.929,10.131v.006a13.51,13.51,0,0,0,5.119,9.244l118.707,90.13a6.669,6.669,0,0,1,1.055,9.344l-95.53,114.392a13.5,13.5,0,0,0-2.929,10.137l0,.01a13.49,13.49,0,0,0,5.115,9.234l123.861,94.043a13.439,13.439,0,0,0,9.663,2.642Zm-.784-6.931-32.344,3.664a6.5,6.5,0,0,1-4.651-1.277L816.03,1833.045a6.677,6.677,0,0,1-1.055-9.344l95.53-114.4a13.507,13.507,0,0,0,2.932-10.147l0-.01a13.471,13.471,0,0,0-5.115-9.224L789.607,1599.8a6.9,6.9,0,0,1-1.054-9.35l95.53-114.392a13.5,13.5,0,0,0,2.929-10.147v-.01a13.485,13.485,0,0,0-5.116-9.228l-118.71-90.127a6.9,6.9,0,0,1-1.055-9.338l95.53-114.4a13.763,13.763,0,0,0-2.187-19.375l-118.71-90.124a6.545,6.545,0,0,1-2.451-4.464v-.01a6.472,6.472,0,0,1,1.4-4.877l95.53-114.4a13.5,13.5,0,0,0,2.929-10.137v-.006a13.473,13.473,0,0,0-5.115-9.228l-118.714-90.14a6.658,6.658,0,0,1-1.052-9.334l95.53-114.392a13.5,13.5,0,0,0,2.929-10.147v-.006a13.464,13.464,0,0,0-5.119-9.228L683.917,666.815a6.546,6.546,0,0,1-2.451-4.464v-.01a6.485,6.485,0,0,1,1.393-4.877l95.533-114.392a13.766,13.766,0,0,0-2.19-19.381l-118.71-90.13a6.9,6.9,0,0,1-1.051-9.338l95.53-114.4a13.5,13.5,0,0,0,2.929-10.141v-.006a13.479,13.479,0,0,0-5.115-9.228l-118.71-90.124a6.52,6.52,0,0,1-2.451-4.464v-.016a6.455,6.455,0,0,1,1.393-4.87L729.686,71.621a6.5,6.5,0,0,1,4.267-2.3l32.331-3.664A6.5,6.5,0,0,1,772,76.288l-86.266,103.3a13.491,13.491,0,0,0-2.913,10.131v.006a13.531,13.531,0,0,0,5.106,9.238l118.714,90.13a6.483,6.483,0,0,1,2.458,4.441v.006a6.5,6.5,0,0,1-1.4,4.893l-95.539,114.4a13.482,13.482,0,0,0,2.19,19.368l118.71,90.13a6.876,6.876,0,0,1,1.061,9.341L738.581,646.079a13.491,13.491,0,0,0-2.913,10.131v.006a13.522,13.522,0,0,0,5.109,9.238l118.71,90.124a6.875,6.875,0,0,1,1.058,9.341l-95.539,114.4a13.475,13.475,0,0,0-2.919,10.137v.006A13.518,13.518,0,0,0,767.2,898.7l118.711,90.13a6.476,6.476,0,0,1,2.458,4.441v.007a6.469,6.469,0,0,1-1.4,4.893l-95.542,114.4a13.5,13.5,0,0,0-2.913,10.131v.007a13.535,13.535,0,0,0,5.109,9.237l118.71,90.13a6.669,6.669,0,0,1,1.058,9.341l-95.536,114.4a13.477,13.477,0,0,0-2.922,10.137l0,.006a13.5,13.5,0,0,0,5.109,9.231l118.71,90.121a6.9,6.9,0,0,1,1.058,9.35L838.92,1585.477a5.492,5.492,0,0,0,.9,7.9l125.361,95.194a6.907,6.907,0,0,1,1.058,9.341l-95.539,114.4a13.8,13.8,0,0,0,2.193,19.375l107.186,81.38a6.5,6.5,0,0,1-3.2,11.631" transform="translate(-697.345 -719.409)" fill="#d72028"/>
        <path id="Path_2353" data-name="Path 2353" d="M758.618,61.691l-5.36-4.464L650.4,180.382a13.514,13.514,0,0,0-2.912,10.131v.006a13.537,13.537,0,0,0,5.109,9.237l118.71,90.13a6.46,6.46,0,0,1,2.455,4.441v.006a6.518,6.518,0,0,1-1.4,4.893l-95.533,114.4a13.772,13.772,0,0,0,2.184,19.365l118.71,90.13a6.9,6.9,0,0,1,1.061,9.344L703.248,646.877a13.512,13.512,0,0,0-2.913,10.131v.006a13.55,13.55,0,0,0,5.109,9.237l118.711,90.121a6.9,6.9,0,0,1,1.058,9.344l-95.533,114.4a13.462,13.462,0,0,0-2.922,10.128l0,.016a13.492,13.492,0,0,0,5.106,9.228l118.71,90.13a6.468,6.468,0,0,1,2.455,4.445v.006a6.518,6.518,0,0,1-1.4,4.893l-95.542,114.4a13.507,13.507,0,0,0-2.912,10.128v.01a13.534,13.534,0,0,0,5.109,9.234L877,1222.86a6.534,6.534,0,0,1,2.458,4.464v.006a6.478,6.478,0,0,1-1.4,4.88l-95.533,114.4a13.465,13.465,0,0,0-2.922,10.131l0,.013a13.491,13.491,0,0,0,5.106,9.228l118.71,90.124a6.9,6.9,0,0,1,1.058,9.35l-95.54,114.4a13.5,13.5,0,0,0-2.916,10.128l0,.01a13.507,13.507,0,0,0,5.106,9.234l118.71,90.13a6.666,6.666,0,0,1,1.058,9.344l-95.539,114.4a13.791,13.791,0,0,0,2.193,19.372l127.039,96.456.758.574,4.229-5.551-127.8-97.036a6.89,6.89,0,0,1-1.055-9.341l95.539-114.411a13.475,13.475,0,0,0,2.916-10.137v-.007a13.509,13.509,0,0,0-5.109-9.228l-118.714-90.124a6.5,6.5,0,0,1-2.461-4.448v-.007a6.506,6.506,0,0,1,1.406-4.9l95.539-114.4a13.475,13.475,0,0,0,2.916-10.137v-.006a13.5,13.5,0,0,0-5.109-9.228l-118.714-90.13a6.661,6.661,0,0,1-1.054-9.338l95.539-114.408a13.468,13.468,0,0,0,2.916-10.137v-.006a13.506,13.506,0,0,0-5.109-9.221l-118.71-90.13a6.894,6.894,0,0,1-1.058-9.344L857,1003.427a13.493,13.493,0,0,0,2.916-10.137v-.006a13.5,13.5,0,0,0-5.109-9.221L736.089,893.938a6.511,6.511,0,0,1-2.454-4.464v-.006a6.468,6.468,0,0,1,1.4-4.88L830.573,770.2a13.51,13.51,0,0,0,2.916-10.147v-.007a13.518,13.518,0,0,0-5.109-9.228l-118.711-90.13a6.9,6.9,0,0,1-1.061-9.344l95.542-114.4a13.505,13.505,0,0,0,2.916-10.144l0-.006a13.48,13.48,0,0,0-5.109-9.221l-118.714-90.13a6.66,6.66,0,0,1-1.052-9.334l95.539-114.4a13.537,13.537,0,0,0,2.916-10.147v-.006a13.524,13.524,0,0,0-5.109-9.221L656.825,194.2a6.487,6.487,0,0,1-2.458-4.448v-.006a6.491,6.491,0,0,1,1.4-4.886L758.008,62.426Z" transform="translate(-640.024 -722.696)" fill="#f8dc00"/>
      </g>
    </g>
    <g id="Group_268" data-name="Group 268" transform="translate(94.478 263.549)">
      <g id="Group_267" data-name="Group 267" clip-path="url(#clip-path)">
        <path id="Path_2355" data-name="Path 2355" d="M94.676,801.29c16.369-4.009,3.594-12.07,16.669-22.971L108.381,775c-4.5,8.825-9.033,17.6-13.7,26.29" transform="translate(-94.071 874.629)" fill="#264d9d"/>
        <path id="Path_2356" data-name="Path 2356" d="M117.659,753.6a4.857,4.857,0,0,1,.134.49.143.143,0,0,1,.079-.061c18.34-8.783,8.663-22.207,22.365-36.028l-19.181,1.838c4.2,13.769-8.663,18.643-3.4,33.76" transform="translate(-49.47 747.788)" fill="#264d9d"/>
        <path id="Path_2357" data-name="Path 2357" d="M126.642,659.7a8.652,8.652,0,0,0,1.494,1.216,9.7,9.7,0,0,0-1.494-1.216" transform="translate(-28.358 618.035)" fill="#264d9d"/>
        <path id="Path_2358" data-name="Path 2358" d="M105.7,794.318c7.5,3.774-.874,15.121-.458,22.268,4.516-2.151,9.953-23.7,15.245-11.663-2.445-7.064-4.364-13.524,5.959-12.2-5.561-12.1-11.765,3.816-20.745,1.59" transform="translate(-72.391 903.869)" fill="#264d9d"/>
        <path id="Path_2359" data-name="Path 2359" d="M110.216,793.342c.636,1.835,1.308,3.712,1.809,5.506a36.623,36.623,0,0,0-1.809-5.506" transform="translate(-62.125 915.447)" fill="#264d9d"/>
        <path id="Path_2360" data-name="Path 2360" d="M108.3,798.11c-.437-7.644-.367-17.491-6.866-18.291,2.961,6.415-4.134,17.656,6.866,18.291" transform="translate(-80.18 885.353)" fill="#264d9d"/>
        <path id="Path_2361" data-name="Path 2361" d="M110.089,793.187l9.592-12.45-3.994-2.019Z" transform="translate(-62.387 882.901)" fill="#264d9d"/>
        <path id="Path_2362" data-name="Path 2362" d="M109.153,771.449,122,792.7l-3.312-23.868c-13.271-7.98-14.49.284-14.252,11.282.538-3.361,1.778-6.438,4.715-8.667" transform="translate(-74.055 853.831)" fill="#264d9d"/>
        <path id="Path_2363" data-name="Path 2363" d="M107.131,773.012c.183,7.331-.2,14.259-3.875,17.336l7.979,4.019c2.94-1.39-2.212-11.318-4.1-21.355" transform="translate(-76.433 870.205)" fill="#264d9d"/>
        <path id="Path_2364" data-name="Path 2364" d="M104.908,779.408c-.1-3.116-.214-6.3-.315-9.27a27.615,27.615,0,0,0,.315,9.27" transform="translate(-74.21 863.809)" fill="#264d9d"/>
        <path id="Path_2365" data-name="Path 2365" d="M117.286,762.154l-1.47-3.209L103.26,764.96c5.445,5.173,11.514-1.6,14.026-2.806" transform="translate(-76.425 838.898)" fill="#264d9d"/>
        <path id="Path_2366" data-name="Path 2366" d="M121,762.278c4.617-9.963-9.213-16.937-12.593-21.146-5.213,12.143-.361,19.559,1.476,30.328-1.821-10.773,6.1-6.812,11.117-9.183" transform="translate(-70.662 799.259)" fill="#264d9d"/>
        <path id="Path_2367" data-name="Path 2367" d="M111.65,736.58l8.593,19.111c11.655-11.328-3.746-11.731-8.593-19.111" transform="translate(-59.177 789.129)" fill="#264d9d"/>
        <path id="Path_2368" data-name="Path 2368" d="M103.026,728.569c-3.618,5.564,1.775,10.757,2.652,16.149l6.334-16.465c-2-1.01-5.051,2.357-8.987.316" transform="translate(-79.445 770.167)" fill="#264d9d"/>
      </g>
    </g>
    <g id="Group_272" data-name="Group 272" transform="translate(94.478 263.549)">
      <g id="Group_271" data-name="Group 271" clip-path="url(#clip-path)">
        <path id="Path_2389" data-name="Path 2389" d="M1527.06,219.606c-16.153,13.921-39.935,20.459-62.264,24.2q-2.273-2.346-4.562-4.687a63.854,63.854,0,0,1-16.357,7.593c-7.315.861-14.072,1.558-19.841,2.29a406.447,406.447,0,0,0-95.684-15.075c-15.48-.677-30.777-.761-45.983-.4-15.208.394-30.319,1.119-45.429,1.842-47.281.258-95.781,15.362-140.664,33.238-6.79-13.6-18.218-32.531-35.318-33.422-46.667-6.193-110.284-20.072-143.818,26.039-15.45-15.276-32.568-15.959-41.527-9.018a99.7,99.7,0,0,1-36.076,17.775l-2.808-.464c-14.6-2.461-29.509-5.461-44.25-6.544-14.738-1.064-29.311-.355-43.2,4.374a5.513,5.513,0,0,0,.681.523c-18.4-2.929-36.72-5.906-54.422-6.2-34.447,6.483-72.448-4.783-98.29,4.422-17.485,8.925-33.271,10.321-48.412,11.218-5.244-3.6-11.263-6.283-17.39-5.754a35.181,35.181,0,0,1,9.182,2.213l-.119,4.035c-4.162.268-8.29.6-12.406,1.139-19.077-7.2-41.8-10.57-48.391-23.61-7.23,17.469,8.089,15.985,21.726,16.021-14.988,1.438-32.776,5.177-49.09,4.435,6.4-2.948,10.729-10.221,18.4-1.551,3.532-5.828,1.928-10.179-3.034-14.514-14.839,4.177-43.248-6.348-44.293,6.973a39.191,39.191,0,0,1-5.794-5.422l-2.42-2.993-7.019,11.64L404.862,267a49.132,49.132,0,0,0,3.019,5.145c-19.1,2.071-39.932-2.058-53.839,9.328,1.5,1.11,2.915,2.213,4.174,3.219a40.455,40.455,0,0,1-4.174-3.219,98.457,98.457,0,0,0-3.377,9.354c-5.537-6.425,2.79-7.044,4.477-13.6-13.421-.052-23.486-.074-27.153,11.492l22.16,3.951a35.349,35.349,0,0,0-1.381,9.789c-7.306,7.609-13.357,13.782-15.914,11.5-18.062-7.309-31.972-19.159-44.693-31.764.391-1.022.813-1.945,1.213-2.832,9.078,3.067,22.1,4.08,27.031,4.932l-16.263-14.646-5.213,7.186a5.967,5.967,0,0,1-4-3.906,14.416,14.416,0,0,0-.654-3.554c-.055-1.035-.024-2,0-2.761l-.926.255c-.434-1.022-.956-2.122-1.607-3.338l-.538,3.925-7.016,1.926a5.726,5.726,0,0,0-.272,2.274c-6.979-10.582-13.717-22.378-27.963-26.116-.095.358-.217.729-.345,1.1A90.329,90.329,0,0,0,227.7,232.537c-1.888-1.774-7.829,3-13.549,9.254-.492-.019-.959-.048-1.482-.061-4.522,4.535-7.019,8.609-7.982,12.347-1.717,2.8-2.823,5.238-2.9,6.825,3.563,11.031,12.434,19.488,22.38,26.99,1.021.774,2.06,1.535,3.1,2.293l-2.649-.065,1.616,1.477c.529-.435.981-.8,1.4-1.142,8.95,6.506,18.325,12.476,25.152,19.036a233.251,233.251,0,0,0,12.25,25.558c7.868,14.659-9.2,21.655-13.586,25.194,13.757,23.881,37.763,34.25,65.163,38.985,27.407,4.777,58.153,3.893,85.63,5.735,8.449-.006,13.152-18.188,21.6-18.2q6.229,5.467,12.422,10.905c8.474.019,21.256-3.641,25.408.016,16.562,14.508,39.743,16.324,63.483,15.937,23.737-.3,48.079-2.848,66.865,2.742,25.039,7.586,50.6.581,79.62,11.992,24.681,15.072,62.981,4.822,96.64,5.822q6.564-5.274,13.149-10.563c6.4-1.639,14.725.4,22,2.445,7.27,2.071,13.485,4.1,15.676,2.358,47.272-16.711,92.976-3.974,131.515-13.179,19.165-2.732,38.258-4.106,57.151-5.154,18.893-.926,37.591-1.516,55.99-2.819,18.4-1.355,36.5-3.109,54.214-6.767,1.131-.232,2.255-.49,3.383-.735l3.08,8.828c6.01-4.506,11.93-7.747,13.436-12.992q3.2-.934,6.38-1.964c.953-.3,1.9-.642,2.851-.958,9.167,4.041,16.84,2.238,22.8-9.121,6.872,4.225,2.359,7.609,6.276,11.489a102.06,102.06,0,0,1,33.311-4.274c3.432,3.47,8.48,6.044,19.2,5.806l.327-3.709a158.171,158.171,0,0,1,25.106,6.741c25.653,9.109,48.54,24.639,61.643,42.1,9.781-13.782,20.467-14.75,31.434-13.418s22.227,5.093,33.255.568c12.953-2.509,27.251-7.644,40.8-10.563,13.549-2.835,26.352-3.461,36.262,2.938,32.375,16,60.317,10.063,85.97-4.08.932-.039,1.864-.074,2.793-.135q1.714-1.713,3.389-3.445,1.4-.852,2.79-1.729c28.073-17.623,53.545-43.136,78.77-56.893-3.071-44.191-5.274-95.562-50.847-111.331a71.378,71.378,0,0,0-21.372-3.4,309.2,309.2,0,0,0-31.96-20.6M285.778,277.915l-.217,1.587c-.795-.968-1.558-1.987-2.31-3.022a18.844,18.844,0,0,0,2.527,1.435m260.372-1.48a23.711,23.711,0,0,1-2.9-1.532c.99.477,1.962.981,2.9,1.532" transform="translate(126.109 -361.339)" fill="#264d9d"/>
      </g>
    </g>
    <g id="Group_274" data-name="Group 274" transform="translate(392.675 263.549)">
      <g id="Group_273" data-name="Group 273" clip-path="url(#clip-path-5)">
        <path id="Path_2390" data-name="Path 2390" d="M738.6,305.276H673.22v-6.464l32.444-31.818,34.173,33.689Z" transform="translate(794.25 -255.883)" fill="#eb7e23"/>
        <path id="Path_2391" data-name="Path 2391" d="M665.281,305.276H599.906v-6.464l32.444-31.818,34.173,33.689Z" transform="translate(631.098 -255.883)" fill="#eb7e23"/>
        <path id="Path_2392" data-name="Path 2392" d="M592.757,305.276H527.381v-6.464l32.444-31.818L594,300.683Z" transform="translate(469.703 -255.883)" fill="#eb7e23"/>
        <path id="Path_2393" data-name="Path 2393" d="M519.8,305.276H454.427v-6.464l32.444-31.818,34.173,33.689Z" transform="translate(307.352 -255.883)" fill="#eb7e23"/>
        <path id="Path_2394" data-name="Path 2394" d="M447.1,305.276H381.725v-6.464l32.444-31.818,34.173,33.689Z" transform="translate(145.562 -255.883)" fill="#eb7e23"/>
        <path id="Path_2395" data-name="Path 2395" d="M374.064,305.276H308.688v-6.464l32.444-31.818,34.173,33.689Z" transform="translate(-16.974 -255.883)" fill="#eb7e23"/>
        <path id="Path_2396" data-name="Path 2396" d="M301.333,305.276H235.958v-6.464L268.4,266.994l34.173,33.689Z" transform="translate(-178.827 -255.883)" fill="#eb7e23"/>
        <path id="Path_2397" data-name="Path 2397" d="M227.978,305.276H162.6v-6.464l32.444-31.818,34.173,33.689Z" transform="translate(-342.072 -255.883)" fill="#eb7e23"/>
        <path id="Path_2398" data-name="Path 2398" d="M480.3,270.275l-24.855,26.035a9.368,9.368,0,0,0,6.78,15.833h56.244a9.358,9.358,0,0,0,6.773-15.83l-24.848-26.039a13.9,13.9,0,0,0-20.094,0m15.047,4.815L520.2,301.139a2.386,2.386,0,0,1-1.735,4.032H462.222a2.39,2.39,0,0,1-1.732-4.035L485.345,275.1a6.881,6.881,0,0,1,5-2.064h.006a6.9,6.9,0,0,1,5,2.058" transform="translate(303.808 -258.141)" fill="#fff"/>
        <path id="Path_2399" data-name="Path 2399" d="M516.367,258.291a13.775,13.775,0,0,0-10.047,4.3l-62.789,65.782a9.369,9.369,0,0,0,6.783,15.837H582.423a9.367,9.367,0,0,0,6.773-15.843l-62.785-65.769a13.733,13.733,0,0,0-10.044-4.3m68.252,77.49a2.3,2.3,0,0,1-2.2,1.448H450.314a2.392,2.392,0,0,1-1.735-4.041L511.358,267.4a6.948,6.948,0,0,1,5.009-2.061h.016a6.855,6.855,0,0,1,4.98,2.071l62.789,65.766a2.326,2.326,0,0,1,.468,2.6" transform="translate(277.292 -275.25)" fill="#fff"/>
        <path id="Path_2400" data-name="Path 2400" d="M735.166,258.291a13.8,13.8,0,0,0-10.047,4.3L662.34,328.363a9.368,9.368,0,0,0,6.773,15.843H801.222a9.37,9.37,0,0,0,6.783-15.843l-62.789-65.775a13.777,13.777,0,0,0-10.05-4.3m68.252,77.49a2.289,2.289,0,0,1-2.2,1.448H669.113a2.392,2.392,0,0,1-1.729-4.041l62.789-65.775a7.318,7.318,0,0,1,10,0l62.786,65.772a2.3,2.3,0,0,1,.461,2.6" transform="translate(764.221 -275.25)" fill="#fff"/>
        <path id="Path_2401" data-name="Path 2401" d="M698.941,270.278,674.106,296.31a9.365,9.365,0,0,0,6.77,15.837h56.241a9.361,9.361,0,0,0,6.773-15.83l-24.848-26.042a13.9,13.9,0,0,0-20.1,0m40.372,33.441a2.294,2.294,0,0,1-2.2,1.451H680.876a2.384,2.384,0,0,1-1.729-4.041L704,275.1a6.872,6.872,0,0,1,5-2.067H709a6.9,6.9,0,0,1,5,2.058l24.858,26.045a2.3,2.3,0,0,1,.461,2.583" transform="translate(790.395 -258.144)" fill="#fff"/>
        <path id="Path_2402" data-name="Path 2402" d="M626.067,270.272l-24.845,26.039a9.36,9.36,0,0,0,6.767,15.833h56.244a9.368,9.368,0,0,0,6.783-15.833l-24.858-26.029a13.889,13.889,0,0,0-20.091-.01m-19.8,30.861,24.842-26.042a6.941,6.941,0,0,1,5-2.058h.016a6.877,6.877,0,0,1,4.987,2.061l24.858,26.039a2.394,2.394,0,0,1-1.735,4.038H607.989a2.39,2.39,0,0,1-1.726-4.038" transform="translate(628.196 -258.141)" fill="#fff"/>
        <path id="Path_2403" data-name="Path 2403" d="M662.131,258.291a13.75,13.75,0,0,0-10.041,4.3l-62.8,65.782a9.369,9.369,0,0,0,6.783,15.837H728.187a9.373,9.373,0,0,0,6.783-15.843L672.181,262.59a13.767,13.767,0,0,0-10.05-4.3m68.253,77.49a2.3,2.3,0,0,1-2.2,1.448H596.078a2.391,2.391,0,0,1-1.729-4.041L657.138,267.4a7.09,7.09,0,0,1,10,.01l62.779,65.766a2.3,2.3,0,0,1,.468,2.6" transform="translate(601.683 -275.25)" fill="#fff"/>
        <path id="Path_2404" data-name="Path 2404" d="M535.11,312.144h56.238a9.365,9.365,0,0,0,6.78-15.833L573.28,270.272a13.9,13.9,0,0,0-20.1.007l-24.848,26.032a9.365,9.365,0,0,0,6.78,15.833M568.232,275.1l24.858,26.039a2.393,2.393,0,0,1-1.742,4.035H535.11a2.392,2.392,0,0,1-1.732-4.045L558.227,275.1a7.333,7.333,0,0,1,10.005,0" transform="translate(466.002 -258.141)" fill="#fff"/>
        <path id="Path_2405" data-name="Path 2405" d="M589.4,258.292a13.792,13.792,0,0,0-10.05,4.293L516.57,328.36a9.37,9.37,0,0,0,6.773,15.843H655.456a9.374,9.374,0,0,0,6.78-15.843L599.45,262.585a13.792,13.792,0,0,0-10.05-4.293m5,9.118,62.785,65.775a2.387,2.387,0,0,1-1.732,4.041H523.344a2.39,2.39,0,0,1-1.726-4.041L584.4,267.41a7.332,7.332,0,0,1,10.005,0" transform="translate(439.832 -275.248)" fill="#fff"/>
        <path id="Path_2406" data-name="Path 2406" d="M407.412,270.278,382.564,296.31a9.367,9.367,0,0,0,6.773,15.837h56.251a9.365,9.365,0,0,0,6.773-15.837l-24.855-26.035a13.893,13.893,0,0,0-20.094,0m40.372,33.441a2.294,2.294,0,0,1-2.2,1.451H389.337a2.39,2.39,0,0,1-1.726-4.041L412.46,275.1a7.318,7.318,0,0,1,10,0l24.864,26.035a2.3,2.3,0,0,1,.461,2.583" transform="translate(141.614 -258.144)" fill="#fff"/>
        <path id="Path_2407" data-name="Path 2407" d="M444.114,258.291a13.783,13.783,0,0,0-10.05,4.3l-62.8,65.782a9.37,9.37,0,0,0,6.79,15.837h132.1a9.37,9.37,0,0,0,6.783-15.843l-62.789-65.775a13.772,13.772,0,0,0-10.041-4.3m68.243,77.49a2.29,2.29,0,0,1-2.2,1.448h-132.1a2.392,2.392,0,0,1-1.735-4.041l62.789-65.775a7.318,7.318,0,0,1,10,0L511.9,333.185a2.29,2.29,0,0,1,.461,2.6" transform="translate(116.488 -275.25)" fill="#fff"/>
        <path id="Path_2408" data-name="Path 2408" d="M316.461,312.146H372.7a9.361,9.361,0,0,0,6.773-15.83l-24.848-26.042a13.9,13.9,0,0,0-20.1,0L309.678,296.31a9.367,9.367,0,0,0,6.783,15.837m58.438-8.428a2.294,2.294,0,0,1-2.2,1.451H316.461a2.384,2.384,0,0,1-1.735-4.035L339.581,275.1a6.871,6.871,0,0,1,5-2.067h.01a6.9,6.9,0,0,1,4.993,2.058l24.858,26.045a2.3,2.3,0,0,1,.461,2.583" transform="translate(-20.584 -258.144)" fill="#fff"/>
        <path id="Path_2409" data-name="Path 2409" d="M371.067,258.292a13.792,13.792,0,0,0-10.05,4.293L298.237,328.36a9.37,9.37,0,0,0,6.773,15.843H437.129A9.374,9.374,0,0,0,443.9,328.36l-62.785-65.775a13.792,13.792,0,0,0-10.05-4.293m5,9.118,62.786,65.775a2.387,2.387,0,0,1-1.726,4.041H305.011a2.39,2.39,0,0,1-1.726-4.041l62.779-65.775a7.333,7.333,0,0,1,10.005,0" transform="translate(-46.044 -275.248)" fill="#fff"/>
        <path id="Path_2410" data-name="Path 2410" d="M261.648,270.272,236.8,296.311a9.36,9.36,0,0,0,6.767,15.833h56.244a9.368,9.368,0,0,0,6.783-15.833l-24.858-26.029a13.889,13.889,0,0,0-20.091-.01m-19.8,30.861,24.848-26.042a7.1,7.1,0,0,1,10,0l24.858,26.039a2.394,2.394,0,0,1-1.735,4.038H243.57a2.39,2.39,0,0,1-1.726-4.038" transform="translate(-182.778 -258.141)" fill="#fff"/>
        <path id="Path_2411" data-name="Path 2411" d="M298.335,258.291a13.775,13.775,0,0,0-10.047,4.3l-62.782,65.775a9.37,9.37,0,0,0,6.776,15.843H364.391a9.366,9.366,0,0,0,6.773-15.843l-62.779-65.775a13.777,13.777,0,0,0-10.05-4.3m68.253,77.49a2.29,2.29,0,0,1-2.2,1.448H232.282a2.392,2.392,0,0,1-1.729-4.041l62.779-65.775a7.337,7.337,0,0,1,10.008,0l62.785,65.775a2.3,2.3,0,0,1,.461,2.593" transform="translate(-207.899 -275.25)" fill="#fff"/>
        <path id="Path_2412" data-name="Path 2412" d="M188.76,270.279l-24.848,26.032a9.366,9.366,0,0,0,6.783,15.833h56.235a9.362,9.362,0,0,0,6.783-15.827L208.86,270.272a13.9,13.9,0,0,0-20.1.007M198.8,273.03h.006a6.922,6.922,0,0,1,5,2.058l24.858,26.045a2.394,2.394,0,0,1-1.742,4.038H170.694a2.39,2.39,0,0,1-1.735-4.041l24.848-26.035a6.881,6.881,0,0,1,5-2.064" transform="translate(-344.972 -258.141)" fill="#fff"/>
        <path id="Path_2413" data-name="Path 2413" d="M225.3,258.291a13.775,13.775,0,0,0-10.047,4.3l-62.789,65.782a9.369,9.369,0,0,0,6.783,15.837H291.359a9.374,9.374,0,0,0,6.783-15.843L235.353,262.59a13.768,13.768,0,0,0-10.05-4.3m68.252,77.487a2.294,2.294,0,0,1-2.2,1.451H159.25a2.391,2.391,0,0,1-1.729-4.041L220.3,267.4a6.949,6.949,0,0,1,5-2.061h.016a6.855,6.855,0,0,1,4.98,2.071l62.789,65.772a2.308,2.308,0,0,1,.468,2.593" transform="translate(-370.439 -275.25)" fill="#fff"/>
        <path id="Path_2414" data-name="Path 2414" d="M138.11,340.8l116.9-118.2L370.409,337.82l6.338-2.235,110-112.982,6.338,1.864L601.963,335.584l10.26,1.49L719.416,222.6h7.473L834.356,334.836l11.092,2.239L956.008,222.6h6.977l109.121,112.234,5.964,1.864,110.137-112.6,11.1,2.345,105.522,109.515,12.3.374L1423.77,224.467h9.321L1541.6,337.075l10.815-1.864,104.79-110.37,8.934-2.238,108.506,113.353h11.179L1894.948,224.1l7.215.745,114.7,118.572-1.719,38.779-11.063,7.086L1904.047,287.11l-9.1-2.238L1785.82,396.289H1776.5L1668,285.991l-8.947-1.119L1552.037,398.225h-10.066L1432.346,284.5l-8.951.745-109.25,112.979h-4.287l-112.8-112.608-8.857,1.493-104.5,108.425-10.066,2.69-112.9-114.1-7.17,1.864L849.547,395.535l-11.557,2.69-110.744-114.1-7.086,1.864-106.267,110.3-10.815,1.935L492.71,283.382h-5.7L377.492,398.225H367.426L258.372,285.246h-6.909L153.4,387.039H141.181Z" transform="translate(-396.576 -354.671)" fill="#eb7e23"/>
        <path id="Path_2415" data-name="Path 2415" d="M136.9,380.251a13.223,13.223,0,0,0,7.657,12.166c4.986,2.354,12.44.422,16.246-3.561l92.246-96.642a6.893,6.893,0,0,1,9.4.006l102.929,107.8a13.763,13.763,0,0,0,19.5,0L488.518,291.456a5.493,5.493,0,0,1,7.947,0L600.11,400.023a13.513,13.513,0,0,0,9.76,4.048h.006a13.507,13.507,0,0,0,9.738-4.048L722.533,292.208a6.509,6.509,0,0,1,4.693-1.935h.006a6.507,6.507,0,0,1,4.7,1.948l102.922,107.8a13.759,13.759,0,0,0,19.494,0l102.922-107.8a6.654,6.654,0,0,1,9.4,0l102.919,107.8a13.509,13.509,0,0,0,9.754,4.048h.006a13.507,13.507,0,0,0,9.737-4.048L1192,292.208a6.561,6.561,0,0,1,4.706-1.935h.007a6.486,6.486,0,0,1,4.7,1.948l102.912,107.8a13.513,13.513,0,0,0,9.76,4.048h.01a13.518,13.518,0,0,0,9.738-4.048l102.919-107.8a6.654,6.654,0,0,1,9.4,0l102.919,107.8a13.509,13.509,0,0,0,9.754,4.048h.013a13.492,13.492,0,0,0,9.731-4.048l102.919-107.815a6.507,6.507,0,0,1,4.69-1.935h.01a6.507,6.507,0,0,1,4.7,1.948l102.919,107.8a13.479,13.479,0,0,0,19.5,0l102.922-107.8a6.5,6.5,0,0,1,4.7-1.945h.01a6.472,6.472,0,0,1,4.69,1.945l92.93,97.342,1.645,1.713v-.242a13.263,13.263,0,0,0,13.714,1.477c4.948-2.219,7.867-7.467,7.867-12.892V347.71a13.485,13.485,0,0,0-3.732-9.308L1910.667,225.926a13.5,13.5,0,0,0-9.731-4.048h-.016a13.5,13.5,0,0,0-9.75,4.048L1788.247,333.731a6.476,6.476,0,0,1-4.7,1.942h-.007a6.489,6.489,0,0,1-4.7-1.942L1675.932,225.926a13.506,13.506,0,0,0-9.75-4.041h-.01a13.471,13.471,0,0,0-9.737,4.041L1553.516,333.731a6.482,6.482,0,0,1-4.706,1.942h-.006a6.5,6.5,0,0,1-4.69-1.942L1441.195,225.926a13.518,13.518,0,0,0-9.744-4.048h-.01a13.5,13.5,0,0,0-9.75,4.048L1318.779,333.731a6.493,6.493,0,0,1-4.706,1.942h-.006a6.5,6.5,0,0,1-4.69-1.942L1206.454,225.926a13.779,13.779,0,0,0-19.5,0L1084.038,333.731a6.481,6.481,0,0,1-4.7,1.942h-.01a6.487,6.487,0,0,1-4.7-1.942L971.717,225.926a13.5,13.5,0,0,0-9.731-4.048h-.016a13.518,13.518,0,0,0-9.75,4.048L849.307,333.731a6.539,6.539,0,0,1-4.712,1.935h-.006a6.509,6.509,0,0,1-4.693-1.935L736.983,225.926a13.787,13.787,0,0,0-19.5,0l-102.9,107.805a6.518,6.518,0,0,1-4.712,1.942h-.01a6.517,6.517,0,0,1-4.7-1.942L502.245,225.926a13.507,13.507,0,0,0-9.737-4.048H492.5a13.508,13.508,0,0,0-9.76,4.048L379.819,333.731a6.677,6.677,0,0,1-9.4,0L267.5,225.926a13.507,13.507,0,0,0-9.744-4.048h-.006A13.509,13.509,0,0,0,248,225.926L140.615,338.411a13.439,13.439,0,0,0-3.716,9.305Zm6.977,0V347.7a6.494,6.494,0,0,1,1.793-4.477l107.38-112.479a6.666,6.666,0,0,1,9.4,0l102.919,107.8a13.49,13.49,0,0,0,9.754,4.057h.006a13.494,13.494,0,0,0,9.747-4.048L487.789,230.745a6.9,6.9,0,0,1,9.409,0l102.913,107.8a13.533,13.533,0,0,0,9.754,4.057h.006a13.481,13.481,0,0,0,9.744-4.048L722.533,230.745a6.9,6.9,0,0,1,9.4,0l102.922,107.8a13.748,13.748,0,0,0,19.494.01L957.258,230.745a6.523,6.523,0,0,1,4.712-1.932h.01a6.475,6.475,0,0,1,4.69,1.935l102.919,107.8a13.527,13.527,0,0,0,9.744,4.057h.01a13.492,13.492,0,0,0,9.744-4.048l102.929-107.809a6.654,6.654,0,0,1,9.392,0l102.912,107.8a13.533,13.533,0,0,0,9.754,4.057h.006a13.5,13.5,0,0,0,9.747-4.048l102.912-107.809a6.512,6.512,0,0,1,4.712-1.932h.006a6.47,6.47,0,0,1,4.69,1.935l102.912,107.8a13.759,13.759,0,0,0,19.5.01l102.919-107.809a6.9,6.9,0,0,1,9.4,0l102.919,107.8a13.528,13.528,0,0,0,9.747,4.057h.007a13.482,13.482,0,0,0,9.744-4.048l102.912-107.809a6.523,6.523,0,0,1,4.712-1.932h.016a6.461,6.461,0,0,1,4.683,1.935L2013,343.214a6.526,6.526,0,0,1,1.8,4.5v32.534a6.5,6.5,0,0,1-11.2,4.49l-92.927-97.349a13.491,13.491,0,0,0-9.738-4.032h-.01a13.525,13.525,0,0,0-9.75,4.032L1788.247,395.207a6.489,6.489,0,0,1-4.69,1.942h-.006a6.492,6.492,0,0,1-4.706-1.942L1675.926,287.4a13.479,13.479,0,0,0-19.491-.006L1553.516,395.207a6.88,6.88,0,0,1-9.4,0L1441.188,287.392a13.491,13.491,0,0,0-9.737-4.032h-.01a13.526,13.526,0,0,0-9.75,4.032L1318.779,395.207a6.88,6.88,0,0,1-9.4,0L1206.454,287.4a13.47,13.47,0,0,0-9.744-4.045h-.007a13.524,13.524,0,0,0-9.747,4.038L1084.038,395.207a6.489,6.489,0,0,1-4.69,1.942h-.006a6.493,6.493,0,0,1-4.706-1.942L971.717,287.392a13.491,13.491,0,0,0-9.737-4.032h-.01a13.531,13.531,0,0,0-9.75,4.032L849.3,395.207a6.674,6.674,0,0,1-9.405,0L736.976,287.4a13.47,13.47,0,0,0-9.744-4.045h-.006a13.525,13.525,0,0,0-9.747,4.038L614.566,395.207a6.9,6.9,0,0,1-9.408,0L496.465,281.354a5.493,5.493,0,0,0-7.947,0l-108.7,113.853a6.909,6.909,0,0,1-9.4,0L267.5,287.392a13.8,13.8,0,0,0-19.5,0l-92.93,97.349a6.5,6.5,0,0,1-11.2-4.49" transform="translate(-399.272 -356.283)" fill="#fff"/>
        <path id="Path_2416" data-name="Path 2416" d="M2016.209,372.723l5.042-4.825-110.8-116.062a13.5,13.5,0,0,0-9.737-4.035h-.007a13.535,13.535,0,0,0-9.753,4.035L1788.035,359.647a6.46,6.46,0,0,1-4.69,1.938h-.006a6.513,6.513,0,0,1-4.706-1.938L1675.714,251.841a13.779,13.779,0,0,0-19.491-.006L1553.3,359.647a6.9,6.9,0,0,1-9.4,0L1440.974,251.835a13.5,13.5,0,0,0-9.738-4.035h-.006a13.535,13.535,0,0,0-9.754,4.035L1318.564,359.647a6.9,6.9,0,0,1-9.4,0L1206.243,251.841a13.463,13.463,0,0,0-9.738-4.041h-.016a13.507,13.507,0,0,0-9.744,4.035L1083.826,359.647a6.466,6.466,0,0,1-4.69,1.938h-.01a6.506,6.506,0,0,1-4.7-1.938L971.5,251.835a13.5,13.5,0,0,0-9.738-4.035h-.006a13.527,13.527,0,0,0-9.75,4.035L849.1,359.647a6.528,6.528,0,0,1-4.712,1.938h-.01a6.478,6.478,0,0,1-4.69-1.938L736.765,251.841a13.463,13.463,0,0,0-9.737-4.041h-.016a13.507,13.507,0,0,0-9.744,4.035L614.355,359.647a6.9,6.9,0,0,1-9.408,0L502.024,251.835a13.5,13.5,0,0,0-9.737-4.035h-.006a13.524,13.524,0,0,0-9.754,4.035L379.608,359.647a6.669,6.669,0,0,1-9.4,0L267.287,251.835a13.794,13.794,0,0,0-19.5,0L137.649,367.21l-.655.687,5.038,4.825L252.837,256.657a6.89,6.89,0,0,1,9.4,0L365.168,364.469a13.475,13.475,0,0,0,9.744,4.042h.006a13.514,13.514,0,0,0,9.744-4.042L487.575,256.657a6.5,6.5,0,0,1,4.7-1.945h.006a6.509,6.509,0,0,1,4.706,1.948L599.905,364.469a13.482,13.482,0,0,0,9.744,4.042h.01a13.509,13.509,0,0,0,9.744-4.042L722.322,256.657a6.666,6.666,0,0,1,9.4,0L834.646,364.469a13.467,13.467,0,0,0,9.744,4.042h.006a13.5,13.5,0,0,0,9.737-4.042L957.052,256.66a6.9,6.9,0,0,1,9.405,0l102.925,107.809a13.488,13.488,0,0,0,9.744,4.042h.01a13.51,13.51,0,0,0,9.737-4.042l102.913-107.812a6.526,6.526,0,0,1,4.712-1.935h.006a6.461,6.461,0,0,1,4.69,1.938l102.912,107.809a13.516,13.516,0,0,0,9.754,4.042h.006a13.5,13.5,0,0,0,9.744-4.042L1426.534,256.66a6.9,6.9,0,0,1,9.4,0l102.919,107.809a13.492,13.492,0,0,0,9.754,4.042h.006a13.5,13.5,0,0,0,9.737-4.042l102.919-107.812a6.666,6.666,0,0,1,9.4,0l102.919,107.809a13.516,13.516,0,0,0,9.754,4.042h.006a13.505,13.505,0,0,0,9.738-4.042L1896,256.66a6.5,6.5,0,0,1,4.7-1.938h.006a6.475,6.475,0,0,1,4.7,1.938l110.144,115.372Z" transform="translate(-399.06 -298.597)" fill="#f8dc00"/>
      </g>
    </g>
  </g>
</svg>
