<svg xmlns="http://www.w3.org/2000/svg" xmlns:xlink="http://www.w3.org/1999/xlink" width="724" height="909" viewBox="0 0 724 909">
  <defs>
    <clipPath id="clip-path">
      <rect id="Rectangle_147" data-name="Rectangle 147" width="724" height="909" transform="translate(1051 2084)" fill="#fff" stroke="#707070" stroke-width="1"/>
    </clipPath>
    <clipPath id="clip-path-2">
      <rect id="Rectangle_98" data-name="Rectangle 98" width="1919.997" height="2521.226" fill="none"/>
    </clipPath>
    <clipPath id="clip-path-3">
      <path id="Path_2354" data-name="Path 2354" d="M785.186,1191.819l1.6.045c-.868.945-1.787,1.858-2.729,2.764a19.707,19.707,0,0,0,1.126-2.809m-9.928-14.137,7.76,4.658a6.145,6.145,0,0,1-3.406,4.632,13.68,13.68,0,0,0-3.455,1.087c-1.019.174-1.983.248-2.741.306l.361.942c-.964.571-1.993,1.242-3.125,2.061l3.964.122,2.748,7.144a5.39,5.39,0,0,0,2.29.026c-9.686,8.515-20.6,16.907-22.629,32.267.371.061.751.148,1.135.242A96.578,96.578,0,0,0,747,1257.84c-1.539,2.18,3.912,7.873,10.8,13.169.036.519.061,1.01.113,1.561,5.044,4.232,9.386,6.393,13.214,6.98,2.987,1.487,5.541,2.374,7.128,2.28a38.849,38.849,0,0,0,10.837-7.818V1188.82c-1.042-.29-1.99-.623-2.9-.935,1.964-9.87,1.426-23.642,1.687-28.906Zm13.84-31.825v-22.342c-4.786,4.084-6.622-3.416-12.844-4.37,1.461,13.337,2.593,23.513,12.844,26.713m-5.79-30.78a42.428,42.428,0,0,1-2.7,4.741c.926-1.7,1.851-3.306,2.7-4.741M752.781,918.9a24.785,24.785,0,0,1-1.18,3.213c.361-1.094.745-2.171,1.18-3.213M645.114,263.549c9.283,27.277,21.533,53.912,34.518,79.251-12.7,8.651-30.157,22.768-29.012,40.8-.606,49.642-6.838,117.927,42.962,147.907-13.344,17.924-11.986,35.953-4.029,44.568A107.727,107.727,0,0,1,711.5,611.92c-.042,1-.081,2-.129,3-.709,15.588-1.919,31.564-1.242,47.146s3.129,30.78,9.476,44.82a6.025,6.025,0,0,0,.442-.774c-.726,19.626-1.51,39.179.31,57.78,10.534,35.4,3.854,76.522,16.069,102.587,10.944,17.336,14.211,33.738,16.9,49.516-2.958,5.9-4.906,12.518-3.651,18.888a38.831,38.831,0,0,1,1.106-9.886l4.025-.323c.758,4.332,1.574,8.625,2.6,12.879-4.884,20.82-5.535,45.026-17.711,53.409,18.22,5.619,14.924-10.279,13.337-24.587,3.209,15.559,9.038,33.792,10.24,50.99-3.693-6.386-11.431-10.105-3.729-19.13-6.212-3.048-10.341-.874-14.062,4.819,5.912,15.092-1.168,46.072,12.192,45.668a40.347,40.347,0,0,1-4.7,6.689l-2.69,2.874,12.4,6.051-2.506,3.816a49.08,49.08,0,0,0,4.758-3.745c4.325,19.8,2.7,42.111,15.659,55.415,3.229.994,6.025,1.719,8.492,2.242V263.549Z" transform="translate(-645.114 -263.549)" fill="none"/>
    </clipPath>
    <clipPath id="clip-path-5">
      <path id="Path_2388" data-name="Path 2388" d="M94.478,1256.212c.955-1.622,1.932-3.174,2.942-4.641a227.841,227.841,0,0,0,23.561-16.279c13.4-10.221,22.778,6.677,26.909,10.782,21.688-17.626,28.519-44.139,29.286-73.436.8-29.309-4.483-61.344-6.6-90.327-1.216-8.834-19.9-11.282-21.13-20.123q4.524-7.252,9.021-14.469c-1.193-8.86-6.654-21.732-3.625-26.571,12-19.291,10.476-43.778,6.686-68.552-3.7-24.781-9.712-49.89-6.867-70.3,3.925-27.213-6.677-52.99.468-84.889,11.4-27.858-4.251-66.52-8.086-101.851q-6.164-6.154-12.347-12.318c-2.542-6.467-1.716-15.453-.732-23.336,1.006-7.886,2.132-14.66.087-16.714-23.329-47.165-17.262-96.687-31.909-135.741-2.887-10.415-5.393-20.859-7.67-31.293Z" transform="translate(-94.478 -476.158)" fill="none"/>
    </clipPath>
    <clipPath id="clip-path-7">
      <path id="Path_2417" data-name="Path 2417" d="M218.245,263.549c14.624,23.107,39.624,33.228,68.1,37.889,28.929,4.78,61.382,3.893,90.382,5.738,8.921-.01,13.885-18.191,22.807-18.2l13.111,10.9a90.179,90.179,0,0,0,9.992-.8c6.96-.806,13.908-1.616,16.827.816,17.482,14.508,41.949,16.324,67.007,15.94,25.052-.3,50.745-2.848,70.575,2.738,26.432,7.586,53.409.581,84.044,11.992,18.036,10.437,42.962,8.734,68.381,7.031,11.3-.758,22.694-1.516,33.621-1.209q6.933-5.274,13.882-10.56c6.751-1.638,15.543.4,23.216,2.442,7.68,2.071,14.237,4.106,16.55,2.358,28.587-9.573,56.635-9.479,83.025-9.386,19.668.071,38.417.139,55.793-3.793,20.23-2.729,40.379-4.106,60.324-5.154,19.943-.926,39.679-1.516,59.1-2.816,19.42-1.355,38.524-3.109,57.225-6.77,1.19-.229,2.38-.487,3.571-.735l3.251,8.831c6.344-4.506,12.592-7.747,14.179-13q3.377-.934,6.738-1.961c1.006-.306,2.006-.645,3.009-.961,9.673,4.041,17.775,2.238,24.068-9.121,7.254,4.229,2.493,7.609,6.628,11.492a113.238,113.238,0,0,1,35.16-4.274c3.622,3.467,8.947,6.044,20.268,5.8l.345-3.706a174.753,174.753,0,0,1,26.5,6.738c27.077,9.112,51.235,24.642,65.066,42.1,10.324-13.785,21.6-14.753,33.18-13.421s23.461,5.1,35.1.571c13.672-2.513,28.761-7.644,43.069-10.566,14.3-2.832,27.816-3.458,38.276,2.938,34.173,16,63.666,10.063,90.743-4.08.984-.039,1.964-.071,2.945-.132q1.814-1.713,3.58-3.448,1.475-.852,2.945-1.726c25.493-15.166,48.955-36.169,71.971-50.5Z" transform="translate(-218.245 -263.549)" fill="none"/>
    </clipPath>
    <clipPath id="clip-path-8">
      <rect id="Rectangle_102" data-name="Rectangle 102" width="706.441" height="1133.306" fill="none"/>
    </clipPath>
  </defs>
  <g id="Mask_Group_15" data-name="Mask Group 15" transform="translate(-1051 -2084)" clip-path="url(#clip-path)">
    <g id="Group_275" data-name="Group 275" transform="translate(-94.478 816.451)">
      <g id="Group_264" data-name="Group 264" transform="translate(94.478 263.549)">
        <g id="Group_263" data-name="Group 263" clip-path="url(#clip-path-2)">
          <path id="Path_2341" data-name="Path 2341" d="M686.6,646.328c-1.619-5.025-.39-13.421,6.922-11.821l-8.915-6.635.658,23.481c6.9-4.922,11.024-12.989,21.907-13.559l.677-10.2c-5.531,10.225-14.166,13.637-21.249,18.736" transform="translate(1218.791 546.589)" fill="#264d9d"/>
          <path id="Path_2342" data-name="Path 2342" d="M698.818,620.627,700,615.473c-4.4-.893-8,3.687-11.428,7.535,3.387-.968,6.819-.329,10.189-.036,5.654.481,11.112-.061,15.592-11.363-4.087,5.283-8.167,10.511-15.537,9.018" transform="translate(1227.617 511.02)" fill="#264d9d"/>
          <path id="Path_2343" data-name="Path 2343" d="M693.318,615.143a13.386,13.386,0,0,0-6.876,4.883c2.342-.042,4.57-2.3,6.876-4.883" transform="translate(1222.872 518.885)" fill="#264d9d"/>
          <path id="Path_2344" data-name="Path 2344" d="M678.671,542.6a19,19,0,0,0-.348,3.6l2.983-1.532c-.664-.655-1.8-1.377-2.635-2.068" transform="translate(1204.799 357.448)" fill="#264d9d"/>
          <path id="Path_2345" data-name="Path 2345" d="M686.919,535.9l-9.734,18.459a28.688,28.688,0,0,1,4.012,3.167c1.745-11.5,12.369-9.279,5.722-21.626" transform="translate(1202.272 342.527)" fill="#264d9d"/>
          <path id="Path_2346" data-name="Path 2346" d="M680.562,586.791a63.74,63.74,0,0,0,5.677-44.385L680.9,545.1c12.182,12.756-8.76,22.249-.335,41.695" transform="translate(1205.203 357.017)" fill="#264d9d"/>
          <path id="Path_2347" data-name="Path 2347" d="M624.854,235.647c15.753,15.375,25.074,39.585,31.444,62.579-1.377,1.768-2.751,3.532-4.119,5.315a69.3,69.3,0,0,1,9.492,16.3c1.722,7.576,3.216,14.585,4.632,20.552a451.04,451.04,0,0,0-3.613,102.051c1.164,16.314,2.9,32.367,5.064,48.274,2.2,15.9,4.712,31.673,7.228,47.439,5.873,49.558,26.642,98.729,49.739,143.791-12.705,8.651-30.161,22.768-29.016,40.8-.606,49.645-6.838,117.93,42.962,147.91-13.344,17.924-11.989,35.953-4.029,44.568a107.747,107.747,0,0,1,21.949,35.837q-.063,1.5-.129,3c-.709,15.592-1.919,31.567-1.242,47.146s3.129,30.78,9.479,44.823a6.7,6.7,0,0,0,.439-.774c-.726,19.623-1.51,39.179.306,57.776,10.537,35.4,3.854,76.526,16.072,102.59,10.944,17.336,14.208,33.734,16.9,49.513-2.958,5.906-4.906,12.521-3.651,18.888a38.665,38.665,0,0,1,1.106-9.883l4.025-.326c.758,4.335,1.577,8.628,2.6,12.882-4.884,20.82-5.538,45.026-17.711,53.409,18.217,5.619,14.924-10.279,13.337-24.59,3.212,15.559,9.038,33.792,10.24,50.99-3.693-6.383-11.434-10.1-3.729-19.127-6.212-3.051-10.344-.874-14.062,4.819,5.912,15.092-1.168,46.072,12.192,45.665a40.415,40.415,0,0,1-4.7,6.689l-2.687,2.877,12.4,6.051-2.506,3.816a48.542,48.542,0,0,0,4.754-3.748c4.325,19.8,2.7,42.114,15.666,55.418.923-1.7,1.848-3.309,2.7-4.741a43.012,43.012,0,0,1-2.7,4.741,95.174,95.174,0,0,0,9.7,2.487c-5.728,6.531-7.335-2.132-14.05-3.164,1.545,14.082,2.719,24.642,14.646,27.187l1.293-23.687a33.519,33.519,0,0,0,9.892.345c8.428,6.809,15.279,12.46,13.314,15.4-5.115,19.765-15.237,35.689-26.251,50.448-1.061-.293-2.029-.632-2.958-.951,1.967-9.867,1.429-23.639,1.687-28.906l-12.621,18.707,7.76,4.658a6.151,6.151,0,0,1-3.4,4.628,13.926,13.926,0,0,0-3.458,1.087c-1.022.177-1.983.252-2.741.31l.361.942c-.964.568-1.993,1.242-3.125,2.061l3.964.122,2.748,7.141a5.393,5.393,0,0,0,2.29.029c-9.686,8.512-20.6,16.907-22.626,32.267.368.061.751.148,1.135.242a96.538,96.538,0,0,0-11.166,26.667c-1.535,2.184,3.916,7.876,10.8,13.169.039.519.064,1.013.116,1.564,5.041,4.232,9.389,6.393,13.218,6.98,2.984,1.487,5.538,2.371,7.125,2.277,10.537-4.98,17.888-15.233,24.158-26.51.648-1.161,1.284-2.335,1.913-3.512l.248,2.787,1.277-1.864c-.5-.5-.916-.936-1.3-1.335,5.4-10.118,10.218-20.623,15.927-28.522a227.316,227.316,0,0,0,23.939-15.724c13.634-9.9,22.613,7.209,26.648,11.411,22.094-17.117,29.545-43.462,31-72.729,1.487-29.283-3.045-61.434-4.477-90.456-1.013-8.863-19.636-11.75-20.656-20.613q4.693-7.151,9.36-14.253c-.987-8.889-6.145-21.884-3-26.651,12.447-19,11.5-43.52,8.292-68.375-3.119-24.861-8.544-50.106-5.222-70.439,4.564-27.113-5.435-53.132,2.458-84.857,12.047-27.58-2.693-66.6-5.7-102.01q-6.023-6.294-12.06-12.6c-2.387-6.525-1.352-15.492-.184-23.345,1.193-7.86,2.477-14.608.481-16.707-22.223-47.7-14.995-97.068-28.722-136.453-4.99-19.791-8.625-39.659-11.908-59.36-3.167-19.714-5.977-39.256-9.457-58.405-3.532-19.146-7.425-37.931-13.166-56.1-.365-1.161-.755-2.309-1.132-3.464l8.409-4.225c-5.193-5.8-9.115-11.64-14.508-12.631q-1.311-3.251-2.709-6.47c-.416-.968-.865-1.922-1.293-2.883,2.929-10.066.226-17.914-11.769-22.891,3.38-7.683,7.28-3.332,10.669-7.876a113.429,113.429,0,0,1-8.205-34.454c3.042-3.993,5-9.573,3.487-20.794l-3.725.074a175.2,175.2,0,0,1,3.716-27.09c6.006-27.932,18.717-53.683,34.508-69.391-14.859-8.709-17.088-19.8-17.069-31.46s2.423-23.884-3.386-34.941c-4.032-13.3-10.831-27.719-15.343-41.608-4.425-13.892-6.57-27.248-1.387-38.359,12.053-35.757,2.832-64.4-14.269-89.708-.152-.974-.3-1.948-.468-2.916q-1.9-1.6-3.825-3.167-1.011-1.369-2.048-2.732C792,159.9,763.62,136.056,746.955,111.15c-43.543,8.2-94.327,16.288-104.58,65.862a79.116,79.116,0,0,0-.842,22.8,329.539,329.539,0,0,0-16.678,35.837M830.273,1530.963l1.6.048c-.868.942-1.79,1.858-2.729,2.764a19.606,19.606,0,0,0,1.126-2.812m-32.406-272.916a25.249,25.249,0,0,1-1.177,3.213c.355-1.094.742-2.171,1.177-3.213" transform="translate(1085.815 -602.696)" fill="#264d9d"/>
        </g>
      </g>
      <g id="Group_266" data-name="Group 266" transform="translate(1870.494 263.549)">
        <g id="Group_265" data-name="Group 265" clip-path="url(#clip-path-3)">
          <path id="Path_2348" data-name="Path 2348" d="M682.625,373.185a13.778,13.778,0,0,0,5.4,9.505l72.432,54.98a9.367,9.367,0,0,0,14.969-8.518l-14.869-131.27a9.369,9.369,0,0,0-16.5-4.951L685.77,362.722a13.734,13.734,0,0,0-3.145,10.463m69.314-76.538a2.3,2.3,0,0,1,1.687,2.019l14.869,131.27a2.39,2.39,0,0,1-3.822,2.177l-72.429-54.974a6.939,6.939,0,0,1-2.613-4.748l0-.013a6.864,6.864,0,0,1,1.5-5.183L749.407,297.4a2.319,2.319,0,0,1,2.532-.758" transform="translate(-561.841 -205.681)" fill="#fff"/>
          <path id="Path_2349" data-name="Path 2349" d="M674.4,300.612a13.8,13.8,0,0,0,5.4,9.505l72.426,54.977a9.371,9.371,0,0,0,14.979-8.515l-14.872-131.27a9.372,9.372,0,0,0-16.5-4.957l-58.289,69.791a13.779,13.779,0,0,0-3.138,10.47m8.5-6,58.289-69.791a2.388,2.388,0,0,1,4.212,1.268l14.872,131.27a2.392,2.392,0,0,1-3.822,2.171l-72.426-54.977a7.334,7.334,0,0,1-1.125-9.941" transform="translate(-580.138 -367.184)" fill="#fff"/>
          <path id="Path_2350" data-name="Path 2350" d="M936.735,1929.562,806.126,1826.7l101.5-127.629-2.935-6.048-124.645-96.581,1.139-6.509,98.155-120.691.326-10.363-125.81-93.63-.842-7.425,99.426-119.417.974-11.273-126.19-96.971-.784-6.931,99.239-121.062,1.181-6.138L702.565,899.276l1.084-11.289,96.942-117.178-1.016-12.269L676.42,665.168l-1.048-9.26,99.677-120.494-3.071-10.534-121.462-91.7-3.229-8.625L747.708,303.979l-1.261-11.108L623.014,197.025l-.071-7.251L727.852,62.459,766.576,59.8,774.862,70,684.6,180.895l-1.2,9.289L806.4,286.078l1.052,9.257-97.384,120.23-.106,9.018,124.68,93.575,1.132,10.005L735.106,649.889l1.748,8.809,124.561,95.839.481,4.261L762.7,883.549l2.477,8.634,119.5,91.627,3.806,9.7-100.664,125.02,2.658,6.915,120.559,91.037,3.974,11.186L814.106,1350.55l2.648,6.828,121.562,93.178,3.138,10.528-101.69,122.594.642,5.664,126.442,95.894,1.132,10.005-99.987,121.078.777,6.864,112.186,85.986,1.377,12.14Z" transform="translate(-694.453 -716.968)" fill="#f8dc00"/>
          <path id="Path_2351" data-name="Path 2351" d="M799.876,1826.927v.006a13.521,13.521,0,0,0,5.109,9.237l127.039,96.455.758.571,4.225-5.551-127.8-97.033a6.9,6.9,0,0,1-1.058-9.344l95.542-114.408a13.786,13.786,0,0,0-2.2-19.375l-118.714-90.121a6.468,6.468,0,0,1-2.454-4.451v-.006a6.5,6.5,0,0,1,1.4-4.893l95.542-114.4a13.49,13.49,0,0,0,2.913-10.147v-.007a13.468,13.468,0,0,0-5.109-9.221l-118.714-90.13a6.664,6.664,0,0,1-1.055-9.334l95.543-114.4a13.78,13.78,0,0,0-2.2-19.372l-118.71-90.13a6.915,6.915,0,0,1-1.058-9.344l95.539-114.408a13.466,13.466,0,0,0,2.916-10.137v-.01a13.459,13.459,0,0,0-5.109-9.218L703.514,897.63a6.536,6.536,0,0,1-2.454-4.464v-.01a6.459,6.459,0,0,1,1.4-4.877L798,773.885a13.51,13.51,0,0,0,2.913-10.15v-.01a13.462,13.462,0,0,0-5.109-9.218l-118.711-90.13a6.911,6.911,0,0,1-1.058-9.344l95.539-114.4a13.5,13.5,0,0,0,2.916-10.144v-.016a13.477,13.477,0,0,0-5.109-9.212l-118.714-90.13a6.661,6.661,0,0,1-1.055-9.338l95.539-114.4a13.489,13.489,0,0,0,2.916-10.144v-.006a13.46,13.46,0,0,0-5.109-9.221l-118.71-90.13a6.666,6.666,0,0,1-1.058-9.344L725.434,66.119l.61-.739-5.361-4.464L617.832,184.081a13.786,13.786,0,0,0,2.193,19.365l118.71,90.13a6.879,6.879,0,0,1,1.058,9.344l-95.533,114.4a13.471,13.471,0,0,0-2.922,10.141v.006a13.467,13.467,0,0,0,5.109,9.221l118.711,90.13a6.654,6.654,0,0,1,1.058,9.341L670.676,650.569a13.792,13.792,0,0,0,2.193,19.372L791.58,760.064a6.654,6.654,0,0,1,1.058,9.341l-95.532,114.4a13.476,13.476,0,0,0-2.922,10.137v.01a13.5,13.5,0,0,0,5.109,9.228L818,993.312a6.872,6.872,0,0,1,1.058,9.341l-95.539,114.411a13.787,13.787,0,0,0,2.193,19.365l118.71,90.13a6.5,6.5,0,0,1,2.458,4.457v.007a6.461,6.461,0,0,1-1.4,4.877L749.95,1350.3a13.475,13.475,0,0,0-2.922,10.137v.01a13.527,13.527,0,0,0,5.109,9.228l118.71,90.124a6.665,6.665,0,0,1,1.061,9.347l-95.542,114.4a13.488,13.488,0,0,0-2.913,10.131v.006a13.531,13.531,0,0,0,5.109,9.244l118.71,90.13a6.9,6.9,0,0,1,1.058,9.341l-95.543,114.4a13.5,13.5,0,0,0-2.912,10.131" transform="translate(-712.51 -714.486)" fill="#f8dc00"/>
          <path id="Path_2352" data-name="Path 2352" d="M977.663,1931.626a13.211,13.211,0,0,0,11.224-8.976c1.777-5.219-.977-12.408-5.367-15.743l-106.409-80.783a6.893,6.893,0,0,1-1.055-9.341l95.536-114.408A13.781,13.781,0,0,0,969.4,1683l-119.549-90.762a5.5,5.5,0,0,1-.9-7.9l96.217-115.2a13.505,13.505,0,0,0,2.919-10.153v-.006a13.507,13.507,0,0,0-5.112-9.221l-118.717-90.13a6.487,6.487,0,0,1-2.451-4.441v-.006a6.5,6.5,0,0,1,1.4-4.886l95.536-114.4a13.779,13.779,0,0,0-2.193-19.375l-118.707-90.13a6.662,6.662,0,0,1-1.058-9.341l95.536-114.4a13.526,13.526,0,0,0,2.919-10.147v-.006a13.508,13.508,0,0,0-5.112-9.221L771.419,893.144a6.537,6.537,0,0,1-2.455-4.457v-.007a6.5,6.5,0,0,1,1.4-4.886L865.9,769.4a13.516,13.516,0,0,0,2.919-10.154v-.006a13.5,13.5,0,0,0-5.115-9.221L745,659.887a6.67,6.67,0,0,1-1.058-9.341l95.539-114.4A13.527,13.527,0,0,0,842.4,526l0-.013a13.47,13.47,0,0,0-5.112-9.215L718.571,426.643a6.483,6.483,0,0,1-2.451-4.445v-.006a6.508,6.508,0,0,1,1.4-4.886l95.536-114.4a13.486,13.486,0,0,0-2.2-19.372L692.155,193.4a6.51,6.51,0,0,1-2.454-4.457v-.006a6.461,6.461,0,0,1,1.4-4.88l86.266-103.3,1.516-1.829-.242.029a13.254,13.254,0,0,0-.074-13.795c-2.764-4.667-8.3-6.977-13.692-6.367l-31.709,3.593a13.479,13.479,0,0,0-8.828,4.754L624.661,186.5a13.487,13.487,0,0,0-2.928,10.125l0,.016a13.5,13.5,0,0,0,5.119,9.234l118.707,90.13a6.5,6.5,0,0,1,2.455,4.451v.006a6.5,6.5,0,0,1-1.4,4.886L651.083,419.744a13.518,13.518,0,0,0-2.919,10.147l0,.006a13.454,13.454,0,0,0,5.109,9.221l118.707,90.13a6.5,6.5,0,0,1,2.455,4.458v.006a6.5,6.5,0,0,1-1.4,4.88l-95.533,114.4a13.514,13.514,0,0,0-2.925,10.141v.006a13.507,13.507,0,0,0,5.119,9.234L798.406,762.5a6.5,6.5,0,0,1,2.454,4.458l0,.006a6.5,6.5,0,0,1-1.4,4.88l-95.53,114.4a13.783,13.783,0,0,0,2.19,19.375l118.707,90.13a6.5,6.5,0,0,1,2.455,4.448v.01a6.484,6.484,0,0,1-1.4,4.887l-95.53,114.4a13.457,13.457,0,0,0-2.929,10.125v.016a13.528,13.528,0,0,0,5.119,9.234l118.707,90.124a6.532,6.532,0,0,1,2.451,4.464l0,.006a6.492,6.492,0,0,1-1.4,4.88l-95.53,114.392a13.793,13.793,0,0,0,2.19,19.381l118.707,90.114a6.537,6.537,0,0,1,2.454,4.464l0,.01a6.5,6.5,0,0,1-1.4,4.886L783.2,1585.974a13.486,13.486,0,0,0-2.929,10.131v.006a13.51,13.51,0,0,0,5.119,9.244l118.707,90.13a6.669,6.669,0,0,1,1.055,9.344l-95.53,114.392a13.5,13.5,0,0,0-2.929,10.137l0,.01a13.49,13.49,0,0,0,5.115,9.234l123.861,94.043a13.439,13.439,0,0,0,9.663,2.642Zm-.784-6.931-32.344,3.664a6.5,6.5,0,0,1-4.651-1.277L816.03,1833.045a6.677,6.677,0,0,1-1.055-9.344l95.53-114.4a13.507,13.507,0,0,0,2.932-10.147l0-.01a13.471,13.471,0,0,0-5.115-9.224L789.607,1599.8a6.9,6.9,0,0,1-1.054-9.35l95.53-114.392a13.5,13.5,0,0,0,2.929-10.147v-.01a13.485,13.485,0,0,0-5.116-9.228l-118.71-90.127a6.9,6.9,0,0,1-1.055-9.338l95.53-114.4a13.763,13.763,0,0,0-2.187-19.375l-118.71-90.124a6.545,6.545,0,0,1-2.451-4.464v-.01a6.472,6.472,0,0,1,1.4-4.877l95.53-114.4a13.5,13.5,0,0,0,2.929-10.137v-.006a13.473,13.473,0,0,0-5.115-9.228l-118.714-90.14a6.658,6.658,0,0,1-1.052-9.334l95.53-114.392a13.5,13.5,0,0,0,2.929-10.147v-.006a13.464,13.464,0,0,0-5.119-9.228L683.917,666.815a6.546,6.546,0,0,1-2.451-4.464v-.01a6.485,6.485,0,0,1,1.393-4.877l95.533-114.392a13.766,13.766,0,0,0-2.19-19.381l-118.71-90.13a6.9,6.9,0,0,1-1.051-9.338l95.53-114.4a13.5,13.5,0,0,0,2.929-10.141v-.006a13.479,13.479,0,0,0-5.115-9.228l-118.71-90.124a6.52,6.52,0,0,1-2.451-4.464v-.016a6.455,6.455,0,0,1,1.393-4.87L729.686,71.621a6.5,6.5,0,0,1,4.267-2.3l32.331-3.664A6.5,6.5,0,0,1,772,76.288l-86.266,103.3a13.491,13.491,0,0,0-2.913,10.131v.006a13.531,13.531,0,0,0,5.106,9.238l118.714,90.13a6.483,6.483,0,0,1,2.458,4.441v.006a6.5,6.5,0,0,1-1.4,4.893l-95.539,114.4a13.482,13.482,0,0,0,2.19,19.368l118.71,90.13a6.876,6.876,0,0,1,1.061,9.341L738.581,646.079a13.491,13.491,0,0,0-2.913,10.131v.006a13.522,13.522,0,0,0,5.109,9.238l118.71,90.124a6.875,6.875,0,0,1,1.058,9.341l-95.539,114.4a13.475,13.475,0,0,0-2.919,10.137v.006A13.518,13.518,0,0,0,767.2,898.7l118.711,90.13a6.476,6.476,0,0,1,2.458,4.441v.007a6.469,6.469,0,0,1-1.4,4.893l-95.542,114.4a13.5,13.5,0,0,0-2.913,10.131v.007a13.535,13.535,0,0,0,5.109,9.237l118.71,90.13a6.669,6.669,0,0,1,1.058,9.341l-95.536,114.4a13.477,13.477,0,0,0-2.922,10.137l0,.006a13.5,13.5,0,0,0,5.109,9.231l118.71,90.121a6.9,6.9,0,0,1,1.058,9.35L838.92,1585.477a5.492,5.492,0,0,0,.9,7.9l125.361,95.194a6.907,6.907,0,0,1,1.058,9.341l-95.539,114.4a13.8,13.8,0,0,0,2.193,19.375l107.186,81.38a6.5,6.5,0,0,1-3.2,11.631" transform="translate(-697.345 -719.409)" fill="#d72028"/>
          <path id="Path_2353" data-name="Path 2353" d="M758.618,61.691l-5.36-4.464L650.4,180.382a13.514,13.514,0,0,0-2.912,10.131v.006a13.537,13.537,0,0,0,5.109,9.237l118.71,90.13a6.46,6.46,0,0,1,2.455,4.441v.006a6.518,6.518,0,0,1-1.4,4.893l-95.533,114.4a13.772,13.772,0,0,0,2.184,19.365l118.71,90.13a6.9,6.9,0,0,1,1.061,9.344L703.248,646.877a13.512,13.512,0,0,0-2.913,10.131v.006a13.55,13.55,0,0,0,5.109,9.237l118.711,90.121a6.9,6.9,0,0,1,1.058,9.344l-95.533,114.4a13.462,13.462,0,0,0-2.922,10.128l0,.016a13.492,13.492,0,0,0,5.106,9.228l118.71,90.13a6.468,6.468,0,0,1,2.455,4.445v.006a6.518,6.518,0,0,1-1.4,4.893l-95.542,114.4a13.507,13.507,0,0,0-2.912,10.128v.01a13.534,13.534,0,0,0,5.109,9.234L877,1222.86a6.534,6.534,0,0,1,2.458,4.464v.006a6.478,6.478,0,0,1-1.4,4.88l-95.533,114.4a13.465,13.465,0,0,0-2.922,10.131l0,.013a13.491,13.491,0,0,0,5.106,9.228l118.71,90.124a6.9,6.9,0,0,1,1.058,9.35l-95.54,114.4a13.5,13.5,0,0,0-2.916,10.128l0,.01a13.507,13.507,0,0,0,5.106,9.234l118.71,90.13a6.666,6.666,0,0,1,1.058,9.344l-95.539,114.4a13.791,13.791,0,0,0,2.193,19.372l127.039,96.456.758.574,4.229-5.551-127.8-97.036a6.89,6.89,0,0,1-1.055-9.341l95.539-114.411a13.475,13.475,0,0,0,2.916-10.137v-.007a13.509,13.509,0,0,0-5.109-9.228l-118.714-90.124a6.5,6.5,0,0,1-2.461-4.448v-.007a6.506,6.506,0,0,1,1.406-4.9l95.539-114.4a13.475,13.475,0,0,0,2.916-10.137v-.006a13.5,13.5,0,0,0-5.109-9.228l-118.714-90.13a6.661,6.661,0,0,1-1.054-9.338l95.539-114.408a13.468,13.468,0,0,0,2.916-10.137v-.006a13.506,13.506,0,0,0-5.109-9.221l-118.71-90.13a6.894,6.894,0,0,1-1.058-9.344L857,1003.427a13.493,13.493,0,0,0,2.916-10.137v-.006a13.5,13.5,0,0,0-5.109-9.221L736.089,893.938a6.511,6.511,0,0,1-2.454-4.464v-.006a6.468,6.468,0,0,1,1.4-4.88L830.573,770.2a13.51,13.51,0,0,0,2.916-10.147v-.007a13.518,13.518,0,0,0-5.109-9.228l-118.711-90.13a6.9,6.9,0,0,1-1.061-9.344l95.542-114.4a13.505,13.505,0,0,0,2.916-10.144l0-.006a13.48,13.48,0,0,0-5.109-9.221l-118.714-90.13a6.66,6.66,0,0,1-1.052-9.334l95.539-114.4a13.537,13.537,0,0,0,2.916-10.147v-.006a13.524,13.524,0,0,0-5.109-9.221L656.825,194.2a6.487,6.487,0,0,1-2.458-4.448v-.006a6.491,6.491,0,0,1,1.4-4.886L758.008,62.426Z" transform="translate(-640.024 -722.696)" fill="#f8dc00"/>
        </g>
      </g>
      <g id="Group_268" data-name="Group 268" transform="translate(94.478 263.549)">
        <g id="Group_267" data-name="Group 267" clip-path="url(#clip-path-2)">
          <path id="Path_2355" data-name="Path 2355" d="M94.676,801.29c17.278-4.009,3.793-12.07,17.594-22.971L109.142,775c-4.754,8.825-9.534,17.6-14.466,26.29" transform="translate(-94.037 874.629)" fill="#264d9d"/>
          <path id="Path_2356" data-name="Path 2356" d="M117.73,753.6a4.657,4.657,0,0,1,.142.49.151.151,0,0,1,.084-.061c19.359-8.783,9.144-22.207,23.607-36.028l-20.246,1.838c4.435,13.769-9.144,18.643-3.587,33.76" transform="translate(-45.756 747.788)" fill="#264d9d"/>
          <path id="Path_2357" data-name="Path 2357" d="M126.642,659.7a9.057,9.057,0,0,0,1.577,1.216,10.148,10.148,0,0,0-1.577-1.216" transform="translate(-22.901 618.035)" fill="#264d9d"/>
          <path id="Path_2358" data-name="Path 2358" d="M105.722,794.318c7.912,3.774-.922,15.121-.484,22.268,4.767-2.151,10.505-23.7,16.091-11.663-2.58-7.064-4.606-13.524,6.29-12.2-5.87-12.1-12.418,3.816-21.9,1.59" transform="translate(-70.568 903.869)" fill="#264d9d"/>
          <path id="Path_2359" data-name="Path 2359" d="M110.216,793.342c.671,1.835,1.38,3.712,1.909,5.506a35.293,35.293,0,0,0-1.909-5.506" transform="translate(-59.455 915.447)" fill="#264d9d"/>
          <path id="Path_2360" data-name="Path 2360" d="M108.68,798.11c-.461-7.644-.387-17.491-7.247-18.291,3.125,6.415-4.364,17.656,7.247,18.291" transform="translate(-79 885.353)" fill="#264d9d"/>
          <path id="Path_2361" data-name="Path 2361" d="M110.089,793.187l10.124-12.45L116,778.718Z" transform="translate(-59.739 882.901)" fill="#264d9d"/>
          <path id="Path_2362" data-name="Path 2362" d="M109.416,771.449,122.979,792.7l-3.5-23.868c-14.008-7.98-15.295.284-15.043,11.282a12.578,12.578,0,0,1,4.977-8.667" transform="translate(-72.369 853.831)" fill="#264d9d"/>
          <path id="Path_2363" data-name="Path 2363" d="M107.346,773.012c.194,7.331-.216,14.259-4.09,17.336l8.422,4.019c3.1-1.39-2.335-11.318-4.332-21.355" transform="translate(-74.944 870.205)" fill="#264d9d"/>
          <path id="Path_2364" data-name="Path 2364" d="M104.94,779.408c-.11-3.116-.226-6.3-.332-9.27a26.188,26.188,0,0,0,.332,9.27" transform="translate(-72.537 863.809)" fill="#264d9d"/>
          <path id="Path_2365" data-name="Path 2365" d="M118.065,762.154l-1.551-3.209L103.26,764.96c5.748,5.173,12.153-1.6,14.8-2.806" transform="translate(-74.935 838.898)" fill="#264d9d"/>
          <path id="Path_2366" data-name="Path 2366" d="M121.828,762.278c4.874-9.963-9.725-16.937-13.292-21.146-5.5,12.143-.381,19.559,1.558,30.328-1.922-10.773,6.441-6.812,11.734-9.183" transform="translate(-68.696 799.259)" fill="#264d9d"/>
          <path id="Path_2367" data-name="Path 2367" d="M111.65,736.58l9.07,19.111c12.3-11.328-3.954-11.731-9.07-19.111" transform="translate(-56.264 789.129)" fill="#264d9d"/>
          <path id="Path_2368" data-name="Path 2368" d="M103.095,728.569c-3.819,5.564,1.874,10.757,2.8,16.149l6.686-16.465c-2.116-1.01-5.332,2.357-9.486.316" transform="translate(-78.204 770.167)" fill="#264d9d"/>
          <path id="Path_2369" data-name="Path 2369" d="M11.148,395.047c16.108,15,25.993,38.985,32.9,61.827q-2,2.695-3.99,5.409a69.225,69.225,0,0,1,9.866,16.072c1.9,7.535,3.561,14.5,5.115,20.439A450.81,450.81,0,0,0,53.817,600.9c1.548,16.282,3.658,32.289,6.193,48.142,2.571,15.85,5.454,31.554,8.338,47.258,7.031,49.406,28.948,98.074,53.093,142.585-12.5,8.944-29.622,23.468-28.051,41.472C93.944,930,89.312,998.414,139.8,1027.22c-12.921,18.23-11.14,36.224-2.983,44.649a107.667,107.667,0,0,1,22.781,35.315q-.024,1.495-.058,3c-.345,15.6-1.177,31.6-.139,47.162,1.058,15.556,3.851,30.7,10.528,44.585a5.645,5.645,0,0,0,.419-.784c-.264,19.639-.59,39.2,1.664,57.757,11.36,35.141,5.644,76.413,18.465,102.183,11.35,17.075,15,33.4,18.059,49.1-2.819,5.973-4.612,12.634-3.209,18.969a38.635,38.635,0,0,1,.877-9.905l4.012-.419c.861,4.316,1.78,8.586,2.906,12.818-4.4,20.927-4.48,45.143-16.456,53.809,18.346,5.19,14.679-10.628,12.76-24.9,3.574,15.482,9.825,33.573,11.431,50.736-3.841-6.293-11.666-9.831-4.177-19.033-6.28-2.9-10.36-.632-13.943,5.145,6.264,14.95-.09,46.088,13.256,45.372a40.434,40.434,0,0,1-4.538,6.8l-2.619,2.938,12.537,5.757-2.416,3.874a48.756,48.756,0,0,0,4.667-3.854c4.786,19.691,3.683,42.036,16.956,55.035.884-1.726,1.774-3.351,2.59-4.8a42.632,42.632,0,0,1-2.59,4.8,95.189,95.189,0,0,0,9.75,2.258c-5.57,6.664-7.38-1.958-14.118-2.832,1.874,14.04,3.3,24.568,15.282,26.832l.735-23.707a33.694,33.694,0,0,0,9.9.113c8.586,6.609,15.569,12.1,13.672,15.079-4.651,19.881-14.395,36.037-25.061,51.052-1.068-.268-2.042-.584-2.977-.881,1.732-9.912.871-23.668,1.01-28.938L236.593,1671.3l7.864,4.477a6.145,6.145,0,0,1-3.293,4.709,13.7,13.7,0,0,0-3.429,1.168c-1.019.2-1.98.3-2.738.371l.387.932c-.951.594-1.967,1.29-3.077,2.135l3.967.029,2.913,7.076a5.442,5.442,0,0,0,2.29-.026c-9.483,8.738-20.2,17.385-21.865,32.79.371.052.755.129,1.142.213a96.606,96.606,0,0,0-10.537,26.926c-1.487,2.216,4.1,7.78,11.108,12.911.052.519.09,1.01.152,1.558,5.141,4.112,9.537,6.174,13.379,6.67,3.019,1.416,5.593,2.242,7.176,2.109,10.418-5.225,17.527-15.65,23.532-27.068.619-1.174,1.226-2.364,1.829-3.554l.316,2.777,1.229-1.89c-.506-.493-.935-.916-1.329-1.306,5.161-10.244,9.731-20.858,15.256-28.89a227.241,227.241,0,0,0,23.561-16.279c13.4-10.218,22.774,6.677,26.909,10.786,21.684-17.63,28.519-44.143,29.283-73.439.8-29.309-4.48-61.344-6.6-90.327-1.216-8.834-19.9-11.282-21.13-20.12q4.524-7.257,9.021-14.469c-1.193-8.864-6.654-21.736-3.625-26.574,12-19.288,10.476-43.778,6.689-68.552-3.7-24.781-9.715-49.89-6.87-70.294,3.929-27.216-6.677-52.993.471-84.892,11.4-27.854-4.254-66.517-8.086-101.851q-6.169-6.15-12.35-12.318c-2.538-6.467-1.713-15.453-.732-23.333,1.01-7.886,2.135-14.663.09-16.717-23.333-47.165-17.266-96.687-31.909-135.741-5.454-19.672-9.554-39.45-13.3-59.063-3.625-19.633-6.893-39.108-10.818-58.17C259.5,835,255.165,816.315,249,798.286c-.39-1.151-.81-2.29-1.213-3.435l8.305-4.422c-5.325-5.677-9.383-11.421-14.8-12.286q-1.384-3.217-2.858-6.409c-.442-.955-.91-1.9-1.361-2.851,2.69-10.131-.2-17.914-12.3-22.607,3.2-7.76,7.2-3.5,10.483-8.125a113.444,113.444,0,0,1-9.009-34.254c2.945-4.061,4.774-9.686,3-20.868l-3.722.161a174.555,174.555,0,0,1,3.08-27.171c5.348-28.061,17.453-54.106,32.873-70.181-15.059-8.354-17.549-19.4-17.8-31.048s1.861-23.936-4.206-34.854c-4.341-13.2-11.476-27.458-16.314-41.237-4.748-13.782-7.206-27.087-2.287-38.318,11.215-36.028,1.326-64.443-16.366-89.35-.171-.968-.342-1.938-.532-2.9q-1.94-1.563-3.9-3.08c-.693-.9-1.4-1.793-2.109-2.68-21.484-26.964-50.413-50.139-67.659-74.648-43.34,9.215-93.92,18.491-103.009,68.294a79.269,79.269,0,0,0-.306,22.81,329.3,329.3,0,0,0-15.833,36.218M246.847,1685.2l1.6.013c-.845.961-1.745,1.9-2.664,2.825a19.248,19.248,0,0,0,1.061-2.838m-38.789-272.081a25.006,25.006,0,0,1-1.1,3.238c.332-1.1.69-2.187,1.1-3.238" transform="translate(-279.92 -254.256)" fill="#264d9d"/>
        </g>
      </g>
      <g id="Group_270" data-name="Group 270" transform="translate(94.478 949.296)">
        <g id="Group_269" data-name="Group 269" clip-path="url(#clip-path-5)">
          <path id="Path_2370" data-name="Path 2370" d="M124.646,530.9l8.879,64.772-6.406.877L91.192,568.727l28.735-38.434Z" transform="translate(-101.791 -355.686)" fill="#eb7e23"/>
          <path id="Path_2371" data-name="Path 2371" d="M134.565,603.26l8.879,64.772-6.406.877-35.928-27.822,28.735-38.434Z" transform="translate(-79.717 -194.655)" fill="#eb7e23"/>
          <path id="Path_2372" data-name="Path 2372" d="M144.441,675.317l8.879,64.772-6.406.877-35.928-27.822,28.735-38.434Z" transform="translate(-57.738 -34.302)" fill="#eb7e23"/>
          <path id="Path_2373" data-name="Path 2373" d="M154.4,747.993l8.879,64.772-6.406.877L120.95,785.82l28.735-38.434Z" transform="translate(-35.568 127.431)" fill="#eb7e23"/>
          <path id="Path_2374" data-name="Path 2374" d="M86.028,508.853l29.17,21.091a9.371,9.371,0,0,0,14.769-8.87l-7.641-55.722a9.359,9.359,0,0,0-16.6-4.561L83.3,488.946a13.893,13.893,0,0,0,2.729,19.907m2.729-15.559,22.433-28.164a2.275,2.275,0,0,1,2.49-.816,2.308,2.308,0,0,1,1.738,1.987l7.638,55.722a2.391,2.391,0,0,1-3.761,2.267L90.121,503.2a6.885,6.885,0,0,1-2.725-4.67v-.006a6.894,6.894,0,0,1,1.361-5.228" transform="translate(-126.087 -518.251)" fill="#fff"/>
          <path id="Path_2375" data-name="Path 2375" d="M72.811,530.333a13.79,13.79,0,0,0,5.622,9.373l73.7,53.274a9.369,9.369,0,0,0,14.766-8.87l-17.94-130.886a9.367,9.367,0,0,0-16.614-4.561L75.71,519.8a13.75,13.75,0,0,0-2.9,10.534m67.5-78.141a2.3,2.3,0,0,1,1.732,1.98L159.99,585.055a2.392,2.392,0,0,1-3.77,2.267l-73.7-53.264a6.938,6.938,0,0,1-2.722-4.683l0-.013a6.883,6.883,0,0,1,1.374-5.215L137.8,453.011a2.316,2.316,0,0,1,2.513-.819" transform="translate(-142.989 -545.244)" fill="#fff"/>
          <path id="Path_2376" data-name="Path 2376" d="M95.929,581.066,125.1,602.151a9.366,9.366,0,0,0,14.766-8.864l-7.638-55.728A9.364,9.364,0,0,0,115.617,533L93.2,561.159a13.89,13.89,0,0,0,2.732,19.907m27.648-44.539a2.293,2.293,0,0,1,1.735,1.977l7.641,55.731a2.392,2.392,0,0,1-3.77,2.258l-29.164-21.084a7.316,7.316,0,0,1-1.358-9.905l22.42-28.171a2.3,2.3,0,0,1,2.5-.806" transform="translate(-104.06 -357.56)" fill="#fff"/>
          <path id="Path_2377" data-name="Path 2377" d="M82.624,601.92a13.774,13.774,0,0,0,5.622,9.373l73.7,53.28a9.37,9.37,0,0,0,14.766-8.879l-17.94-130.877a9.369,9.369,0,0,0-16.617-4.567L85.517,591.386a13.787,13.787,0,0,0-2.893,10.534m67.5-78.135a2.286,2.286,0,0,1,1.732,1.98L169.8,656.642a2.39,2.39,0,0,1-3.767,2.267L92.339,605.639a7.322,7.322,0,0,1-1.358-9.908l56.635-71.136a2.3,2.3,0,0,1,2.513-.809" transform="translate(-121.151 -385.932)" fill="#fff"/>
          <path id="Path_2378" data-name="Path 2378" d="M149.76,665.492l-7.638-55.722a9.364,9.364,0,0,0-16.6-4.564l-22.426,28.158a13.9,13.9,0,0,0,2.732,19.914l29.17,21.084a9.366,9.366,0,0,0,14.766-8.87m-16.285-56.754a2.293,2.293,0,0,1,1.735,1.977l7.638,55.722a2.384,2.384,0,0,1-3.761,2.267l-29.17-21.091a6.867,6.867,0,0,1-2.725-4.667v-.01a6.885,6.885,0,0,1,1.361-5.229l22.426-28.161a2.3,2.3,0,0,1,2.5-.81" transform="translate(-82.033 -196.865)" fill="#fff"/>
          <path id="Path_2379" data-name="Path 2379" d="M92.543,674.284a13.8,13.8,0,0,0,5.622,9.373l73.69,53.264a9.369,9.369,0,0,0,14.776-8.863l-17.94-130.893a9.375,9.375,0,0,0-16.617-4.561L95.436,663.744a13.79,13.79,0,0,0-2.893,10.541m8.357-6.2,56.641-71.139a2.388,2.388,0,0,1,4.238,1.164l17.943,130.893a2.392,2.392,0,0,1-3.771,2.261L102.258,678a7.334,7.334,0,0,1-1.358-9.912" transform="translate(-99.077 -224.897)" fill="#fff"/>
          <path id="Path_2380" data-name="Path 2380" d="M115.722,725.48l29.167,21.075a9.36,9.36,0,0,0,14.769-8.854L152.02,681.98a9.368,9.368,0,0,0-16.608-4.57L113,705.573a13.883,13.883,0,0,0,2.722,19.907m33.263,15.427-29.177-21.081a7.091,7.091,0,0,1-1.351-9.908l22.416-28.161a2.394,2.394,0,0,1,4.238,1.171l7.638,55.722a2.389,2.389,0,0,1-3.764,2.258" transform="translate(-60.006 -36.173)" fill="#fff"/>
          <path id="Path_2381" data-name="Path 2381" d="M102.42,746.34a13.79,13.79,0,0,0,5.622,9.373l73.69,53.267a9.369,9.369,0,0,0,14.776-8.863l-17.94-130.886a9.364,9.364,0,0,0-16.614-4.561L105.313,735.8a13.8,13.8,0,0,0-2.893,10.541m67.5-78.142a2.286,2.286,0,0,1,1.732,1.98L189.6,801.062a2.392,2.392,0,0,1-3.771,2.261l-73.694-53.264a7.335,7.335,0,0,1-1.358-9.912l56.641-71.139a2.3,2.3,0,0,1,2.506-.81" transform="translate(-77.097 -64.544)" fill="#fff"/>
          <path id="Path_2382" data-name="Path 2382" d="M125.623,797.693l29.167,21.084a9.366,9.366,0,0,0,14.766-8.87l-7.638-55.715a9.363,9.363,0,0,0-16.6-4.571L122.888,777.78a13.9,13.9,0,0,0,2.735,19.914m1.364-10.324v-.007a6.929,6.929,0,0,1,1.358-5.238l22.429-28.164a2.39,2.39,0,0,1,4.232,1.181l7.638,55.712a2.39,2.39,0,0,1-3.767,2.268l-29.164-21.084a6.867,6.867,0,0,1-2.725-4.667" transform="translate(-37.98 124.516)" fill="#fff"/>
          <path id="Path_2383" data-name="Path 2383" d="M112.341,818.7a13.781,13.781,0,0,0,5.619,9.376l73.7,53.267a9.365,9.365,0,0,0,14.766-8.863L188.486,741.59a9.375,9.375,0,0,0-16.617-4.567l-56.635,71.136a13.768,13.768,0,0,0-2.893,10.541m67.5-78.141a2.293,2.293,0,0,1,1.735,1.977l17.943,130.886a2.391,2.391,0,0,1-3.77,2.261l-73.7-53.264a6.945,6.945,0,0,1-2.722-4.677l0-.01a6.883,6.883,0,0,1,1.374-5.219l56.638-71.139a2.312,2.312,0,0,1,2.506-.816" transform="translate(-55.022 96.486)" fill="#fff"/>
          <path id="Path_2384" data-name="Path 2384" d="M362.528,2081.542l-132.98-99.768L328.026,1851.8l-3.077-5.977-126.871-93.636.984-6.531,95.3-122.958.084-10.37-127.967-90.656-1.016-7.4,96.6-121.713.713-11.292-128.425-93.991-.948-6.912,96.375-123.352,1.039-6.164-126.522-93.823.819-11.311L199.281,926.3l-1.3-12.24L72.672,823.592l-1.264-9.234,96.829-122.794-3.316-10.46L41.34,592.271l-3.429-8.544,97.568-122.9-1.519-11.073L8.316,356.83l-.242-7.251,101.9-129.735,38.653-3.567,8.521,10L69.511,339.258l-.981,9.318,125.2,92.985L195,450.789,100.459,573.27l.106,9.018L227.4,672.915l1.364,9.976L130.984,806.943l1.955,8.766L259.709,908.6l.581,4.248-96.246,127.042,2.68,8.573,121.613,88.8,4.032,9.612-97.71,127.342,2.822,6.851,122.655,88.192,4.235,11.086-98,125.213,2.809,6.764,123.707,90.3,3.387,10.45-98.79,124.945.771,5.645,128.654,92.907,1.368,9.976-97.123,123.387.939,6.844,114.169,83.331,1.658,12.1Z" transform="translate(-286.761 -1054.494)" fill="#eb7e23"/>
          <path id="Path_2385" data-name="Path 2385" d="M223.277,1981.529v.007a13.534,13.534,0,0,0,5.322,9.115L357.863,2084.1l.771.555,4.1-5.648L232.689,1985a6.9,6.9,0,0,1-1.271-9.318l92.833-116.614a13.787,13.787,0,0,0-2.648-19.317l-120.791-87.318a6.47,6.47,0,0,1-2.561-4.389v-.007a6.5,6.5,0,0,1,1.287-4.925L292.371,1626.5a13.48,13.48,0,0,0,2.677-10.212v-.006a13.477,13.477,0,0,0-5.322-9.1L168.932,1519.86a6.665,6.665,0,0,1-1.271-9.309l92.833-116.607a13.784,13.784,0,0,0-2.648-19.317L137.059,1287.3a6.912,6.912,0,0,1-1.277-9.318l92.833-116.614a13.476,13.476,0,0,0,2.68-10.2l0-.007a13.465,13.465,0,0,0-5.322-9.1l-120.794-87.318a6.537,6.537,0,0,1-2.558-4.406v-.01a6.471,6.471,0,0,1,1.284-4.909l92.836-116.6a13.492,13.492,0,0,0,2.677-10.215v-.01a13.488,13.488,0,0,0-5.325-9.1L73.3,822.172a6.908,6.908,0,0,1-1.277-9.315L164.859,696.25a13.5,13.5,0,0,0,2.677-10.212v-.013a13.488,13.488,0,0,0-5.322-9.092L41.42,589.609a6.665,6.665,0,0,1-1.271-9.308l92.833-116.608a13.508,13.508,0,0,0,2.677-10.211v-.007a13.481,13.481,0,0,0-5.325-9.1L9.546,357.052a6.67,6.67,0,0,1-1.277-9.318l99.348-124.787.59-.751-5.461-4.338L2.805,343.4a13.788,13.788,0,0,0,2.648,19.31L126.241,450.03a6.88,6.88,0,0,1,1.277,9.318l-92.827,116.6A13.47,13.47,0,0,0,32,586.158v.006a13.481,13.481,0,0,0,5.325,9.1l120.788,87.324a6.662,6.662,0,0,1,1.277,9.318L66.562,808.519a13.793,13.793,0,0,0,2.648,19.317L190,915.154a6.658,6.658,0,0,1,1.277,9.315l-92.83,116.608a13.484,13.484,0,0,0-2.684,10.2v.006a13.523,13.523,0,0,0,5.325,9.109l120.788,87.324a6.876,6.876,0,0,1,1.277,9.315l-92.833,116.614a13.789,13.789,0,0,0,2.648,19.311l120.788,87.324a6.512,6.512,0,0,1,2.561,4.4v.006a6.463,6.463,0,0,1-1.284,4.909L162.2,1506.2a13.493,13.493,0,0,0-2.687,10.205v.006a13.509,13.509,0,0,0,5.325,9.105l120.788,87.318a6.669,6.669,0,0,1,1.277,9.325l-92.833,116.6a13.491,13.491,0,0,0-2.677,10.192v.01a13.539,13.539,0,0,0,5.325,9.121l120.788,87.324a6.9,6.9,0,0,1,1.277,9.315l-92.836,116.607a13.5,13.5,0,0,0-2.674,10.2" transform="translate(-304.728 -1050.978)" fill="#f8dc00"/>
          <path id="Path_2386" data-name="Path 2386" d="M403.393,2082.669a13.221,13.221,0,0,0,11.008-9.237c1.655-5.261-1.264-12.383-5.735-15.614L300.4,1979.55a6.893,6.893,0,0,1-1.274-9.315l92.83-116.614A13.771,13.771,0,0,0,389.3,1834.3l-121.639-87.937a5.5,5.5,0,0,1-1.081-7.876l93.491-117.427a13.532,13.532,0,0,0,2.68-10.218l0-.006a13.481,13.481,0,0,0-5.325-9.1l-120.794-87.324a6.489,6.489,0,0,1-2.555-4.386v-.006a6.516,6.516,0,0,1,1.287-4.919l92.83-116.6a13.777,13.777,0,0,0-2.648-19.317l-120.784-87.327a6.666,6.666,0,0,1-1.277-9.315l92.833-116.608a13.52,13.52,0,0,0,2.68-10.212v-.006a13.5,13.5,0,0,0-5.328-9.1L172.881,1049.3a6.532,6.532,0,0,1-2.558-4.4v-.006a6.467,6.467,0,0,1,1.287-4.919l92.833-116.6a13.517,13.517,0,0,0,2.677-10.218v-.006a13.5,13.5,0,0,0-5.328-9.1L141.008,816.729a6.67,6.67,0,0,1-1.277-9.318l92.833-116.6a13.524,13.524,0,0,0,2.68-10.212l0-.016a13.467,13.467,0,0,0-5.325-9.089L109.121,584.166a6.49,6.49,0,0,1-2.555-4.387v-.006a6.516,6.516,0,0,1,1.287-4.919l92.83-116.6a13.49,13.49,0,0,0-2.648-19.317L77.251,351.606a6.5,6.5,0,0,1-2.561-4.4v-.01a6.47,6.47,0,0,1,1.284-4.909L159.8,237l1.471-1.864-.239.032a13.247,13.247,0,0,0-.4-13.789c-2.871-4.6-8.463-6.78-13.837-6.041l-31.615,4.332a13.491,13.491,0,0,0-8.715,4.961L9.615,346.293a13.451,13.451,0,0,0-2.69,10.189v.016a13.5,13.5,0,0,0,5.335,9.112l120.784,87.324a6.5,6.5,0,0,1,2.558,4.393l0,.007a6.489,6.489,0,0,1-1.287,4.919L41.491,578.85a13.5,13.5,0,0,0-2.68,10.212v.006a13.467,13.467,0,0,0,5.325,9.1l120.784,87.324a6.513,6.513,0,0,1,2.561,4.4v.006a6.489,6.489,0,0,1-1.287,4.912l-92.823,116.6a13.5,13.5,0,0,0-2.69,10.205v.006a13.513,13.513,0,0,0,5.335,9.115L196.8,918.058a6.5,6.5,0,0,1,2.561,4.4v.01a6.474,6.474,0,0,1-1.29,4.909L105.248,1043.98a13.781,13.781,0,0,0,2.645,19.317l120.784,87.324a6.494,6.494,0,0,1,2.561,4.39v.01a6.481,6.481,0,0,1-1.287,4.915l-92.823,116.608a13.45,13.45,0,0,0-2.69,10.189v.016a13.52,13.52,0,0,0,5.335,9.112l120.784,87.318a6.55,6.55,0,0,1,2.558,4.406v.006a6.5,6.5,0,0,1-1.284,4.912L169,1509.1a13.789,13.789,0,0,0,2.645,19.323l120.784,87.311a6.541,6.541,0,0,1,2.561,4.406v.006a6.5,6.5,0,0,1-1.287,4.919l-92.824,116.6a13.491,13.491,0,0,0-2.69,10.2v.007a13.5,13.5,0,0,0,5.335,9.118l120.784,87.327a6.67,6.67,0,0,1,1.274,9.315l-92.827,116.6a13.5,13.5,0,0,0-2.687,10.205v.01a13.509,13.509,0,0,0,5.332,9.112l126.029,91.114a13.442,13.442,0,0,0,9.725,2.419Zm-.948-6.912-32.251,4.422a6.489,6.489,0,0,1-4.68-1.171L239.492,1987.9a6.677,6.677,0,0,1-1.271-9.318l92.824-116.6a13.5,13.5,0,0,0,2.69-10.212v-.01a13.488,13.488,0,0,0-5.332-9.105l-120.788-87.318a6.9,6.9,0,0,1-1.274-9.321l92.824-116.6a13.514,13.514,0,0,0,2.693-10.215l0-.007a13.469,13.469,0,0,0-5.332-9.105l-120.788-87.324a6.9,6.9,0,0,1-1.274-9.309l92.827-116.607a13.76,13.76,0,0,0-2.642-19.317l-120.788-87.318a6.546,6.546,0,0,1-2.555-4.406v-.006a6.486,6.486,0,0,1,1.28-4.912l92.824-116.6a13.5,13.5,0,0,0,2.693-10.205v-.006a13.485,13.485,0,0,0-5.335-9.105l-120.788-87.334a6.666,6.666,0,0,1-1.274-9.308l92.827-116.6a13.508,13.508,0,0,0,2.69-10.212v-.01a13.488,13.488,0,0,0-5.332-9.105L80.1,825.083a6.534,6.534,0,0,1-2.555-4.406v-.006a6.465,6.465,0,0,1,1.28-4.909l92.823-116.6a13.77,13.77,0,0,0-2.642-19.327L48.223,592.513a6.9,6.9,0,0,1-1.274-9.308L139.776,466.6a13.5,13.5,0,0,0,2.69-10.205v-.006a13.469,13.469,0,0,0-5.332-9.105L16.346,359.963a6.546,6.546,0,0,1-2.555-4.406l0-.016a6.469,6.469,0,0,1,1.284-4.9l96.846-121.655a6.5,6.5,0,0,1,4.216-2.4l32.235-4.419a6.5,6.5,0,0,1,5.964,10.489L70.51,337.946a13.484,13.484,0,0,0-2.674,10.2v.007a13.521,13.521,0,0,0,5.322,9.115l120.788,87.324a6.486,6.486,0,0,1,2.564,4.383v.007a6.494,6.494,0,0,1-1.287,4.925l-92.83,116.607a13.475,13.475,0,0,0,2.642,19.31l120.791,87.324a6.879,6.879,0,0,1,1.277,9.315L134.267,803.076a13.467,13.467,0,0,0-2.674,10.192v.01a13.507,13.507,0,0,0,5.322,9.112L257.7,909.708a6.88,6.88,0,0,1,1.277,9.318l-92.83,116.6a13.482,13.482,0,0,0-2.684,10.205l0,.006a13.493,13.493,0,0,0,5.322,9.105l120.791,87.328a6.482,6.482,0,0,1,2.561,4.383v.007a6.479,6.479,0,0,1-1.284,4.925L198.023,1268.2a13.484,13.484,0,0,0-2.674,10.2v.006a13.522,13.522,0,0,0,5.322,9.115l120.788,87.324a6.667,6.667,0,0,1,1.277,9.315l-92.83,116.608a13.471,13.471,0,0,0-2.684,10.2l0,.01a13.492,13.492,0,0,0,5.325,9.105l120.788,87.318a6.9,6.9,0,0,1,1.277,9.321L256.58,1739.862a5.5,5.5,0,0,0,1.077,7.876l127.558,92.23a6.907,6.907,0,0,1,1.277,9.315L293.659,1965.89a13.793,13.793,0,0,0,2.648,19.317l109.06,78.848a6.5,6.5,0,0,1-2.922,11.7" transform="translate(-289.608 -1056.888)" fill="#d72028"/>
          <path id="Path_2387" data-name="Path 2387" d="M140.686,217.741l-5.464-4.335L35.28,338.938a13.511,13.511,0,0,0-2.674,10.2v.006a13.536,13.536,0,0,0,5.322,9.115l120.791,87.321a6.474,6.474,0,0,1,2.558,4.383v.01a6.5,6.5,0,0,1-1.284,4.922L67.167,571.5a13.781,13.781,0,0,0,2.638,19.31L190.6,678.136a6.9,6.9,0,0,1,1.277,9.315L99.037,804.065a13.515,13.515,0,0,0-2.674,10.2v.01a13.541,13.541,0,0,0,5.322,9.112L222.472,910.7a6.9,6.9,0,0,1,1.277,9.315l-92.827,116.608a13.474,13.474,0,0,0-2.684,10.2l0,.016a13.481,13.481,0,0,0,5.322,9.105l120.788,87.328a6.454,6.454,0,0,1,2.558,4.383v0a6.505,6.505,0,0,1-1.28,4.928l-92.836,116.6a13.511,13.511,0,0,0-2.674,10.2v.01a13.535,13.535,0,0,0,5.322,9.112l120.788,87.318a6.521,6.521,0,0,1,2.561,4.406l0,.006a6.468,6.468,0,0,1-1.287,4.909l-92.827,116.608a13.463,13.463,0,0,0-2.684,10.2l0,.016a13.489,13.489,0,0,0,5.322,9.105l120.788,87.318a6.9,6.9,0,0,1,1.277,9.325l-92.836,116.6a13.515,13.515,0,0,0-2.674,10.2v.01a13.541,13.541,0,0,0,5.322,9.115l120.791,87.324a6.674,6.674,0,0,1,1.277,9.315l-92.836,116.607a13.792,13.792,0,0,0,2.648,19.317l129.264,93.453.771.555,4.093-5.644-130.038-94.017a6.891,6.891,0,0,1-1.274-9.315l92.836-116.617a13.507,13.507,0,0,0,2.677-10.205l0-.006a13.491,13.491,0,0,0-5.322-9.1l-120.794-87.321a6.469,6.469,0,0,1-2.561-4.39l0,0a6.522,6.522,0,0,1,1.29-4.932l92.836-116.6a13.486,13.486,0,0,0,2.677-10.205v-.006a13.514,13.514,0,0,0-5.325-9.105L201.407,1515.4a6.664,6.664,0,0,1-1.271-9.309L292.97,1389.48a13.482,13.482,0,0,0,2.68-10.2l0-.01a13.513,13.513,0,0,0-5.322-9.1l-120.791-87.324a6.9,6.9,0,0,1-1.277-9.315l92.836-116.614a13.505,13.505,0,0,0,2.677-10.205v-.007a13.528,13.528,0,0,0-5.325-9.1l-120.791-87.318a6.511,6.511,0,0,1-2.558-4.4v-.01a6.463,6.463,0,0,1,1.284-4.906l92.836-116.6a13.539,13.539,0,0,0,2.677-10.212l0-.01a13.5,13.5,0,0,0-5.322-9.105L105.778,817.721A6.9,6.9,0,0,1,104.5,808.4L197.337,691.8a13.494,13.494,0,0,0,2.677-10.212v-.01a13.507,13.507,0,0,0-5.325-9.1L73.895,585.155a6.667,6.667,0,0,1-1.271-9.312l92.836-116.6a13.528,13.528,0,0,0,2.677-10.212l0,0a13.5,13.5,0,0,0-5.322-9.1L42.021,352.6a6.49,6.49,0,0,1-2.558-4.39V348.2a6.471,6.471,0,0,1,1.28-4.919L140.093,218.5Z" transform="translate(-232.455 -1060.884)" fill="#f8dc00"/>
        </g>
      </g>
      <g id="Group_272" data-name="Group 272" transform="translate(94.478 263.549)">
        <g id="Group_271" data-name="Group 271" clip-path="url(#clip-path-2)">
          <path id="Path_2389" data-name="Path 2389" d="M1600.646,219.606c-17.05,13.921-42.153,20.459-65.721,24.2q-2.4-2.346-4.815-4.687a69.166,69.166,0,0,1-17.266,7.593c-7.721.861-14.853,1.558-20.942,2.29a451.015,451.015,0,0,0-101-15.075c-16.34-.677-32.486-.761-48.536-.4-16.053.394-32,1.119-47.952,1.842-49.906.258-101.1,15.362-148.474,33.238-7.167-13.6-19.23-32.531-37.279-33.422-49.258-6.193-116.408-20.072-151.8,26.039-16.307-15.276-34.376-15.959-43.833-9.018a107.718,107.718,0,0,1-38.079,17.775l-2.964-.464c-15.411-2.461-31.147-5.461-46.707-6.544-15.556-1.064-30.938-.355-45.6,4.374a5.793,5.793,0,0,0,.719.523c-19.417-2.929-38.759-5.906-57.444-6.2-36.36,6.483-76.471-4.783-103.748,4.422-18.456,8.925-35.118,10.321-51.1,11.218-5.535-3.6-11.889-6.283-18.356-5.754a38.846,38.846,0,0,1,9.692,2.213l-.126,4.035c-4.393.268-8.75.6-13.1,1.139-20.136-7.2-44.117-10.57-51.077-23.61-7.631,17.469,8.538,15.985,22.933,16.021-15.82,1.438-34.6,5.177-51.816,4.435,6.757-2.948,11.324-10.221,19.423-1.551,3.729-5.828,2.035-10.179-3.2-14.514-15.662,4.177-45.649-6.348-46.752,6.973a40.571,40.571,0,0,1-6.115-5.422l-2.555-2.993-7.409,11.64L416.138,267a48.614,48.614,0,0,0,3.187,5.145c-20.162,2.071-42.149-2.058-56.828,9.328,1.587,1.11,3.077,2.213,4.406,3.219a42.511,42.511,0,0,1-4.406-3.219,95.114,95.114,0,0,0-3.564,9.354c-5.844-6.425,2.945-7.044,4.725-13.6-14.166-.052-24.79-.074-28.661,11.492l23.391,3.951a33.61,33.61,0,0,0-1.458,9.789c-7.712,7.609-14.1,13.782-16.8,11.5-19.065-7.309-33.747-19.159-47.174-31.764.413-1.022.858-1.945,1.281-2.832,9.583,3.067,23.329,4.08,28.532,4.932L305.6,269.641l-5.5,7.186a6.146,6.146,0,0,1-4.219-3.906,13.737,13.737,0,0,0-.69-3.554c-.058-1.035-.026-2,0-2.761l-.977.255c-.458-1.022-1.01-2.122-1.7-3.338l-.568,3.925-7.406,1.926a5.443,5.443,0,0,0-.287,2.274c-7.367-10.582-14.479-22.378-29.516-26.116-.1.358-.229.729-.365,1.1a96.646,96.646,0,0,0-25.245-14.095c-1.993-1.774-8.263,3-14.3,9.254-.519-.019-1.013-.048-1.564-.061-4.774,4.535-7.409,8.609-8.425,12.347-1.813,2.8-2.98,5.238-3.064,6.825,3.761,11.031,13.124,19.488,23.623,26.99,1.077.774,2.174,1.535,3.274,2.293l-2.8-.065,1.706,1.477c.558-.435,1.035-.8,1.474-1.142,9.447,6.506,19.343,12.476,26.548,19.036a228.125,228.125,0,0,0,12.931,25.558c8.305,14.659-9.708,21.655-14.34,25.194,14.521,23.881,39.859,34.25,68.781,38.985,28.929,4.777,61.382,3.893,90.385,5.735,8.918-.006,13.882-18.188,22.8-18.2q6.575,5.467,13.111,10.905c8.944.019,22.436-3.641,26.819.016,17.482,14.508,41.949,16.324,67.007,15.937,25.055-.3,50.748-2.848,70.578,2.742,26.429,7.586,53.406.581,84.041,11.992,26.052,15.072,66.479,4.822,102.006,5.822q6.928-5.274,13.879-10.563c6.754-1.639,15.543.4,23.22,2.445,7.673,2.071,14.234,4.1,16.546,2.358,49.9-16.711,98.139-3.974,138.818-13.179,20.23-2.732,40.382-4.106,60.325-5.154,19.942-.926,39.679-1.516,59.1-2.819,19.42-1.355,38.524-3.109,57.225-6.767,1.194-.232,2.38-.49,3.571-.735l3.251,8.828c6.344-4.506,12.592-7.747,14.182-12.992q3.377-.934,6.735-1.964c1.006-.3,2.006-.642,3.009-.958,9.676,4.041,17.775,2.238,24.071-9.121,7.254,4.225,2.49,7.609,6.625,11.489a113.346,113.346,0,0,1,35.16-4.274c3.622,3.47,8.95,6.044,20.268,5.806l.345-3.709a174.378,174.378,0,0,1,26.5,6.741c27.077,9.109,51.235,24.639,65.066,42.1,10.324-13.782,21.6-14.75,33.18-13.418s23.461,5.093,35.1.568c13.673-2.509,28.764-7.644,43.069-10.563,14.3-2.835,27.815-3.461,38.276,2.938,34.173,16,63.666,10.063,90.743-4.08.984-.039,1.967-.074,2.948-.135q1.809-1.713,3.577-3.445,1.48-.852,2.945-1.729c29.632-17.623,56.518-43.136,83.144-56.893-3.242-44.191-5.567-95.562-53.67-111.331a79.178,79.178,0,0,0-22.558-3.4,329.011,329.011,0,0,0-33.734-20.6m-1310.2,58.309-.229,1.587c-.839-.968-1.645-1.987-2.438-3.022a20.21,20.21,0,0,0,2.667,1.435m274.829-1.48a25.535,25.535,0,0,1-3.058-1.532c1.045.477,2.071.981,3.058,1.532" transform="translate(144.315 -361.339)" fill="#264d9d"/>
        </g>
      </g>
      <g id="Group_274" data-name="Group 274" transform="translate(493.675 263.549)">
        <g id="Group_273" data-name="Group 273" clip-path="url(#clip-path-7)">
          <path id="Path_2390" data-name="Path 2390" d="M738.6,305.276H673.22v-6.464l32.444-31.818,34.173,33.689Z" transform="translate(794.25 -255.883)" fill="#eb7e23"/>
          <path id="Path_2391" data-name="Path 2391" d="M665.281,305.276H599.906v-6.464l32.444-31.818,34.173,33.689Z" transform="translate(631.098 -255.883)" fill="#eb7e23"/>
          <path id="Path_2392" data-name="Path 2392" d="M592.757,305.276H527.381v-6.464l32.444-31.818L594,300.683Z" transform="translate(469.703 -255.883)" fill="#eb7e23"/>
          <path id="Path_2393" data-name="Path 2393" d="M519.8,305.276H454.427v-6.464l32.444-31.818,34.173,33.689Z" transform="translate(307.352 -255.883)" fill="#eb7e23"/>
          <path id="Path_2394" data-name="Path 2394" d="M447.1,305.276H381.725v-6.464l32.444-31.818,34.173,33.689Z" transform="translate(145.562 -255.883)" fill="#eb7e23"/>
          <path id="Path_2395" data-name="Path 2395" d="M374.064,305.276H308.688v-6.464l32.444-31.818,34.173,33.689Z" transform="translate(-16.974 -255.883)" fill="#eb7e23"/>
          <path id="Path_2396" data-name="Path 2396" d="M301.333,305.276H235.958v-6.464L268.4,266.994l34.173,33.689Z" transform="translate(-178.827 -255.883)" fill="#eb7e23"/>
          <path id="Path_2397" data-name="Path 2397" d="M227.978,305.276H162.6v-6.464l32.444-31.818,34.173,33.689Z" transform="translate(-342.072 -255.883)" fill="#eb7e23"/>
          <path id="Path_2398" data-name="Path 2398" d="M480.3,270.275l-24.855,26.035a9.368,9.368,0,0,0,6.78,15.833h56.244a9.358,9.358,0,0,0,6.773-15.83l-24.848-26.039a13.9,13.9,0,0,0-20.094,0m15.047,4.815L520.2,301.139a2.386,2.386,0,0,1-1.735,4.032H462.222a2.39,2.39,0,0,1-1.732-4.035L485.345,275.1a6.881,6.881,0,0,1,5-2.064h.006a6.9,6.9,0,0,1,5,2.058" transform="translate(303.808 -258.141)" fill="#fff"/>
          <path id="Path_2399" data-name="Path 2399" d="M516.367,258.291a13.775,13.775,0,0,0-10.047,4.3l-62.789,65.782a9.369,9.369,0,0,0,6.783,15.837H582.423a9.367,9.367,0,0,0,6.773-15.843l-62.785-65.769a13.733,13.733,0,0,0-10.044-4.3m68.252,77.49a2.3,2.3,0,0,1-2.2,1.448H450.314a2.392,2.392,0,0,1-1.735-4.041L511.358,267.4a6.948,6.948,0,0,1,5.009-2.061h.016a6.855,6.855,0,0,1,4.98,2.071l62.789,65.766a2.326,2.326,0,0,1,.468,2.6" transform="translate(277.292 -275.25)" fill="#fff"/>
          <path id="Path_2400" data-name="Path 2400" d="M735.166,258.291a13.8,13.8,0,0,0-10.047,4.3L662.34,328.363a9.368,9.368,0,0,0,6.773,15.843H801.222a9.37,9.37,0,0,0,6.783-15.843l-62.789-65.775a13.777,13.777,0,0,0-10.05-4.3m68.252,77.49a2.289,2.289,0,0,1-2.2,1.448H669.113a2.392,2.392,0,0,1-1.729-4.041l62.789-65.775a7.318,7.318,0,0,1,10,0l62.786,65.772a2.3,2.3,0,0,1,.461,2.6" transform="translate(764.221 -275.25)" fill="#fff"/>
          <path id="Path_2401" data-name="Path 2401" d="M698.941,270.278,674.106,296.31a9.365,9.365,0,0,0,6.77,15.837h56.241a9.361,9.361,0,0,0,6.773-15.83l-24.848-26.042a13.9,13.9,0,0,0-20.1,0m40.372,33.441a2.294,2.294,0,0,1-2.2,1.451H680.876a2.384,2.384,0,0,1-1.729-4.041L704,275.1a6.872,6.872,0,0,1,5-2.067H709a6.9,6.9,0,0,1,5,2.058l24.858,26.045a2.3,2.3,0,0,1,.461,2.583" transform="translate(790.395 -258.144)" fill="#fff"/>
          <path id="Path_2402" data-name="Path 2402" d="M626.067,270.272l-24.845,26.039a9.36,9.36,0,0,0,6.767,15.833h56.244a9.368,9.368,0,0,0,6.783-15.833l-24.858-26.029a13.889,13.889,0,0,0-20.091-.01m-19.8,30.861,24.842-26.042a6.941,6.941,0,0,1,5-2.058h.016a6.877,6.877,0,0,1,4.987,2.061l24.858,26.039a2.394,2.394,0,0,1-1.735,4.038H607.989a2.39,2.39,0,0,1-1.726-4.038" transform="translate(628.196 -258.141)" fill="#fff"/>
          <path id="Path_2403" data-name="Path 2403" d="M662.131,258.291a13.75,13.75,0,0,0-10.041,4.3l-62.8,65.782a9.369,9.369,0,0,0,6.783,15.837H728.187a9.373,9.373,0,0,0,6.783-15.843L672.181,262.59a13.767,13.767,0,0,0-10.05-4.3m68.253,77.49a2.3,2.3,0,0,1-2.2,1.448H596.078a2.391,2.391,0,0,1-1.729-4.041L657.138,267.4a7.09,7.09,0,0,1,10,.01l62.779,65.766a2.3,2.3,0,0,1,.468,2.6" transform="translate(601.683 -275.25)" fill="#fff"/>
          <path id="Path_2404" data-name="Path 2404" d="M535.11,312.144h56.238a9.365,9.365,0,0,0,6.78-15.833L573.28,270.272a13.9,13.9,0,0,0-20.1.007l-24.848,26.032a9.365,9.365,0,0,0,6.78,15.833M568.232,275.1l24.858,26.039a2.393,2.393,0,0,1-1.742,4.035H535.11a2.392,2.392,0,0,1-1.732-4.045L558.227,275.1a7.333,7.333,0,0,1,10.005,0" transform="translate(466.002 -258.141)" fill="#fff"/>
          <path id="Path_2405" data-name="Path 2405" d="M589.4,258.292a13.792,13.792,0,0,0-10.05,4.293L516.57,328.36a9.37,9.37,0,0,0,6.773,15.843H655.456a9.374,9.374,0,0,0,6.78-15.843L599.45,262.585a13.792,13.792,0,0,0-10.05-4.293m5,9.118,62.785,65.775a2.387,2.387,0,0,1-1.732,4.041H523.344a2.39,2.39,0,0,1-1.726-4.041L584.4,267.41a7.332,7.332,0,0,1,10.005,0" transform="translate(439.832 -275.248)" fill="#fff"/>
          <path id="Path_2406" data-name="Path 2406" d="M407.412,270.278,382.564,296.31a9.367,9.367,0,0,0,6.773,15.837h56.251a9.365,9.365,0,0,0,6.773-15.837l-24.855-26.035a13.893,13.893,0,0,0-20.094,0m40.372,33.441a2.294,2.294,0,0,1-2.2,1.451H389.337a2.39,2.39,0,0,1-1.726-4.041L412.46,275.1a7.318,7.318,0,0,1,10,0l24.864,26.035a2.3,2.3,0,0,1,.461,2.583" transform="translate(141.614 -258.144)" fill="#fff"/>
          <path id="Path_2407" data-name="Path 2407" d="M444.114,258.291a13.783,13.783,0,0,0-10.05,4.3l-62.8,65.782a9.37,9.37,0,0,0,6.79,15.837h132.1a9.37,9.37,0,0,0,6.783-15.843l-62.789-65.775a13.772,13.772,0,0,0-10.041-4.3m68.243,77.49a2.29,2.29,0,0,1-2.2,1.448h-132.1a2.392,2.392,0,0,1-1.735-4.041l62.789-65.775a7.318,7.318,0,0,1,10,0L511.9,333.185a2.29,2.29,0,0,1,.461,2.6" transform="translate(116.488 -275.25)" fill="#fff"/>
          <path id="Path_2408" data-name="Path 2408" d="M316.461,312.146H372.7a9.361,9.361,0,0,0,6.773-15.83l-24.848-26.042a13.9,13.9,0,0,0-20.1,0L309.678,296.31a9.367,9.367,0,0,0,6.783,15.837m58.438-8.428a2.294,2.294,0,0,1-2.2,1.451H316.461a2.384,2.384,0,0,1-1.735-4.035L339.581,275.1a6.871,6.871,0,0,1,5-2.067h.01a6.9,6.9,0,0,1,4.993,2.058l24.858,26.045a2.3,2.3,0,0,1,.461,2.583" transform="translate(-20.584 -258.144)" fill="#fff"/>
          <path id="Path_2409" data-name="Path 2409" d="M371.067,258.292a13.792,13.792,0,0,0-10.05,4.293L298.237,328.36a9.37,9.37,0,0,0,6.773,15.843H437.129A9.374,9.374,0,0,0,443.9,328.36l-62.785-65.775a13.792,13.792,0,0,0-10.05-4.293m5,9.118,62.786,65.775a2.387,2.387,0,0,1-1.726,4.041H305.011a2.39,2.39,0,0,1-1.726-4.041l62.779-65.775a7.333,7.333,0,0,1,10.005,0" transform="translate(-46.044 -275.248)" fill="#fff"/>
          <path id="Path_2410" data-name="Path 2410" d="M261.648,270.272,236.8,296.311a9.36,9.36,0,0,0,6.767,15.833h56.244a9.368,9.368,0,0,0,6.783-15.833l-24.858-26.029a13.889,13.889,0,0,0-20.091-.01m-19.8,30.861,24.848-26.042a7.1,7.1,0,0,1,10,0l24.858,26.039a2.394,2.394,0,0,1-1.735,4.038H243.57a2.39,2.39,0,0,1-1.726-4.038" transform="translate(-182.778 -258.141)" fill="#fff"/>
          <path id="Path_2411" data-name="Path 2411" d="M298.335,258.291a13.775,13.775,0,0,0-10.047,4.3l-62.782,65.775a9.37,9.37,0,0,0,6.776,15.843H364.391a9.366,9.366,0,0,0,6.773-15.843l-62.779-65.775a13.777,13.777,0,0,0-10.05-4.3m68.253,77.49a2.29,2.29,0,0,1-2.2,1.448H232.282a2.392,2.392,0,0,1-1.729-4.041l62.779-65.775a7.337,7.337,0,0,1,10.008,0l62.785,65.775a2.3,2.3,0,0,1,.461,2.593" transform="translate(-207.899 -275.25)" fill="#fff"/>
          <path id="Path_2412" data-name="Path 2412" d="M188.76,270.279l-24.848,26.032a9.366,9.366,0,0,0,6.783,15.833h56.235a9.362,9.362,0,0,0,6.783-15.827L208.86,270.272a13.9,13.9,0,0,0-20.1.007M198.8,273.03h.006a6.922,6.922,0,0,1,5,2.058l24.858,26.045a2.394,2.394,0,0,1-1.742,4.038H170.694a2.39,2.39,0,0,1-1.735-4.041l24.848-26.035a6.881,6.881,0,0,1,5-2.064" transform="translate(-344.972 -258.141)" fill="#fff"/>
          <path id="Path_2413" data-name="Path 2413" d="M225.3,258.291a13.775,13.775,0,0,0-10.047,4.3l-62.789,65.782a9.369,9.369,0,0,0,6.783,15.837H291.359a9.374,9.374,0,0,0,6.783-15.843L235.353,262.59a13.768,13.768,0,0,0-10.05-4.3m68.252,77.487a2.294,2.294,0,0,1-2.2,1.451H159.25a2.391,2.391,0,0,1-1.729-4.041L220.3,267.4a6.949,6.949,0,0,1,5-2.061h.016a6.855,6.855,0,0,1,4.98,2.071l62.789,65.772a2.308,2.308,0,0,1,.468,2.593" transform="translate(-370.439 -275.25)" fill="#fff"/>
          <path id="Path_2414" data-name="Path 2414" d="M138.11,340.8l116.9-118.2L370.409,337.82l6.338-2.235,110-112.982,6.338,1.864L601.963,335.584l10.26,1.49L719.416,222.6h7.473L834.356,334.836l11.092,2.239L956.008,222.6h6.977l109.121,112.234,5.964,1.864,110.137-112.6,11.1,2.345,105.522,109.515,12.3.374L1423.77,224.467h9.321L1541.6,337.075l10.815-1.864,104.79-110.37,8.934-2.238,108.506,113.353h11.179L1894.948,224.1l7.215.745,114.7,118.572-1.719,38.779-11.063,7.086L1904.047,287.11l-9.1-2.238L1785.82,396.289H1776.5L1668,285.991l-8.947-1.119L1552.037,398.225h-10.066L1432.346,284.5l-8.951.745-109.25,112.979h-4.287l-112.8-112.608-8.857,1.493-104.5,108.425-10.066,2.69-112.9-114.1-7.17,1.864L849.547,395.535l-11.557,2.69-110.744-114.1-7.086,1.864-106.267,110.3-10.815,1.935L492.71,283.382h-5.7L377.492,398.225H367.426L258.372,285.246h-6.909L153.4,387.039H141.181Z" transform="translate(-396.576 -354.671)" fill="#eb7e23"/>
          <path id="Path_2415" data-name="Path 2415" d="M136.9,380.251a13.223,13.223,0,0,0,7.657,12.166c4.986,2.354,12.44.422,16.246-3.561l92.246-96.642a6.893,6.893,0,0,1,9.4.006l102.929,107.8a13.763,13.763,0,0,0,19.5,0L488.518,291.456a5.493,5.493,0,0,1,7.947,0L600.11,400.023a13.513,13.513,0,0,0,9.76,4.048h.006a13.507,13.507,0,0,0,9.738-4.048L722.533,292.208a6.509,6.509,0,0,1,4.693-1.935h.006a6.507,6.507,0,0,1,4.7,1.948l102.922,107.8a13.759,13.759,0,0,0,19.494,0l102.922-107.8a6.654,6.654,0,0,1,9.4,0l102.919,107.8a13.509,13.509,0,0,0,9.754,4.048h.006a13.507,13.507,0,0,0,9.737-4.048L1192,292.208a6.561,6.561,0,0,1,4.706-1.935h.007a6.486,6.486,0,0,1,4.7,1.948l102.912,107.8a13.513,13.513,0,0,0,9.76,4.048h.01a13.518,13.518,0,0,0,9.738-4.048l102.919-107.8a6.654,6.654,0,0,1,9.4,0l102.919,107.8a13.509,13.509,0,0,0,9.754,4.048h.013a13.492,13.492,0,0,0,9.731-4.048l102.919-107.815a6.507,6.507,0,0,1,4.69-1.935h.01a6.507,6.507,0,0,1,4.7,1.948l102.919,107.8a13.479,13.479,0,0,0,19.5,0l102.922-107.8a6.5,6.5,0,0,1,4.7-1.945h.01a6.472,6.472,0,0,1,4.69,1.945l92.93,97.342,1.645,1.713v-.242a13.263,13.263,0,0,0,13.714,1.477c4.948-2.219,7.867-7.467,7.867-12.892V347.71a13.485,13.485,0,0,0-3.732-9.308L1910.667,225.926a13.5,13.5,0,0,0-9.731-4.048h-.016a13.5,13.5,0,0,0-9.75,4.048L1788.247,333.731a6.476,6.476,0,0,1-4.7,1.942h-.007a6.489,6.489,0,0,1-4.7-1.942L1675.932,225.926a13.506,13.506,0,0,0-9.75-4.041h-.01a13.471,13.471,0,0,0-9.737,4.041L1553.516,333.731a6.482,6.482,0,0,1-4.706,1.942h-.006a6.5,6.5,0,0,1-4.69-1.942L1441.195,225.926a13.518,13.518,0,0,0-9.744-4.048h-.01a13.5,13.5,0,0,0-9.75,4.048L1318.779,333.731a6.493,6.493,0,0,1-4.706,1.942h-.006a6.5,6.5,0,0,1-4.69-1.942L1206.454,225.926a13.779,13.779,0,0,0-19.5,0L1084.038,333.731a6.481,6.481,0,0,1-4.7,1.942h-.01a6.487,6.487,0,0,1-4.7-1.942L971.717,225.926a13.5,13.5,0,0,0-9.731-4.048h-.016a13.518,13.518,0,0,0-9.75,4.048L849.307,333.731a6.539,6.539,0,0,1-4.712,1.935h-.006a6.509,6.509,0,0,1-4.693-1.935L736.983,225.926a13.787,13.787,0,0,0-19.5,0l-102.9,107.805a6.518,6.518,0,0,1-4.712,1.942h-.01a6.517,6.517,0,0,1-4.7-1.942L502.245,225.926a13.507,13.507,0,0,0-9.737-4.048H492.5a13.508,13.508,0,0,0-9.76,4.048L379.819,333.731a6.677,6.677,0,0,1-9.4,0L267.5,225.926a13.507,13.507,0,0,0-9.744-4.048h-.006A13.509,13.509,0,0,0,248,225.926L140.615,338.411a13.439,13.439,0,0,0-3.716,9.305Zm6.977,0V347.7a6.494,6.494,0,0,1,1.793-4.477l107.38-112.479a6.666,6.666,0,0,1,9.4,0l102.919,107.8a13.49,13.49,0,0,0,9.754,4.057h.006a13.494,13.494,0,0,0,9.747-4.048L487.789,230.745a6.9,6.9,0,0,1,9.409,0l102.913,107.8a13.533,13.533,0,0,0,9.754,4.057h.006a13.481,13.481,0,0,0,9.744-4.048L722.533,230.745a6.9,6.9,0,0,1,9.4,0l102.922,107.8a13.748,13.748,0,0,0,19.494.01L957.258,230.745a6.523,6.523,0,0,1,4.712-1.932h.01a6.475,6.475,0,0,1,4.69,1.935l102.919,107.8a13.527,13.527,0,0,0,9.744,4.057h.01a13.492,13.492,0,0,0,9.744-4.048l102.929-107.809a6.654,6.654,0,0,1,9.392,0l102.912,107.8a13.533,13.533,0,0,0,9.754,4.057h.006a13.5,13.5,0,0,0,9.747-4.048l102.912-107.809a6.512,6.512,0,0,1,4.712-1.932h.006a6.47,6.47,0,0,1,4.69,1.935l102.912,107.8a13.759,13.759,0,0,0,19.5.01l102.919-107.809a6.9,6.9,0,0,1,9.4,0l102.919,107.8a13.528,13.528,0,0,0,9.747,4.057h.007a13.482,13.482,0,0,0,9.744-4.048l102.912-107.809a6.523,6.523,0,0,1,4.712-1.932h.016a6.461,6.461,0,0,1,4.683,1.935L2013,343.214a6.526,6.526,0,0,1,1.8,4.5v32.534a6.5,6.5,0,0,1-11.2,4.49l-92.927-97.349a13.491,13.491,0,0,0-9.738-4.032h-.01a13.525,13.525,0,0,0-9.75,4.032L1788.247,395.207a6.489,6.489,0,0,1-4.69,1.942h-.006a6.492,6.492,0,0,1-4.706-1.942L1675.926,287.4a13.479,13.479,0,0,0-19.491-.006L1553.516,395.207a6.88,6.88,0,0,1-9.4,0L1441.188,287.392a13.491,13.491,0,0,0-9.737-4.032h-.01a13.526,13.526,0,0,0-9.75,4.032L1318.779,395.207a6.88,6.88,0,0,1-9.4,0L1206.454,287.4a13.47,13.47,0,0,0-9.744-4.045h-.007a13.524,13.524,0,0,0-9.747,4.038L1084.038,395.207a6.489,6.489,0,0,1-4.69,1.942h-.006a6.493,6.493,0,0,1-4.706-1.942L971.717,287.392a13.491,13.491,0,0,0-9.737-4.032h-.01a13.531,13.531,0,0,0-9.75,4.032L849.3,395.207a6.674,6.674,0,0,1-9.405,0L736.976,287.4a13.47,13.47,0,0,0-9.744-4.045h-.006a13.525,13.525,0,0,0-9.747,4.038L614.566,395.207a6.9,6.9,0,0,1-9.408,0L496.465,281.354a5.493,5.493,0,0,0-7.947,0l-108.7,113.853a6.909,6.909,0,0,1-9.4,0L267.5,287.392a13.8,13.8,0,0,0-19.5,0l-92.93,97.349a6.5,6.5,0,0,1-11.2-4.49" transform="translate(-399.272 -356.283)" fill="#fff"/>
          <path id="Path_2416" data-name="Path 2416" d="M2016.209,372.723l5.042-4.825-110.8-116.062a13.5,13.5,0,0,0-9.737-4.035h-.007a13.535,13.535,0,0,0-9.753,4.035L1788.035,359.647a6.46,6.46,0,0,1-4.69,1.938h-.006a6.513,6.513,0,0,1-4.706-1.938L1675.714,251.841a13.779,13.779,0,0,0-19.491-.006L1553.3,359.647a6.9,6.9,0,0,1-9.4,0L1440.974,251.835a13.5,13.5,0,0,0-9.738-4.035h-.006a13.535,13.535,0,0,0-9.754,4.035L1318.564,359.647a6.9,6.9,0,0,1-9.4,0L1206.243,251.841a13.463,13.463,0,0,0-9.738-4.041h-.016a13.507,13.507,0,0,0-9.744,4.035L1083.826,359.647a6.466,6.466,0,0,1-4.69,1.938h-.01a6.506,6.506,0,0,1-4.7-1.938L971.5,251.835a13.5,13.5,0,0,0-9.738-4.035h-.006a13.527,13.527,0,0,0-9.75,4.035L849.1,359.647a6.528,6.528,0,0,1-4.712,1.938h-.01a6.478,6.478,0,0,1-4.69-1.938L736.765,251.841a13.463,13.463,0,0,0-9.737-4.041h-.016a13.507,13.507,0,0,0-9.744,4.035L614.355,359.647a6.9,6.9,0,0,1-9.408,0L502.024,251.835a13.5,13.5,0,0,0-9.737-4.035h-.006a13.524,13.524,0,0,0-9.754,4.035L379.608,359.647a6.669,6.669,0,0,1-9.4,0L267.287,251.835a13.794,13.794,0,0,0-19.5,0L137.649,367.21l-.655.687,5.038,4.825L252.837,256.657a6.89,6.89,0,0,1,9.4,0L365.168,364.469a13.475,13.475,0,0,0,9.744,4.042h.006a13.514,13.514,0,0,0,9.744-4.042L487.575,256.657a6.5,6.5,0,0,1,4.7-1.945h.006a6.509,6.509,0,0,1,4.706,1.948L599.905,364.469a13.482,13.482,0,0,0,9.744,4.042h.01a13.509,13.509,0,0,0,9.744-4.042L722.322,256.657a6.666,6.666,0,0,1,9.4,0L834.646,364.469a13.467,13.467,0,0,0,9.744,4.042h.006a13.5,13.5,0,0,0,9.737-4.042L957.052,256.66a6.9,6.9,0,0,1,9.405,0l102.925,107.809a13.488,13.488,0,0,0,9.744,4.042h.01a13.51,13.51,0,0,0,9.737-4.042l102.913-107.812a6.526,6.526,0,0,1,4.712-1.935h.006a6.461,6.461,0,0,1,4.69,1.938l102.912,107.809a13.516,13.516,0,0,0,9.754,4.042h.006a13.5,13.5,0,0,0,9.744-4.042L1426.534,256.66a6.9,6.9,0,0,1,9.4,0l102.919,107.809a13.492,13.492,0,0,0,9.754,4.042h.006a13.5,13.5,0,0,0,9.737-4.042l102.919-107.812a6.666,6.666,0,0,1,9.4,0l102.919,107.809a13.516,13.516,0,0,0,9.754,4.042h.006a13.505,13.505,0,0,0,9.738-4.042L1896,256.66a6.5,6.5,0,0,1,4.7-1.938h.006a6.475,6.475,0,0,1,4.7,1.938l110.144,115.372Z" transform="translate(-399.06 -298.597)" fill="#f8dc00"/>
        </g>
      </g>
    </g>
    <g id="Group_277" data-name="Group 277" transform="translate(1051.016 1992.861)">
      <g id="Group_276" data-name="Group 276" clip-path="url(#clip-path-8)">
        <path id="Path_2418" data-name="Path 2418" d="M56.642,536.7c4.3,1.911,5.14-3.148,7.983-5.383-.837-.539-1.58-.754-1.854-1.243-1.3-2.295-3.648-4.87-3.305-6.94.268-1.6,3.938-3.614,6.142-3.677,5.282-.152,10.587.75,15.886,1.194a13.44,13.44,0,0,0,2.09-.159c-.278-4.3-.136-7.75,4.782-2.926.549.539,2.371-.281,3.315-.427-1.27-2.936-1.909-5.455-3.318-7.386-1.557-2.139-3.816-3.743-5.825-5.634.275-1.445.572-3.019,1.034-5.475-8.416,1.349-15.149,4.308-20.929,10.425-3.974-4.434-8.423-2.447-13.027-.383,4.148,6.9,4.148,6.9-2.43,16.356-2.6-9.42-7.605-16.383-16.629-18.284l2.4-8.034q-.775-.58-1.554-1.167c-1.454,1.306-2.911,2.609-4.568,4.093-3.144-5.482-6.439-11.235-9.747-17,1.215-.559,3.053-1.409,5.227-2.41-1.266-1.921-2.174-3.3-3.26-4.953,3.082-5.188,6.19-10.418,9.3-15.649.174-.291.569-.628.514-.856-1.2-4.834,1.615-8.993,2.058-13.427.388-3.888,1.551-5.651,4.946-6.358a44.005,44.005,0,0,1,4.946-.929c3.386-.3,5.079-1.865,5.16-5.555.084-4.034,1.832-7.208,5.677-8.96,5.088-2.321,6.895-7.363,7.441-12.161,1.137-9.982,5.76-16.277,15.253-18.959,2.064-.582,3.919-1.928,5.912-2.827,7.489-3.372,8.6-8.372,3.247-14.822-.417-.506-.84-1.005-.943-1.131,2.3-2.655,4.662-4.917,6.452-7.581,1.942-2.886,1.867-7.456,6.707-7.743.336-.023.8-.7.914-1.157q3.305-13.4,6.5-26.834a1.719,1.719,0,0,0-.359-1.442c-7.544-5.776-6.723-14.869-7.777-22.744-.888-6.652-3.24-13.87.714-20.572a2.254,2.254,0,0,0,.1-1.984c-2.82-3.24-5.269-7.224-8.778-9.321-4.358-2.6-7.828-6.3-6.323-11.4,1.422-4.814-2.349-7.119-3.428-10.646-.142-.463-2.123-.82-2.985-.493-5.589,2.123-10.032-1.435-9.961-7.717a38.475,38.475,0,0,0-1.328-10c-.678-2.6-1.88-4.54-5.657-4.285-3.331.225-3.3-3.2-3.024-6.2a14.05,14.05,0,0,0-1.266-6.2c-1.076-2.668-3.179-5.009-3.77-7.733-.42-1.928.262-5.181,1.628-6.229,4.161-3.187,4-7.651,4.572-11.992a2.706,2.706,0,0,0-.33-1.98c-3.331-3.141-6.759-6.18-10.368-9.443-1.354,2.225-2.268,3.73-3.9,6.4-1.926-6.12-5.754-8.329-11.3-7.714v-1.306q2.4-2.306,4.8-4.616c-.029-.433-.061-.87-.09-1.3H23.446c3.3-4.586,3.182-7.327-1.1-9.453-1.205-.6-2.494-3.812-1.955-4.821,2.142-3.984-.168-6.49-2.094-9.195-2.662-3.749-3.234-6.907.4-10.782q42.928-45.717,85.477-91.8c8.439-9.2,18.487-12.971,29.943-10.16,14.619,3.584,29.248,12.362,26.534,31.761-.52,3.716.8,8.279,2.659,11.658a78.649,78.649,0,0,1,9.124,28.15c1.079,8.425,4.723,12.472,13.521,11.946,16.222-.969,32.531-.36,48.8-.446,15.55-.079,28.793,5.66,41.264,15.09,17.666,13.358,35.691,26.325,54.387,38.089,7.366,4.632,12.064,11.668,19.159,16.829,2.245-3.538,4.817-3.191,8.1-1.412,6.361,3.442,20.438.873,24.861-4.073,1.919,1.732,3.615,4.394,5.806,4.926,2.158.522,4.814-1.118,6.8-1.68,2.536,1.339,5.079,2.81,7.728,4.047,3.021,1.412,6.126,2.638,9.217,3.888,1.231.5,2.988,1.6,3.712,1.134,4.239-2.738,8.491-1.686,12.82-.684,2.585.6,5.441.632,7.712,1.835,3.648,1.941,6.8,3.167,8.862.112a90.356,90.356,0,0,1,9.366.86A13.8,13.8,0,0,1,459,201.558c1.431.926,3.2,3.207,3.984,2.867,1.519-.661,2.384-2.8,3.635-4.219,3.635-4.14,6.843-8.881,11.117-12.161,4.895-3.756,8.132-7.958,8.943-14.145.614-4.712,3.405-7.5,7.566-9.436,20.9-9.75,41.7-19.732,62.61-29.459,9.056-4.212,11-3.263,15.576,5.879.559,1.118,2.294,2.708,3.014,2.483,6.074-1.875,8.678,2.311,10.112,6.675,1.192,3.624,2.045,6.788,5.793,8.408.921.4,1.428,1.789,2.3,2.953,2.9-2.39,5.667-5.694,9.247-1.213.255.321,1.745-.569,2.672-.605,2.287-.089,4.588-.093,6.872.043.772.046,1.657,1.061,2.252.866,3.45-1.131,6.827-2.5,10.235-3.766.462-.172,1.182-.526,1.409-.331,3.677,3.131,8.025,1.673,12.061,2.324,2.549.413,4.433,1.554,7.256.238,2.481-1.154,3.7.929,2.853,3.478a17.121,17.121,0,0,1-2.329,3.954c-7.363,10.871-14.881,21.637-22.076,32.62-4.662,7.115-8.142,15.153-13.434,21.689-7.789,9.621-16.845,18.155-25.068,27.426a12.454,12.454,0,0,0-2.956,7.591c.161,34.525.307,69.053,1.021,103.571.83,40.2,2.291,80.384,3.337,120.575.572,21.987.795,43.981,1.367,65.965a12.315,12.315,0,0,0,2.294,6.447c13.789,19.041,27.82,37.9,41.545,56.991,2.433,3.386,3.764,7.6,5.738,11.714-6.4,6.444-12.7,12.726-18.916,19.091-1.373,1.405-2.284,4.179-3.715,4.42-2.171.367-4.614-.926-7.337-1.613-.472,4.186-3.2,5.485-7.776,4.156-.872-.255-2.268,1.62-3.5,2.367-1.189.718-2.484,1.25-3.735,1.865-.591-1.683-1.7-3.386-1.644-5.045.068-1.9,1.163-3.769,1.845-5.746-3.3.661-3.3.661-4.358,14.4-1.422-3.1-2.052-5.148-3.215-6.8-.956-1.366-2.543-2.272-3.851-3.382q-.533.506-1.063,1.012c.187.926.071,2.159.614,2.724,3.276,3.389,3.964,7.915,5.315,12.138.811,2.533-.084,5.578,3.922,6.7,2.452.684.972,5-1.955,6.395-.853-2.457-1.719-4.963-2.814-8.134l-5.447,2.645,5.1,2.113c-1.535,1.445-3.066,2.893-5.124,4.834-.5-2-.721-2.893-.947-3.8l-6.287,3.038c.268.2,1.066.794,1.871,1.375q2.5,1.805,5,3.6c-1.489,1.928-2.717,4.193-4.536,5.707a58.132,58.132,0,0,1-8.991,6.021,6.8,6.8,0,0,1-4.736.737c-7.983-2.41-14.752,1.217-20.661,5.389a34.1,34.1,0,0,0-10.733,13.133c-2.016,4.388-1.864,10.041-1.754,15.113.042,1.865,2.717,3.67,3.867,5.1-1,3.217-1.531,7.6-3.632,10.957a17.937,17.937,0,0,0-2.52,13.42c.181,1.091-2.1,2.9-3.56,3.925-2.313,1.617-4.882,2.85-7.453,4.308-.2-.8-.43-1.742-.8-3.25-.633.972-1.457,1.673-1.354,2.169,1.512,7.284-3.906,12.7-5.092,19.276-.252,1.4-3.748,2.176-6.284,3.521,0-.387-.129.463.019.519,5.434,2.01,5.147,6.14,3.418,10.405-2.53,6.249-5.424,12.342-8.132,18.519-.336.76-.378,1.656-.711,2.42a39.05,39.05,0,0,1-3.8,7.171c-1.771,4.014-3.738,7.952-5.266,12.058-2.41,6.467-4.526,13.047-6.7,19.4.152.126-.465-.39-.827-.691-3.169,6.074-6.255,11.982-9.576,18.35-3.266.546-6.875,1.147-7.13-5.574-2.481,2.724-4.271,4.692-6.319,6.937-5.4-3.614-10.859-7.221-16.274-10.9q-49.29-33.452-98.6-66.871c-3.531-2.384-5.476-5.075-5.7-9.529-.265-5.35-2.93-6.775-7.993-5.34-1.137.324-3.593-.235-3.7-.761-.569-2.774-1.7-7.532-.6-8.223,7.809-4.923,6.129-11.456,5.253-18.995-1.05-9.026-4.352-15.355-12.229-19.58-9.482-5.085-18.655-10.782-28.108-15.93-24.564-13.377-49.27-26.49-73.814-39.907-57.834-31.615-115.52-63.518-173.535-94.773-5.828-3.141-6.578-7.419-6.927-12.3-.145-2.027,2.669-4.275,4.643-7.161-7.99.106-9.079-6.547-11.524-11.619-.711-1.478.3-3.938.792-5.875a40,40,0,0,1,1.835-4.788L28.857,540.8l6.513-2.979c.772-2.192,1.176-4.794,2.5-6.745,1.79-2.635,4.093-4.427,7.26-1.008,1.37,1.481,3.79,1.941,6.271,3.118.591-.688,1.535-1.792,3.124-3.647.733,2.483,1.321,4.467,2.116,7.161M605.321,654.553c-4.029-4.4-4.029-4.4-11.485,1.068-4.63,3.4-4.652,3.809-.187,8.477-1.208-9.883,10.387-2.876,11.673-9.545M18.609,531.24c0,.529,0,1.061,0,1.59q4.177.352,8.355.708c-2.892-7.611-5.486-1.442-8.358-2.3" transform="translate(36.001 83.702)" fill="#284e9e"/>
      </g>
    </g>
    <text id="EVERYONE" transform="translate(1281.863 2416.147)" fill="#f8dc00" font-size="53" font-family="Graphik-Black, Graphik" font-weight="800"><tspan x="0" y="0">EVE</tspan><tspan y="0" letter-spacing="-0.039em">R</tspan><tspan y="0" letter-spacing="-0.059em">Y</tspan><tspan y="0">ONE</tspan></text>
    <text id="IS_BORN_AN" data-name="IS BORN AN" transform="translate(1257.124 2483.735)" fill="#f8dc00" font-size="53" font-family="Graphik-Black, Graphik" font-weight="800"><tspan x="0" y="0">IS </tspan><tspan y="0" letter-spacing="0.005em">B</tspan><tspan y="0">ORN AN</tspan></text>
    <path id="Path_3005" data-name="Path 3005" d="M103.042,156.918h28.7v9.828H115.81v5.706h12.655v8.985H115.81v6.045h16.836v9.828h-29.6Zm35.015,0h14.351l11.469,21.352V156.918h11.24v40.391H162.86l-13.5-24.179v24.179h-11.3Zm52.077,9.828H179.964v-9.828h33.277v9.828H203.016v30.563H190.134Zm27.9-9.828h16.5c11.13,0,16.894,4.462,16.894,13.1v.226a10.719,10.719,0,0,1-6.836,10.565l9.208,16.5H240.347l-7.512-13.841H230.8v13.841H218.032Zm15.763,18.3c3.56,0,5.253-1.467,5.253-4.407v-.226c0-2.937-1.751-4.068-5.2-4.068H230.8v8.7Zm24.338-18.3h28.7v9.828H270.9v5.706h12.655v8.985H270.9v6.045h16.836v9.828h-29.6Zm33.549,17.624h17.74v8.7h-17.74Z" transform="translate(1280.881 2355.215)" fill="#f8dc00"/>
    <text id="PRENEUR." transform="translate(1299.992 2618.912)" fill="#f8dc00" font-size="53" font-family="Graphik-Black, Graphik" font-weight="800"><tspan x="0" y="0">PRENEUR.</tspan></text>
    <text id="_-_Professor_Muhammad_Yunus" data-name="- Professor Muhammad Yunus" transform="translate(1276.338 2667.69)" fill="#fff" font-size="21" font-family="Graphik-Medium, Graphik" font-weight="500"><tspan x="0" y="0">- P</tspan><tspan y="0" letter-spacing="-0.009em">r</tspan><tspan y="0">o</tspan><tspan y="0" letter-spacing="-0.019em">f</tspan><tspan y="0" letter-spacing="0.005em">e</tspan><tspan y="0">ssor </tspan><tspan y="0" letter-spacing="-0.005em">M</tspan><tspan y="0">uhammad </tspan><tspan y="0" letter-spacing="-0.049em">Y</tspan><tspan y="0">unus</tspan></text>
    <text id="_2006_Nobel_Peace_Laureate" data-name="  2006 Nobel Peace Laureate" transform="translate(1301.07 2694.149)" fill="#fff" font-size="20" font-family="Graphik-Light, Graphik" font-weight="300"><tspan x="0" y="0" xml:space="preserve">  </tspan><tspan y="0" letter-spacing="-0.005em">2</tspan><tspan y="0">006 Nobel </tspan><tspan y="0" letter-spacing="-0.019em">P</tspan><tspan y="0" letter-spacing="0.004em">e</tspan><tspan y="0">ace </tspan><tspan y="0" letter-spacing="-0.005em">L</tspan><tspan y="0">au</tspan><tspan y="0" letter-spacing="-0.02em">r</tspan><tspan y="0" letter-spacing="0.005em">e</tspan><tspan y="0">a</tspan><tspan y="0" letter-spacing="-0.004em">t</tspan><tspan y="0">e</tspan></text>
    <g id="Group_281" data-name="Group 281" transform="translate(1051.016 1992.861)">
      <g id="Group_280" data-name="Group 280" clip-path="url(#clip-path-8)">
        <path id="Path_3006" data-name="Path 3006" d="M271.572,70.491v59.24l-18.7,50H214.348l11.967-48.315H203.127V70.491Zm-85.651,0v59.24l-18.7,50H128.7l11.967-48.315H117.476V70.491Z" transform="translate(262.064 162.576)" fill="#ea7e23"/>
      </g>
    </g>
  </g>
</svg>
