<svg xmlns="http://www.w3.org/2000/svg" width="266.492" height="62.086" viewBox="0 0 266.492 62.086">
  <g id="Group_306" data-name="Group 306" transform="translate(-158.396 -5830.38)">
    <path id="Path_3048" data-name="Path 3048" d="M63.579,55.14l-.345-.274a40.423,40.423,0,0,1-5.2-4.838,25.423,25.423,0,0,1-3.345-4.654,16.432,16.432,0,0,1-2.18-8.534,16.115,16.115,0,0,1,1.584-6.3,21.919,21.919,0,0,1,3.135-4.809A25.131,25.131,0,0,1,61.7,21.554l.306-.2.3.213c6.644,4.628,10.144,9.9,10.405,15.672a17.369,17.369,0,0,1-1.2,6.948,25.07,25.07,0,0,1-3.042,5.573,29.917,29.917,0,0,1-4.554,5.1ZM62,21.973l-.013.01a24.125,24.125,0,0,0-4.361,4.07,21.2,21.2,0,0,0-3.067,4.7,15.571,15.571,0,0,0-1.535,6.112,15.972,15.972,0,0,0,2.113,8.27,25.987,25.987,0,0,0,3.277,4.557,41.341,41.341,0,0,0,5.138,4.786l.016.006.019-.006A30.487,30.487,0,0,0,68.05,49.47a24.86,24.86,0,0,0,2.987-5.477A16.767,16.767,0,0,0,72.2,37.255c-.258-5.606-3.683-10.744-10.183-15.272Zm1.568,32.447-.168-.145c-7.054-5.628-10.528-11.486-10.321-17.4a18.039,18.039,0,0,1,4.57-10.77,25.6,25.6,0,0,1,4.2-3.964L62,22.032l.145.1c6.386,4.49,9.75,9.576,10,15.124.223,4.948-2.116,9.35-4.125,12.169a30.813,30.813,0,0,1-4.287,4.851Zm-1.558-31.76a25.02,25.02,0,0,0-3.97,3.77c-1.942,2.306-4.306,5.986-4.451,10.45-.2,5.712,3.148,11.386,9.96,16.872A30.413,30.413,0,0,0,67.6,49.135c1.961-2.758,4.254-7.057,4.038-11.86-.248-5.332-3.493-10.244-9.634-14.614" transform="translate(116.843 5809.029)" fill="#346a96"/>
    <path id="Path_3049" data-name="Path 3049" d="M59.372,26.371l-5.238-3.032.539-.929,5.235,3.045Zm-4.541-3.222,4.361,2.529.023-.045L54.856,23.11Z" transform="translate(120.469 5811.386)" fill="#346a96"/>
    <path id="Path_3050" data-name="Path 3050" d="M57.723,83.364l-1.074-.026,0-.255c.481-23.162.516-40.14.129-50.468-.145-3.751-.345-6.551-.6-8.338a5.467,5.467,0,0,0-.435-1.935l.035-.032-.529-.239.106-.229a.725.725,0,0,1,.8-.445c.49.106.755.674,1,2.171a75.153,75.153,0,0,1,.642,7.963c.442,10.212.413,27.561-.077,51.571Zm-.555-.529.048.006c.487-23.871.516-41.117.074-51.284a74.609,74.609,0,0,0-.632-7.9,8.06,8.06,0,0,0-.31-1.348l-.042.032a10.209,10.209,0,0,1,.384,1.864c.252,1.806.455,4.628.6,8.389.39,10.292.352,27.2-.119,50.239M56.02,21.943a.078.078,0,0,0-.061.026l.068.094.077-.081a.128.128,0,0,0-.084-.039" transform="translate(122.966 5809.103)" fill="#346a96"/>
    <path id="Path_3051" data-name="Path 3051" d="M63.365,32.422l-.1-.042-10.65-4.464.416-.981.232.094,10.092,4.235L71.7,27.542l.435.974Zm-10.089-4.78,10.083,4.225,8.105-3.6-.026-.048-8.08,3.6-.1-.042L53.3,27.6Z" transform="translate(117.089 5821.458)" fill="#346a96"/>
    <path id="Path_3052" data-name="Path 3052" d="M63.586,31.2l-.1-.035-11-3.6.329-1.013,10.67,3.49,8.4-4.37.493.945ZM53.129,27.243,63.54,30.655l8.147-4.245-.023-.045-8.131,4.229-.106-.029L53.145,27.191Z" transform="translate(116.804 5818.652)" fill="#346a96"/>
    <path id="Path_3053" data-name="Path 3053" d="M62.99,30.9,52.7,26.318l.435-.977,9.725,4.328,7.251-5.254.622.864ZM53.372,26.06l9.557,4.254,7.093-5.151L70,25.121l-7.077,5.135L53.4,26.008Z" transform="translate(117.281 5815.848)" fill="#346a96"/>
    <path id="Path_3054" data-name="Path 3054" d="M61.441,28.2l-8.189-2.771.348-1.01,7.68,2.606,5.48-3.751.606.884ZM53.9,25.105l7.467,2.532,5.29-3.619-.026-.042-5.277,3.6-7.438-2.525Z" transform="translate(118.507 5813.3)" fill="#346a96"/>
    <path id="Path_3055" data-name="Path 3055" d="M56.133,25.706l-.49-.955,4.132-2.106.487.948Zm.194-.726.026.045,3.225-1.642-.026-.048Z" transform="translate(123.828 5811.909)" fill="#346a96"/>
    <path id="Path_3056" data-name="Path 3056" d="M62.466,32.991l-9.428-3.658.387-1,.235.09,8.76,3.4,7.125-3.412.461.964ZM53.7,29.034l8.747,3.4,6.883-3.29-.023-.052-6.864,3.287L53.715,29Z" transform="translate(118.031 5824.569)" fill="#346a96"/>
    <path id="Path_3057" data-name="Path 3057" d="M59.63,33.342l-.084-.01-5.2-.822.164-1.055,4.938.774,5.309-2.774.5.935Zm-4.706-1.258,4.619.729,5.025-2.638-.023-.042-5.009,2.629-.087-.019-4.519-.706Z" transform="translate(120.937 5827.064)" fill="#346a96"/>
    <path id="Path_3058" data-name="Path 3058" d="M63.475,56.518a13.012,13.012,0,0,1-5.09-1.074,15.748,15.748,0,0,1-4.409-2.929,22.517,22.517,0,0,1-2.248-2.409c-.355-.435-.706-.916-1.1-1.49a7.911,7.911,0,0,1-1.239-2.942,14.512,14.512,0,0,1-.277-3.122,28.006,28.006,0,0,1,.526-5.238,30.119,30.119,0,0,1,1.451-5.041,36.808,36.808,0,0,1,2.464-5.435c-.41-.329-.658-.5-.677-.516l-.213-.155.626-.861.21.145a31.763,31.763,0,0,1,2.761,2.29,44.584,44.584,0,0,1,5.719,6.3,31.318,31.318,0,0,1,4.932,9.547,23.709,23.709,0,0,1,.977,5.757,22.59,22.59,0,0,1-.661,6.273c-.116.442-.619.6-1.445.726-.519.071-1.087.116-1.3.135l-.077.006c-.306.023-.616.035-.926.035m-10.1-30.461c.155.11.387.29.668.519l.177.145-.116.184a35.632,35.632,0,0,0-2.545,5.548,29.318,29.318,0,0,0-1.422,4.957,27.011,27.011,0,0,0-.516,5.141,14.537,14.537,0,0,0,.261,3.013,7.536,7.536,0,0,0,1.164,2.758c.394.574.735,1.032,1.077,1.461a21.864,21.864,0,0,0,2.2,2.355,15.222,15.222,0,0,0,4.274,2.832,12.171,12.171,0,0,0,5.77,1l.074,0c.21-.019.764-.055,1.268-.132.239-.039.971-.145,1.019-.355a21.164,21.164,0,0,0,.645-6.122,22.73,22.73,0,0,0-.952-5.632,30.667,30.667,0,0,0-4.851-9.392,44.639,44.639,0,0,0-5.651-6.225c-1.2-1.09-2.116-1.8-2.516-2.093Zm10.105,29.9a12.312,12.312,0,0,1-4.867-1.026A15.256,15.256,0,0,1,54.354,52.1a21.618,21.618,0,0,1-2.193-2.358c-.342-.413-.684-.877-1.074-1.448a9.624,9.624,0,0,1-1.413-5.738,28.287,28.287,0,0,1,1.932-10.086,35.7,35.7,0,0,1,2.5-5.467l.155-.255.219.184c.4.332.877.745,1.4,1.219a43.5,43.5,0,0,1,5.648,6.215c3.554,4.812,7.338,12.363,5.161,21.036l-.026.119-.106.048a3.1,3.1,0,0,1-.987.229c-.419.061-.845.094-1.071.113l-.142.013c-.287.023-.584.029-.877.029M54.386,27.525a37.593,37.593,0,0,0-2.3,5.128,27.9,27.9,0,0,0-1.906,9.905,9.165,9.165,0,0,0,1.332,5.451c.381.558.716,1.006,1.051,1.419A20.875,20.875,0,0,0,54.7,51.735a14.937,14.937,0,0,0,4.112,2.729,11.652,11.652,0,0,0,5.506.951l.142-.01c.223-.019.632-.055,1.039-.11a6.5,6.5,0,0,0,.729-.135c2.061-8.438-1.635-15.792-5.109-20.494a43.593,43.593,0,0,0-5.577-6.135c-.419-.387-.813-.716-1.155-1.006" transform="translate(109.287 5817.831)" fill="#346a96"/>
    <path id="Path_3059" data-name="Path 3059" d="M53.457,32.326l-3.774-1.513.4-.987,2.958,1.187,2.874-4.464.9.574Zm-3.109-1.79,2.9,1.164,2.864-4.425-.048-.023-2.829,4.39-2.874-1.158Z" transform="translate(110.564 5820.597)" fill="#346a96"/>
    <path id="Path_3060" data-name="Path 3060" d="M55.151,34.012a7.354,7.354,0,0,1-3.487-1.148,16.672,16.672,0,0,1-2.113-1.413l-.2-.161.674-.832.2.164c.032.019,3.161,2.5,5.164,2.319.752-.948,2.951-3.725,3.993-5.177l.152-.21.871.622-.152.21C59,30.142,56.122,33.735,56.1,33.764l-.119.148-.194.045a3.2,3.2,0,0,1-.632.055m-5.08-2.8a17.038,17.038,0,0,0,1.845,1.213,6.963,6.963,0,0,0,3.235,1.084,2.691,2.691,0,0,0,.535-.052l.013,0c.026-.035,2.687-3.364,4-5.154l-.042-.029c-1.132,1.548-3.277,4.245-3.929,5.067l-.061.081-.1.019c-1.967.274-4.706-1.687-5.461-2.271Z" transform="translate(109.828 5822.836)" fill="#346a96"/>
    <path id="Path_3061" data-name="Path 3061" d="M57.323,35.312A15.962,15.962,0,0,1,52.407,34.2c-1.639-.577-2.964-1.177-2.974-1.181l-.232-.106.445-.971.232.1c.052.026,4.828,2.184,7.415,2.2a34.327,34.327,0,0,0,4.461-5.622l.126-.226.919.542-.126.213a30.068,30.068,0,0,1-3.022,4.1c-.964,1.113-1.745,1.9-1.751,1.9l-.148.145-.206.016c-.071,0-.148,0-.223,0m-7.444-2.648c.445.19,1.48.622,2.7,1.051A15.529,15.529,0,0,0,57.323,34.8a.806.806,0,0,0,.2-.01h.023c.006-.01.764-.777,1.722-1.884a29.04,29.04,0,0,0,2.835-3.8l-.042-.019a35.02,35.02,0,0,1-4.47,5.577l-.074.084h-.187c-2.345,0-6.406-1.7-7.425-2.142Z" transform="translate(109.492 5824.703)" fill="#346a96"/>
    <path id="Path_3062" data-name="Path 3062" d="M59.275,34.046l-.258-.023A39.06,39.06,0,0,1,52.808,32.5c-1.11-.345-2.316-.745-3.39-1.129l-.245-.084.035-.264.274-.768.239.09a58.914,58.914,0,0,0,9.434,2.613l.258.029ZM49.77,30.959c1.029.364,2.155.732,3.187,1.058a39.946,39.946,0,0,0,5.88,1.455l.006-.039a59.123,59.123,0,0,1-9.054-2.522Z" transform="translate(109.429 5828.847)" fill="#346a96"/>
    <path id="Path_3063" data-name="Path 3063" d="M53.067,37.345l-.935-.516,4.29-7.918.939.5Zm-.248-.713.045.019,3.806-7.028-.039-.023Z" transform="translate(116.014 5825.854)" fill="#346a96"/>
    <path id="Path_3064" data-name="Path 3064" d="M60.574,34.223c-2.6,0-10.66-1.5-11-1.558l-.252-.045.2-1.048.248.042c.935.174,9.038,1.648,11.024,1.529l.258-.01.055,1.074-.258.01c-.081.006-.171.006-.271.006M49.921,32.211a98.538,98.538,0,0,0,10.644,1.5v-.048a100.779,100.779,0,0,1-10.641-1.5Z" transform="translate(109.759 5831.775)" fill="#346a96"/>
    <path id="Path_3065" data-name="Path 3065" d="M53.6,37.381l-.884-.6,4.451-6.589.89.6Zm-.174-.745.039.032,3.883-5.732L57.3,30.9Z" transform="translate(117.316 5828.704)" fill="#346a96"/>
    <path id="Path_3066" data-name="Path 3066" d="M50.369,39.2l-.106-1.058.245-.035c.058,0,6.415-.668,9.312-.713.61-1.087,2.874-5.132,3.551-6.354l.126-.223.932.516-.123.219c-.693,1.248-3.022,5.406-3.583,6.415l-.274.49h-.319c-2.609,0-9.437.706-9.508.706Zm.448-.61.006.052c1.277-.129,6.944-.693,9.305-.693l.026-.006.126-.223c.526-.951,2.645-4.735,3.458-6.186l-.048-.029c-.832,1.506-3.054,5.467-3.5,6.267l-.074.126h-.145c-2.435.032-7.918.561-9.154.693" transform="translate(111.855 5830.104)" fill="#346a96"/>
    <path id="Path_3067" data-name="Path 3067" d="M51.681,38.271l-.219-1.058.468-.09c3.774-.781,6.219-1.271,7.1-1.4l2.777-3.013.787.722-3.048,3.312-.2.019c-1.039.11-7.357,1.435-7.418,1.445Zm.384-.658.01.048c1.193-.248,6.27-1.306,7.218-1.4H59.3l2.577-2.793-.035-.035L59.28,36.206l-.094.013c-.539.068-2.213.371-7.122,1.393" transform="translate(114.523 5834.308)" fill="#346a96"/>
    <path id="Path_3068" data-name="Path 3068" d="M67.889,60.637l-.164-.2a120.207,120.207,0,0,1-11.54-15.9A49.266,49.266,0,0,1,51.33,33.889a23.964,23.964,0,0,1-.771-3.558,13.793,13.793,0,0,1-.119-2.474,5.773,5.773,0,0,1,.368-2.013l.11-.226.977.439-.119.239a5.308,5.308,0,0,0-.274,1.68,17.765,17.765,0,0,0,.887,5.715c1.455,4.87,5.432,13.327,16.156,26.068l.161.194ZM51.185,26.3a6.82,6.82,0,0,0-.235,1.574,13.56,13.56,0,0,0,.116,2.4,22.914,22.914,0,0,0,.755,3.471,48.13,48.13,0,0,0,4.806,10.534,118.832,118.832,0,0,0,11.321,15.64l.042-.032C57.336,47.194,53.359,38.727,51.9,33.844a18.264,18.264,0,0,1-.906-5.886,6.671,6.671,0,0,1,.239-1.635Z" transform="translate(112.217 5818.527)" fill="#346a96"/>
    <path id="Path_3069" data-name="Path 3069" d="M51.691,29.343l-1.619-2.274.871-.629,1.626,2.284Zm-.906-2.164,1.029,1.455.039-.029-1.029-1.445Z" transform="translate(111.43 5820.354)" fill="#346a96"/>
    <path id="Path_3070" data-name="Path 3070" d="M58.942,54.7c-.8,0-1.351-.042-1.609-.061l-.31-.032-.135-.252a1.085,1.085,0,0,1-.081-.381c-.01-.123-.029-.316-.048-.577a20.534,20.534,0,0,1-.016-2.126,25.636,25.636,0,0,1,1.442-7.209,30.009,30.009,0,0,1,5.48-9.454,42.982,42.982,0,0,1,12-9.589l.223-.119.523.926-.223.132c-.274.148-.545.3-.81.458.732.642,1.335,1.993,1.838,4.109.352,1.513.529,2.916.561,3.18.706,6.893-.764,12.2-4.374,15.827A16.078,16.078,0,0,1,68.3,52.916a21.968,21.968,0,0,1-5.228,1.458,27.88,27.88,0,0,1-4.125.323m-1.593-.568.016,0c.261.019.8.055,1.577.055a26.391,26.391,0,0,0,4.048-.319A21.636,21.636,0,0,0,68.1,52.442a15.4,15.4,0,0,0,4.948-3.274c3.487-3.5,4.909-8.686,4.222-15.385a30.033,30.033,0,0,0-.558-3.145c-.558-2.361-1.177-3.387-1.651-3.825l-.032.039a3.956,3.956,0,0,1,.89,1.406,15.754,15.754,0,0,1,.748,2.393,29.976,29.976,0,0,1,.555,3.132c.687,6.689-.732,11.86-4.209,15.34A18.049,18.049,0,0,1,63,53.819a25.321,25.321,0,0,1-5.406.277l-.21-.013-.023-.216a16.678,16.678,0,0,1-.052-2.7,25.071,25.071,0,0,1,1.445-7.057c1.768-4.97,6.015-12.057,16.162-18.02v-.006c.258-.155.526-.3.8-.464l-.019-.039a42.432,42.432,0,0,0-11.644,9.35,29.686,29.686,0,0,0-5.386,9.289,25.37,25.37,0,0,0-1.413,7.07,18.534,18.534,0,0,0,.016,2.064c.016.252.035.442.048.555s.023.174.029.2Zm.493-.535a24.459,24.459,0,0,0,5.074-.281,17.585,17.585,0,0,0,9.731-4.541c3.371-3.377,4.728-8.405,4.064-14.934a28.823,28.823,0,0,0-.545-3.077,14.256,14.256,0,0,0-.719-2.3,2.972,2.972,0,0,0-.9-1.339l-.174-.11c-9.444,5.78-13.447,12.515-15.14,17.278A24.7,24.7,0,0,0,57.817,51.2a17.713,17.713,0,0,0,.026,2.393" transform="translate(126.231 5816.921)" fill="#346a96"/>
    <path id="Path_3071" data-name="Path 3071" d="M64.339,31.819l-.184-.177a25.012,25.012,0,0,1-3.541-4.661l-.132-.213.913-.545.135.219a24.585,24.585,0,0,0,3.338,4.4l.194.177Zm-3.154-4.877a24.509,24.509,0,0,0,3.122,4.148l.035-.035a24.856,24.856,0,0,1-3.113-4.138Z" transform="translate(134.594 5819.872)" fill="#346a96"/>
    <path id="Path_3072" data-name="Path 3072" d="M64.052,36.012l-.194-.158a11.051,11.051,0,0,0-3.3-1.31c-1.326-.39-2.506-.645-2.513-.645l-.258-.061.232-1.042.245.055c.832.19,5.015,1.142,6.27,2.171l.2.158Zm-5.657-2.561c.426.1,1.316.319,2.306.6a13.89,13.89,0,0,1,3.274,1.258l.032-.035A24.008,24.008,0,0,0,58.4,33.406Z" transform="translate(128.594 5834.499)" fill="#346a96"/>
    <path id="Path_3073" data-name="Path 3073" d="M60.41,36.6l-.219-.145a9.462,9.462,0,0,1-2.035-2.3c-.629-.884-1.132-1.7-1.135-1.7l-.139-.219.91-.561.135.21a16.769,16.769,0,0,0,2.845,3.667l.213.142Zm-2.825-4.2c.2.294.561.858.99,1.458a11.941,11.941,0,0,0,1.687,2.019l.032-.052a19.77,19.77,0,0,1-2.664-3.454Z" transform="translate(126.583 5832.018)" fill="#346a96"/>
    <path id="Path_3074" data-name="Path 3074" d="M72.526,37.688,61.176,37.5l-.152-.264c-1.4-2.532-3.113-5.99-3.442-6.657l-.116-.235.216-.129.735-.358.11.229c.016.029,1.787,3.635,3.283,6.357l10.734.177ZM61.479,37l10.547.174V37.12l-10.521-.168-.074-.135c-1.29-2.351-2.822-5.415-3.248-6.28l-.045.026c.513,1.039,2.058,4.119,3.332,6.422Z" transform="translate(127.887 5827.965)" fill="#346a96"/>
    <path id="Path_3075" data-name="Path 3075" d="M61.693,38.217l-.152-.416c-.726-2.026-3.193-8.563-3.216-8.625l-.09-.239,1-.381.119.31c.529,1.416,2.28,6.07,3.035,8.144,1.229-.2,5.186-.9,6.248-1.022,1.245-.145,4.141-.355,4.164-.358l.258-.016.074,1.068-.258.016c-.023,0-2.906.213-4.109.342-1.216.152-6.58,1.093-6.628,1.1Zm-2.8-8.986c.452,1.2,2.484,6.593,3.125,8.4l.006.019h.026c.048-.01,5.409-.958,6.651-1.106,1.026-.119,3.158-.287,3.89-.335l-.006-.045c-.732.055-2.877.21-3.883.329-1.122.135-5.551.9-6.425,1.058l-.216.035-.068-.2c-.687-1.893-2.438-6.548-3.051-8.167Z" transform="translate(129.596 5825.066)" fill="#346a96"/>
    <path id="Path_3076" data-name="Path 3076" d="M63.254,35.982l-.177-.245a75.379,75.379,0,0,1-3.941-7.48l-.106-.229.964-.455.11.226c.452.958,2.638,5.548,3.641,7.051a60,60,0,0,0,8.3-1.371l.235-.094.387,1-.239.087c-1.535.606-7.135,1.274-8.812,1.464ZM59.7,28.266a70.711,70.711,0,0,0,3.77,7.157l.026.013.061,0a70.636,70.636,0,0,0,8.451-1.351l-.023-.045a70.5,70.5,0,0,1-8.338,1.326l-.142.026-.094-.119a77.9,77.9,0,0,1-3.664-7.022Z" transform="translate(131.363 5822.876)" fill="#346a96"/>
    <path id="Path_3077" data-name="Path 3077" d="M65.051,34.323a3.978,3.978,0,0,1-.852-.077l-.142-.048a4.909,4.909,0,0,1-1.11-1.39c-.364-.564-.813-1.3-1.339-2.18-.768-1.316-1.477-2.584-1.661-2.922l-.171-.3.935-.516.119.216c.219.393.939,1.68,1.7,2.977a22.247,22.247,0,0,0,2.029,3.145,5.6,5.6,0,0,0,1.4-.039,12.722,12.722,0,0,0,4.416-1.535l.226-.119.5.939-.223.119a13.552,13.552,0,0,1-4.822,1.658,6.845,6.845,0,0,1-1.01.077M60.47,27.6c.261.458.9,1.6,1.584,2.764.51.877.958,1.6,1.319,2.164a5.911,5.911,0,0,0,.929,1.216,3.979,3.979,0,0,0,.748.055,6.732,6.732,0,0,0,.942-.065,12.86,12.86,0,0,0,4.425-1.48l-.023-.042a13.386,13.386,0,0,1-4.367,1.48,6.6,6.6,0,0,1-1.629.026l-.081-.016-.055-.055a21.884,21.884,0,0,1-2.174-3.3c-.655-1.132-1.28-2.255-1.571-2.78Z" transform="translate(133.027 5821.345)" fill="#346a96"/>
    <path id="Path_3078" data-name="Path 3078" d="M61.927,31.687l-.587-.9.213-.139c.435-.287,4.928-3.371,4.967-3.4l.206-.142.606.874-.21.148c-.045.032-4.528,3.119-4.983,3.412Zm.113-.758.029.048c.871-.587,3.754-2.564,4.557-3.122L66.6,27.81c-.806.548-3.693,2.542-4.557,3.119" transform="translate(136.506 5821.839)" fill="#346a96"/>
    <path id="Path_3079" data-name="Path 3079" d="M56.511,57.209l-.687-.768L56,56.267c.245-.21,1.5-1.355,3.267-3.116,1.787-1.777,4.477-4.564,7.138-7.776A62.521,62.521,0,0,0,73.4,35.347c2.029-3.777,2.98-7.07,2.832-9.783l-.019-.248,1.071-.061.019.252a15.072,15.072,0,0,1-.7,5.061,29.44,29.44,0,0,1-2.261,5.283,63.687,63.687,0,0,1-7.106,10.218c-2.687,3.225-5.4,6.048-7.2,7.844-1.951,1.945-3.3,3.142-3.325,3.167Zm.029-.732.032.039c.423-.387,1.555-1.429,3.093-2.961,1.8-1.79,4.5-4.593,7.17-7.812a62.942,62.942,0,0,0,7.051-10.131,28.809,28.809,0,0,0,2.219-5.19,14.439,14.439,0,0,0,.69-4.628H76.75c.081,2.758-.9,6.044-2.909,9.8A63.754,63.754,0,0,1,66.8,45.71c-2.68,3.222-5.377,6.019-7.167,7.809-1.506,1.49-2.642,2.545-3.1,2.958" transform="translate(124.23 5817.717)" fill="#346a96"/>
    <path id="Path_3080" data-name="Path 3080" d="M79.729,43.843V55.157H75V43.843L67.26,27.3H72.5l4.857,11.186L82.226,27.3h5.232Z" transform="translate(149.679 5822.267)" fill="#346a96"/>
    <path id="Path_3081" data-name="Path 3081" d="M80.946,50.728c-4.2,0-6.648-2.7-6.648-6.812V29.531h4.777v14c0,1.377.416,2.79,2.032,2.79a7.187,7.187,0,0,0,3.535-1.255V29.531h4.745V47.777c-2.413,1.41-5.612,2.951-8.441,2.951" transform="translate(165.342 5827.233)" fill="#346a96"/>
    <path id="Path_3082" data-name="Path 3082" d="M90.644,50.573V36.553c0-1.371-.416-2.787-2.042-2.787a7.247,7.247,0,0,0-3.532,1.251V50.573H80.329V32.314c2.413-1.416,5.612-2.954,8.438-2.954,4.2,0,6.654,2.706,6.654,6.822V50.573Z" transform="translate(178.764 5826.853)" fill="#346a96"/>
    <path id="Path_3083" data-name="Path 3083" d="M92.821,50.728c-4.2,0-6.654-2.7-6.654-6.812V29.531h4.78v14c0,1.377.419,2.79,2.038,2.79a7.232,7.232,0,0,0,3.535-1.255V29.531h4.741V47.777c-2.413,1.41-5.619,2.951-8.441,2.951" transform="translate(191.756 5827.233)" fill="#346a96"/>
    <path id="Path_3084" data-name="Path 3084" d="M105.542,36.039c-1.916-1.045-3.864-2.332-6.112-2.332-1.332,0-2.413.381-2.413,1.916,0,3.948,10.312.955,10.312,8.9,0,4.154-3,6.609-7.028,6.609-3,0-5.777-1.406-8.36-2.787l1.913-3.9c1.961,1.029,4,2.284,6.283,2.284,1.413,0,2.454-.7,2.454-2.206,0-3.325-10.228-1.087-10.228-8.9,0-3.987,2.951-6.273,6.9-6.273,2.958,0,5.657,1.368,8.193,2.738Z" transform="translate(204.605 5826.831)" fill="#346a96"/>
    <path id="Path_3085" data-name="Path 3085" d="M108.4,56.127c-4.4,0-8.234-2.074-8.234-7.193V34.3c0-5.106,3.832-7.193,8.234-7.193,3.361,0,6.357,1.416,9.312,2.871l-2.032,3.912c-2.293-1.129-4.667-2.448-7.28-2.448a3.307,3.307,0,0,0-3.493,3.49V48.309A3.311,3.311,0,0,0,108.4,51.8c2.613,0,4.986-1.332,7.28-2.451l2.032,3.909c-2.954,1.461-5.951,2.867-9.312,2.867" transform="translate(222.907 5821.834)" fill="#346a96"/>
    <path id="Path_3086" data-name="Path 3086" d="M119.477,49.071a14.628,14.628,0,0,1-6.319,2.08c-4.151,0-6.651-2.664-6.651-6.822V36.883a7.5,7.5,0,1,1,15,0V42h-10.26v1.948c0,1.532.532,2.79,2.074,2.79a11.369,11.369,0,0,0,4.158-1.451l1.706-.874,2.322,3.49Zm-2.706-12.308a2.75,2.75,0,0,0-2.738-2.784,2.784,2.784,0,0,0-2.784,2.784v1.3h5.522Z" transform="translate(237.022 5826.855)" fill="#346a96"/>
    <path id="Path_3087" data-name="Path 3087" d="M122.7,50.573V36.553c0-1.371-.416-2.787-2.045-2.787a7.34,7.34,0,0,0-3.538,1.251V50.573h-4.735V32.314c2.406-1.416,5.612-2.954,8.441-2.954,4.2,0,6.654,2.706,6.654,6.822V50.573Z" transform="translate(250.101 5826.853)" fill="#346a96"/>
    <path id="Path_3088" data-name="Path 3088" d="M126.149,54.721c-3.529,0-5.7-1.829-5.7-5.99V37.381h-2.616V33.565h2.616V29.279l4.793-1.542v5.828h3.983v3.816h-3.983V48.605c0,.832.41,1.713,1.445,1.713a10.815,10.815,0,0,0,2.538-.461v4.328a13.511,13.511,0,0,1-3.08.535" transform="translate(262.234 5823.241)" fill="#346a96"/>
    <path id="Path_3089" data-name="Path 3089" d="M133.7,34.933a5.741,5.741,0,0,0-3.445-1.168,5.935,5.935,0,0,0-3.119.832V50.573H122.4V31.9a15.913,15.913,0,0,1,8.028-2.542,7.824,7.824,0,0,1,5.609,2.206Z" transform="translate(272.388 5826.853)" fill="#346a96"/>
    <path id="Path_3090" data-name="Path 3090" d="M140.058,49.071a14.653,14.653,0,0,1-6.328,2.08c-4.154,0-6.651-2.664-6.651-6.822V36.883a7.5,7.5,0,1,1,15.008,0V42h-10.27v1.948c0,1.532.539,2.79,2.074,2.79a11.323,11.323,0,0,0,4.161-1.451l1.709-.874,2.325,3.49Zm-2.713-12.308A2.748,2.748,0,0,0,134.6,33.98a2.791,2.791,0,0,0-2.787,2.784v1.3h5.528Z" transform="translate(282.801 5826.855)" fill="#346a96"/>
  </g>
</svg>
