<svg xmlns="http://www.w3.org/2000/svg" width="206.71" height="54.027" viewBox="0 0 206.71 54.027">
  <g id="Group_307" data-name="Group 307" transform="translate(-1014.867 -5840.343)">
    <path id="Path_3007" data-name="Path 3007" d="M341.177,45.931l-.119.323-1.3,3.571a7.3,7.3,0,0,1-1.123,1.916,3,3,0,0,1-1.416.919,9.539,9.539,0,0,1-2.274.232l-1.032-.026-.793-.029V49.5l.735.058a4.936,4.936,0,0,0,1.329-.145,1.4,1.4,0,0,0,.887-.652,2.752,2.752,0,0,0,.294-.652c.1-.313.187-.629.264-.942l-5.37-15.017-.442-1.329h4.6l3.335,11.566,3.3-11.566h4.367Z" transform="translate(736.205 5830.108)" fill="#c8215a"/>
    <path id="Path_3008" data-name="Path 3008" d="M346.272,45.931l-.119.323-1.3,3.571a7.293,7.293,0,0,1-1.122,1.916,3,3,0,0,1-1.416.919,9.529,9.529,0,0,1-2.271.232l-1.035-.026-.793-.029V49.5l.735.058a4.936,4.936,0,0,0,1.329-.145,1.4,1.4,0,0,0,.887-.652,2.752,2.752,0,0,0,.294-.652c.1-.313.187-.629.265-.942l-5.37-15.017-.442-1.329h4.6l3.335,11.566,3.3-11.566h4.367Z" transform="translate(747.543 5830.108)" fill="#c8215a"/>
    <path id="Path_3009" data-name="Path 3009" d="M351.227,45.931l-.207.619h-4.338l-5.428-15.108-.206-.619h4.6l3.216,11.566,3.422-11.566h4.367Z" transform="translate(758.965 5830.109)" fill="#3a3a3a"/>
    <path id="Path_3010" data-name="Path 3010" d="M350.324,40.078a4.121,4.121,0,0,0,.974,2.893,3.76,3.76,0,0,0,2.774.974,3,3,0,0,0,1.655-.474,2.357,2.357,0,0,0,1-1.239h4.248a6.488,6.488,0,0,1-1.471,2.745,6.759,6.759,0,0,1-2.422,1.709,8.256,8.256,0,0,1-3.009.561q-7.789,0-7.847-8.586a9.99,9.99,0,0,1,.739-3.893,6.4,6.4,0,0,1,2.477-2.951,7.822,7.822,0,0,1,4.338-1.122,7.094,7.094,0,0,1,4.306,1.213,6.22,6.22,0,0,1,2.361,3.154,12.477,12.477,0,0,1,.71,4.28v.735ZM355.872,35a2.9,2.9,0,0,0-2.155-.916q-2.714,0-3.216,3.364h6.406A3.767,3.767,0,0,0,355.872,35" transform="translate(770.487 5829.824)" fill="#3a3a3a"/>
    <path id="Path_3011" data-name="Path 3011" d="M361.787,46.835v-9.5a4.7,4.7,0,0,0-.471-2.3q-.445-.8-2.245-.826a2.869,2.869,0,0,0-2.448,1.061,4.755,4.755,0,0,0-.768,2.567v9h-4.161V31.108h3.987v2.3a5.17,5.17,0,0,1,4.78-2.716,5.964,5.964,0,0,1,2.919.652,4.4,4.4,0,0,1,1.916,1.8,5.739,5.739,0,0,1,.652,2.8V46.835Z" transform="translate(782.66 5829.824)" fill="#3a3a3a"/>
    <path id="Path_3012" data-name="Path 3012" d="M364.668,49.609l-.974.029h-.561a7.022,7.022,0,0,1-2.655-.384,2.407,2.407,0,0,1-1.239-1.18,6.181,6.181,0,0,1-.326-1.829V36.714h-2.122v-2.98h2.122V29.515h4.161v4.219h2.538v2.98h-2.538v8.528a1.481,1.481,0,0,0,.268,1.032,3.379,3.379,0,0,0,1.384.239l.474-.032.413-.029V49.58Z" transform="translate(794.003 5827.198)" fill="#3a3a3a"/>
    <path id="Path_3013" data-name="Path 3013" d="M370.549,46.55V44.37a6.726,6.726,0,0,1-2.1,1.945,5.7,5.7,0,0,1-2.742.648,5.428,5.428,0,0,1-3.925-1.445,6.363,6.363,0,0,1-1.445-4.338V30.823H364.5V40.56q0,2.922,2.654,2.922a3.973,3.973,0,0,0,1.477-.326,3,3,0,0,0,1.268-1.148,4.305,4.305,0,0,0,.471-2.1V30.823h4.1V46.55Z" transform="translate(801.901 5830.108)" fill="#3a3a3a"/>
    <path id="Path_3014" data-name="Path 3014" d="M373.881,34.914q-3.812,0-3.809,3.748v8.17h-4.161V31.108h3.925v2.771l.119-.055a8.08,8.08,0,0,1,.942-1.564,4.032,4.032,0,0,1,1.242-1.093,4.283,4.283,0,0,1,2.093-.471l.413.029.381.029v4.219Z" transform="translate(814.296 5829.824)" fill="#3a3a3a"/>
    <path id="Path_3015" data-name="Path 3015" d="M373.194,40.078a4.121,4.121,0,0,0,.974,2.893,3.76,3.76,0,0,0,2.774.974,3,3,0,0,0,1.654-.474,2.357,2.357,0,0,0,1-1.239h4.251a6.53,6.53,0,0,1-1.474,2.745,6.76,6.76,0,0,1-2.422,1.709,8.257,8.257,0,0,1-3.009.561q-7.789,0-7.848-8.586a9.991,9.991,0,0,1,.739-3.893,6.4,6.4,0,0,1,2.477-2.951,7.829,7.829,0,0,1,4.338-1.122,7.094,7.094,0,0,1,4.306,1.213,6.219,6.219,0,0,1,2.361,3.154,12.48,12.48,0,0,1,.71,4.28v.735ZM378.742,35a2.9,2.9,0,0,0-2.155-.916q-2.714,0-3.216,3.364h6.4A3.748,3.748,0,0,0,378.742,35" transform="translate(821.382 5829.824)" fill="#3a3a3a"/>
    <path id="Path_3016" data-name="Path 3016" d="M387.908,44.739a5.561,5.561,0,0,1-2.39,1.861,9.53,9.53,0,0,1-3.658.645,13.787,13.787,0,0,1-1.5-.087A1.389,1.389,0,0,1,380,47.1c-.571-.081-.932-.135-1.09-.177a6.55,6.55,0,0,1-2.419-1,4.749,4.749,0,0,1-2.245-4.1h4.28q0,2.3,3.393,2.3a3.385,3.385,0,0,0,1.977-.471,1.448,1.448,0,0,0,.677-1.122c0-.59-.577-1.032-1.742-1.326l-3.567-.858a9.089,9.089,0,0,1-3.129-1.416,3.649,3.649,0,0,1-1.3-2.98,5.2,5.2,0,0,1,.681-2.655,4.771,4.771,0,0,1,2.155-1.89,8.2,8.2,0,0,1,3.567-.706,9.071,9.071,0,0,1,4.367.855,4.111,4.111,0,0,1,2.067,2.006,7.634,7.634,0,0,1,.413,1.21,3.583,3.583,0,0,1,.177,1.119h-4.1a2.151,2.151,0,0,0-.739-1.5,3.052,3.052,0,0,0-2.035-.5q-2.448,0-2.509,1.477c0,.513.564.916,1.684,1.21l3.6.887a8.887,8.887,0,0,1,3.216,1.416,3.481,3.481,0,0,1,1.358,2.948,4.958,4.958,0,0,1-.826,2.922" transform="translate(832.843 5829.826)" fill="#3a3a3a"/>
    <path id="Path_3017" data-name="Path 3017" d="M327.531,35.178,314.649,51.338l2.577,3.232L330.108,38.41Z" transform="translate(700.218 5839.801)" fill="#3a3a3a"/>
    <path id="Path_3018" data-name="Path 3018" d="M325.593,37.182l2.577,3.235-7.731,9.692-2.6-3.264Z" transform="translate(707.31 5844.26)" fill="#c8215a"/>
    <path id="Path_3019" data-name="Path 3019" d="M335.083,56.035,337.66,52.8,320.779,31.616,318.2,34.847Z" transform="translate(708.124 5831.872)" fill="#3a3a3a"/>
    <path id="Path_3020" data-name="Path 3020" d="M331.525,41.091l-2.577,3.232L318.643,31.4l2.577-3.232Z" transform="translate(709.106 5824.191)" fill="#c8215a"/>
    <path id="Path_3021" data-name="Path 3021" d="M322.637,42.915l2.577,3.235,14.727-18.478-2.574-3.232Z" transform="translate(717.994 5815.903)" fill="#3a3a3a"/>
    <path id="Path_3022" data-name="Path 3022" d="M322.637,46.923l2.577,3.235L339.941,31.68l-2.574-3.232Z" transform="translate(717.994 5824.823)" fill="#c8215a"/>
  </g>
</svg>
